 999
VISION3D DXF
0
SECTION
2
HEADER
0
ENDSEC
0
SECTION
2
TABLES
0
ENDSEC
0
SECTION
2
BLOCKS
 0
BLOCK
 70
0
 2
TOP_SILKSCREEN_Polygon_1
 10
0
 20
0
 30
0
0
3DFACE
8
2
 62
2
 10
-0.174000008264557
 20
-0.0239961011397536
 30
0
 11
-0.174000008264557
 21
-0.0389961018522154
 31
0
 12
-0.164000007789582
 22
-0.0389961018522154
 32
0
 13
-0.164000007789582
 23
-0.0239961011397536
 33
0
0
3DFACE
8
2
 62
2
 10
-0.174000008264557
 20
-0.0239961011397536
 30
0.0350000016624108
 11
-0.174000008264557
 21
-0.0389961018522154
 31
0.0350000016624108
 12
-0.164000007789582
 22
-0.0389961018522154
 32
0.0350000016624108
 13
-0.164000007789582
 23
-0.0239961011397536
 33
0.0350000016624108
0
3DFACE
8
2
 62
2
 10
-0.164000007789582
 20
-0.0239961011397536
 30
0
 11
-0.174000008264557
 21
-0.0239961011397536
 31
0
 12
-0.174000008264557
 22
-0.0239961011397536
 32
0.0350000016624108
 13
-0.164000007789582
 23
-0.0239961011397536
 33
0.0350000016624108
0
3DFACE
8
2
 62
2
 10
-0.174000008264557
 20
-0.0239961011397536
 30
0
 11
-0.174000008264557
 21
-0.0389961018522154
 31
0
 12
-0.174000008264557
 22
-0.0389961018522154
 32
0.0350000016624108
 13
-0.174000008264557
 23
-0.0239961011397536
 33
0.0350000016624108
0
3DFACE
8
2
 62
2
 10
-0.174000008264557
 20
-0.0389961018522154
 30
0
 11
-0.164000007789582
 21
-0.0389961018522154
 31
0
 12
-0.164000007789582
 22
-0.0389961018522154
 32
0.0350000016624108
 13
-0.174000008264557
 23
-0.0389961018522154
 33
0.0350000016624108
0
3DFACE
8
2
 62
2
 10
-0.164000007789582
 20
-0.0389961018522154
 30
0
 11
-0.164000007789582
 21
-0.0239961011397536
 31
0
 12
-0.164000007789582
 22
-0.0239961011397536
 32
0.0350000016624108
 13
-0.164000007789582
 23
-0.0389961018522154
 33
0.0350000016624108
 0
ENDBLK
 0
BLOCK
 70
0
 2
TOP_SILKSCREEN_Polygon_17
 10
0
 20
0
 30
0
0
3DFACE
8
2
 62
2
 10
-0.0547441026002052
 20
-0.164000007789582
 30
0
 11
-0.0547441026002052
 21
-0.174000008264557
 31
0
 12
-0.0397441018877435
 22
-0.174000008264557
 32
0
 13
-0.0397441018877435
 23
-0.164000007789582
 33
0
0
3DFACE
8
2
 62
2
 10
-0.0547441026002052
 20
-0.164000007789582
 30
0.0350000016624108
 11
-0.0547441026002052
 21
-0.174000008264557
 31
0.0350000016624108
 12
-0.0397441018877435
 22
-0.174000008264557
 32
0.0350000016624108
 13
-0.0397441018877435
 23
-0.164000007789582
 33
0.0350000016624108
0
3DFACE
8
2
 62
2
 10
-0.0397441018877435
 20
-0.164000007789582
 30
0
 11
-0.0547441026002052
 21
-0.164000007789582
 31
0
 12
-0.0547441026002052
 22
-0.164000007789582
 32
0.0350000016624108
 13
-0.0397441018877435
 23
-0.164000007789582
 33
0.0350000016624108
0
3DFACE
8
2
 62
2
 10
-0.0547441026002052
 20
-0.164000007789582
 30
0
 11
-0.0547441026002052
 21
-0.174000008264557
 31
0
 12
-0.0547441026002052
 22
-0.174000008264557
 32
0.0350000016624108
 13
-0.0547441026002052
 23
-0.164000007789582
 33
0.0350000016624108
0
3DFACE
8
2
 62
2
 10
-0.0547441026002052
 20
-0.174000008264557
 30
0
 11
-0.0397441018877435
 21
-0.174000008264557
 31
0
 12
-0.0397441018877435
 22
-0.174000008264557
 32
0.0350000016624108
 13
-0.0547441026002052
 23
-0.174000008264557
 33
0.0350000016624108
0
3DFACE
8
2
 62
2
 10
-0.0397441018877435
 20
-0.174000008264557
 30
0
 11
-0.0397441018877435
 21
-0.164000007789582
 31
0
 12
-0.0397441018877435
 22
-0.164000007789582
 32
0.0350000016624108
 13
-0.0397441018877435
 23
-0.174000008264557
 33
0.0350000016624108
 0
ENDBLK
 0
BLOCK
 70
0
 2
TOP_SILKSCREEN_Polygon_18
 10
0
 20
0
 30
0
0
3DFACE
8
2
 62
2
 10
0.102736204879708
 20
-0.164000007789582
 30
0
 11
0.102736204879708
 21
-0.174000008264557
 31
0
 12
0.117736205592169
 22
-0.174000008264557
 32
0
 13
0.117736205592169
 23
-0.164000007789582
 33
0
0
3DFACE
8
2
 62
2
 10
0.102736204879708
 20
-0.164000007789582
 30
0.0350000016624108
 11
0.102736204879708
 21
-0.174000008264557
 31
0.0350000016624108
 12
0.117736205592169
 22
-0.174000008264557
 32
0.0350000016624108
 13
0.117736205592169
 23
-0.164000007789582
 33
0.0350000016624108
0
3DFACE
8
2
 62
2
 10
0.117736205592169
 20
-0.164000007789582
 30
0
 11
0.102736204879708
 21
-0.164000007789582
 31
0
 12
0.102736204879708
 22
-0.164000007789582
 32
0.0350000016624108
 13
0.117736205592169
 23
-0.164000007789582
 33
0.0350000016624108
0
3DFACE
8
2
 62
2
 10
0.102736204879708
 20
-0.164000007789582
 30
0
 11
0.102736204879708
 21
-0.174000008264557
 31
0
 12
0.102736204879708
 22
-0.174000008264557
 32
0.0350000016624108
 13
0.102736204879708
 23
-0.164000007789582
 33
0.0350000016624108
0
3DFACE
8
2
 62
2
 10
0.102736204879708
 20
-0.174000008264557
 30
0
 11
0.117736205592169
 21
-0.174000008264557
 31
0
 12
0.117736205592169
 22
-0.174000008264557
 32
0.0350000016624108
 13
0.102736204879708
 23
-0.174000008264557
 33
0.0350000016624108
0
3DFACE
8
2
 62
2
 10
0.117736205592169
 20
-0.174000008264557
 30
0
 11
0.117736205592169
 21
-0.164000007789582
 31
0
 12
0.117736205592169
 22
-0.164000007789582
 32
0.0350000016624108
 13
0.117736205592169
 23
-0.174000008264557
 33
0.0350000016624108
 0
ENDBLK
 0
BLOCK
 70
0
 2
TOP_SILKSCREEN_Polygon_34
 10
0
 20
0
 30
0
0
3DFACE
8
2
 62
2
 10
0.174000008264557
 20
0.0389961018522154
 30
0
 11
0.174000008264557
 21
0.0239961011397536
 31
0
 12
0.164000007789582
 22
0.0239961011397536
 32
0
 13
0.164000007789582
 23
0.0389961018522154
 33
0
0
3DFACE
8
2
 62
2
 10
0.174000008264557
 20
0.0389961018522154
 30
0.0350000016624108
 11
0.174000008264557
 21
0.0239961011397536
 31
0.0350000016624108
 12
0.164000007789582
 22
0.0239961011397536
 32
0.0350000016624108
 13
0.164000007789582
 23
0.0389961018522154
 33
0.0350000016624108
0
3DFACE
8
2
 62
2
 10
0.164000007789582
 20
0.0389961018522154
 30
0
 11
0.174000008264557
 21
0.0389961018522154
 31
0
 12
0.174000008264557
 22
0.0389961018522154
 32
0.0350000016624108
 13
0.164000007789582
 23
0.0389961018522154
 33
0.0350000016624108
0
3DFACE
8
2
 62
2
 10
0.174000008264557
 20
0.0389961018522154
 30
0
 11
0.174000008264557
 21
0.0239961011397536
 31
0
 12
0.174000008264557
 22
0.0239961011397536
 32
0.0350000016624108
 13
0.174000008264557
 23
0.0389961018522154
 33
0.0350000016624108
0
3DFACE
8
2
 62
2
 10
0.174000008264557
 20
0.0239961011397536
 30
0
 11
0.164000007789582
 21
0.0239961011397536
 31
0
 12
0.164000007789582
 22
0.0239961011397536
 32
0.0350000016624108
 13
0.174000008264557
 23
0.0239961011397536
 33
0.0350000016624108
0
3DFACE
8
2
 62
2
 10
0.164000007789582
 20
0.0239961011397536
 30
0
 11
0.164000007789582
 21
0.0389961018522154
 31
0
 12
0.164000007789582
 22
0.0389961018522154
 32
0.0350000016624108
 13
0.164000007789582
 23
0.0239961011397536
 33
0.0350000016624108
 0
ENDBLK
 0
BLOCK
 70
0
 2
TOP_SILKSCREEN_Polygon_50
 10
0
 20
0
 30
0
0
3DFACE
8
2
 62
2
 10
0.0397441018877435
 20
0.164000007789582
 30
0
 11
0.0397441018877435
 21
0.174000008264557
 31
0
 12
0.0547441026002052
 22
0.174000008264557
 32
0
 13
0.0547441026002052
 23
0.164000007789582
 33
0
0
3DFACE
8
2
 62
2
 10
0.0397441018877435
 20
0.164000007789582
 30
0.0350000016624108
 11
0.0397441018877435
 21
0.174000008264557
 31
0.0350000016624108
 12
0.0547441026002052
 22
0.174000008264557
 32
0.0350000016624108
 13
0.0547441026002052
 23
0.164000007789582
 33
0.0350000016624108
0
3DFACE
8
2
 62
2
 10
0.0547441026002052
 20
0.164000007789582
 30
0
 11
0.0397441018877435
 21
0.164000007789582
 31
0
 12
0.0397441018877435
 22
0.164000007789582
 32
0.0350000016624108
 13
0.0547441026002052
 23
0.164000007789582
 33
0.0350000016624108
0
3DFACE
8
2
 62
2
 10
0.0397441018877435
 20
0.164000007789582
 30
0
 11
0.0397441018877435
 21
0.174000008264557
 31
0
 12
0.0397441018877435
 22
0.174000008264557
 32
0.0350000016624108
 13
0.0397441018877435
 23
0.164000007789582
 33
0.0350000016624108
0
3DFACE
8
2
 62
2
 10
0.0397441018877435
 20
0.174000008264557
 30
0
 11
0.0547441026002052
 21
0.174000008264557
 31
0
 12
0.0547441026002052
 22
0.174000008264557
 32
0.0350000016624108
 13
0.0397441018877435
 23
0.174000008264557
 33
0.0350000016624108
0
3DFACE
8
2
 62
2
 10
0.0547441026002052
 20
0.174000008264557
 30
0
 11
0.0547441026002052
 21
0.164000007789582
 31
0
 12
0.0547441026002052
 22
0.164000007789582
 32
0.0350000016624108
 13
0.0547441026002052
 23
0.174000008264557
 33
0.0350000016624108
 0
ENDBLK
 0
BLOCK
 70
0
 2
TOP_SILKSCREEN_Polygon_51
 10
0
 20
0
 30
0
0
3DFACE
8
2
 62
2
 10
-0.117736205592169
 20
0.164000007789582
 30
0
 11
-0.117736205592169
 21
0.174000008264557
 31
0
 12
-0.102736204879708
 22
0.174000008264557
 32
0
 13
-0.102736204879708
 23
0.164000007789582
 33
0
0
3DFACE
8
2
 62
2
 10
-0.117736205592169
 20
0.164000007789582
 30
0.0350000016624108
 11
-0.117736205592169
 21
0.174000008264557
 31
0.0350000016624108
 12
-0.102736204879708
 22
0.174000008264557
 32
0.0350000016624108
 13
-0.102736204879708
 23
0.164000007789582
 33
0.0350000016624108
0
3DFACE
8
2
 62
2
 10
-0.102736204879708
 20
0.164000007789582
 30
0
 11
-0.117736205592169
 21
0.164000007789582
 31
0
 12
-0.117736205592169
 22
0.164000007789582
 32
0.0350000016624108
 13
-0.102736204879708
 23
0.164000007789582
 33
0.0350000016624108
0
3DFACE
8
2
 62
2
 10
-0.117736205592169
 20
0.164000007789582
 30
0
 11
-0.117736205592169
 21
0.174000008264557
 31
0
 12
-0.117736205592169
 22
0.174000008264557
 32
0.0350000016624108
 13
-0.117736205592169
 23
0.164000007789582
 33
0.0350000016624108
0
3DFACE
8
2
 62
2
 10
-0.117736205592169
 20
0.174000008264557
 30
0
 11
-0.102736204879708
 21
0.174000008264557
 31
0
 12
-0.102736204879708
 22
0.174000008264557
 32
0.0350000016624108
 13
-0.117736205592169
 23
0.174000008264557
 33
0.0350000016624108
0
3DFACE
8
2
 62
2
 10
-0.102736204879708
 20
0.174000008264557
 30
0
 11
-0.102736204879708
 21
0.164000007789582
 31
0
 12
-0.102736204879708
 22
0.164000007789582
 32
0.0350000016624108
 13
-0.102736204879708
 23
0.174000008264557
 33
0.0350000016624108
 0
ENDBLK
 0
BLOCK
 70
0
 2
TOP_SOLDER_PASTE_Polygon_128
 10
0
 20
0
 30
0
0
3DFACE
8
3
 62
3
 10
-0.0640630030428292
 20
0.0640630030428292
 30
0
 11
-0.0640630030428292
 21
0.00393700018699747
 31
0
 12
-0.00393700018699747
 22
0.00393700018699747
 32
0
 13
-0.00393700018699747
 23
0.0640630030428292
 33
0
0
3DFACE
8
3
 62
3
 10
-0.0640630030428292
 20
0.0640630030428292
 30
0.0350000016624108
 11
-0.0640630030428292
 21
0.00393700018699747
 31
0.0350000016624108
 12
-0.00393700018699747
 22
0.00393700018699747
 32
0.0350000016624108
 13
-0.00393700018699747
 23
0.0640630030428292
 33
0.0350000016624108
0
3DFACE
8
3
 62
3
 10
-0.00393700018699747
 20
0.0640630030428292
 30
0
 11
-0.0640630030428292
 21
0.0640630030428292
 31
0
 12
-0.0640630030428292
 22
0.0640630030428292
 32
0.0350000016624108
 13
-0.00393700018699747
 23
0.0640630030428292
 33
0.0350000016624108
0
3DFACE
8
3
 62
3
 10
-0.0640630030428292
 20
0.0640630030428292
 30
0
 11
-0.0640630030428292
 21
0.00393700018699747
 31
0
 12
-0.0640630030428292
 22
0.00393700018699747
 32
0.0350000016624108
 13
-0.0640630030428292
 23
0.0640630030428292
 33
0.0350000016624108
0
3DFACE
8
3
 62
3
 10
-0.0640630030428292
 20
0.00393700018699747
 30
0
 11
-0.00393700018699747
 21
0.00393700018699747
 31
0
 12
-0.00393700018699747
 22
0.00393700018699747
 32
0.0350000016624108
 13
-0.0640630030428292
 23
0.00393700018699747
 33
0.0350000016624108
0
3DFACE
8
3
 62
3
 10
-0.00393700018699747
 20
0.00393700018699747
 30
0
 11
-0.00393700018699747
 21
0.0640630030428292
 31
0
 12
-0.00393700018699747
 22
0.0640630030428292
 32
0.0350000016624108
 13
-0.00393700018699747
 23
0.00393700018699747
 33
0.0350000016624108
 0
ENDBLK
 0
BLOCK
 70
0
 2
TOP_SOLDER_PASTE_Polygon_129
 10
0
 20
0
 30
0
0
3DFACE
8
3
 62
3
 10
-0.0640630030428292
 20
-0.00393700018699747
 30
0
 11
-0.0640630030428292
 21
-0.0640630030428292
 31
0
 12
-0.00393700018699747
 22
-0.0640630030428292
 32
0
 13
-0.00393700018699747
 23
-0.00393700018699747
 33
0
0
3DFACE
8
3
 62
3
 10
-0.0640630030428292
 20
-0.00393700018699747
 30
0.0350000016624108
 11
-0.0640630030428292
 21
-0.0640630030428292
 31
0.0350000016624108
 12
-0.00393700018699747
 22
-0.0640630030428292
 32
0.0350000016624108
 13
-0.00393700018699747
 23
-0.00393700018699747
 33
0.0350000016624108
0
3DFACE
8
3
 62
3
 10
-0.00393700018699747
 20
-0.00393700018699747
 30
0
 11
-0.0640630030428292
 21
-0.00393700018699747
 31
0
 12
-0.0640630030428292
 22
-0.00393700018699747
 32
0.0350000016624108
 13
-0.00393700018699747
 23
-0.00393700018699747
 33
0.0350000016624108
0
3DFACE
8
3
 62
3
 10
-0.0640630030428292
 20
-0.00393700018699747
 30
0
 11
-0.0640630030428292
 21
-0.0640630030428292
 31
0
 12
-0.0640630030428292
 22
-0.0640630030428292
 32
0.0350000016624108
 13
-0.0640630030428292
 23
-0.00393700018699747
 33
0.0350000016624108
0
3DFACE
8
3
 62
3
 10
-0.0640630030428292
 20
-0.0640630030428292
 30
0
 11
-0.00393700018699747
 21
-0.0640630030428292
 31
0
 12
-0.00393700018699747
 22
-0.0640630030428292
 32
0.0350000016624108
 13
-0.0640630030428292
 23
-0.0640630030428292
 33
0.0350000016624108
0
3DFACE
8
3
 62
3
 10
-0.00393700018699747
 20
-0.0640630030428292
 30
0
 11
-0.00393700018699747
 21
-0.00393700018699747
 31
0
 12
-0.00393700018699747
 22
-0.00393700018699747
 32
0.0350000016624108
 13
-0.00393700018699747
 23
-0.0640630030428292
 33
0.0350000016624108
 0
ENDBLK
 0
BLOCK
 70
0
 2
TOP_SOLDER_PASTE_Polygon_130
 10
0
 20
0
 30
0
0
3DFACE
8
3
 62
3
 10
0.00393700018699747
 20
0.0640630030428292
 30
0
 11
0.00393700018699747
 21
0.00393700018699747
 31
0
 12
0.0640630030428292
 22
0.00393700018699747
 32
0
 13
0.0640630030428292
 23
0.0640630030428292
 33
0
0
3DFACE
8
3
 62
3
 10
0.00393700018699747
 20
0.0640630030428292
 30
0.0350000016624108
 11
0.00393700018699747
 21
0.00393700018699747
 31
0.0350000016624108
 12
0.0640630030428292
 22
0.00393700018699747
 32
0.0350000016624108
 13
0.0640630030428292
 23
0.0640630030428292
 33
0.0350000016624108
0
3DFACE
8
3
 62
3
 10
0.0640630030428292
 20
0.0640630030428292
 30
0
 11
0.00393700018699747
 21
0.0640630030428292
 31
0
 12
0.00393700018699747
 22
0.0640630030428292
 32
0.0350000016624108
 13
0.0640630030428292
 23
0.0640630030428292
 33
0.0350000016624108
0
3DFACE
8
3
 62
3
 10
0.00393700018699747
 20
0.0640630030428292
 30
0
 11
0.00393700018699747
 21
0.00393700018699747
 31
0
 12
0.00393700018699747
 22
0.00393700018699747
 32
0.0350000016624108
 13
0.00393700018699747
 23
0.0640630030428292
 33
0.0350000016624108
0
3DFACE
8
3
 62
3
 10
0.00393700018699747
 20
0.00393700018699747
 30
0
 11
0.0640630030428292
 21
0.00393700018699747
 31
0
 12
0.0640630030428292
 22
0.00393700018699747
 32
0.0350000016624108
 13
0.00393700018699747
 23
0.00393700018699747
 33
0.0350000016624108
0
3DFACE
8
3
 62
3
 10
0.0640630030428292
 20
0.00393700018699747
 30
0
 11
0.0640630030428292
 21
0.0640630030428292
 31
0
 12
0.0640630030428292
 22
0.0640630030428292
 32
0.0350000016624108
 13
0.0640630030428292
 23
0.00393700018699747
 33
0.0350000016624108
 0
ENDBLK
 0
BLOCK
 70
0
 2
TOP_SOLDER_PASTE_Polygon_131
 10
0
 20
0
 30
0
0
3DFACE
8
3
 62
3
 10
0.00393700018699747
 20
-0.00393700018699747
 30
0
 11
0.00393700018699747
 21
-0.0640630030428292
 31
0
 12
0.0640630030428292
 22
-0.0640630030428292
 32
0
 13
0.0640630030428292
 23
-0.00393700018699747
 33
0
0
3DFACE
8
3
 62
3
 10
0.00393700018699747
 20
-0.00393700018699747
 30
0.0350000016624108
 11
0.00393700018699747
 21
-0.0640630030428292
 31
0.0350000016624108
 12
0.0640630030428292
 22
-0.0640630030428292
 32
0.0350000016624108
 13
0.0640630030428292
 23
-0.00393700018699747
 33
0.0350000016624108
0
3DFACE
8
3
 62
3
 10
0.0640630030428292
 20
-0.00393700018699747
 30
0
 11
0.00393700018699747
 21
-0.00393700018699747
 31
0
 12
0.00393700018699747
 22
-0.00393700018699747
 32
0.0350000016624108
 13
0.0640630030428292
 23
-0.00393700018699747
 33
0.0350000016624108
0
3DFACE
8
3
 62
3
 10
0.00393700018699747
 20
-0.00393700018699747
 30
0
 11
0.00393700018699747
 21
-0.0640630030428292
 31
0
 12
0.00393700018699747
 22
-0.0640630030428292
 32
0.0350000016624108
 13
0.00393700018699747
 23
-0.00393700018699747
 33
0.0350000016624108
0
3DFACE
8
3
 62
3
 10
0.00393700018699747
 20
-0.0640630030428292
 30
0
 11
0.0640630030428292
 21
-0.0640630030428292
 31
0
 12
0.0640630030428292
 22
-0.0640630030428292
 32
0.0350000016624108
 13
0.00393700018699747
 23
-0.0640630030428292
 33
0.0350000016624108
0
3DFACE
8
3
 62
3
 10
0.0640630030428292
 20
-0.0640630030428292
 30
0
 11
0.0640630030428292
 21
-0.00393700018699747
 31
0
 12
0.0640630030428292
 22
-0.00393700018699747
 32
0.0350000016624108
 13
0.0640630030428292
 23
-0.0640630030428292
 33
0.0350000016624108
 0
ENDBLK
 0
BLOCK
 70
0
 2
TOP_PLACE_BOUND_Polygon_152
 10
0
 20
0
 30
0
0
3DFACE
8
8
 62
8
 10
-0.158000007504597
 20
-0.158000007504597
 30
0
 11
-0.158000007504597
 21
-0.133736212406817
 31
0
 12
-0.133736212406817
 22
0.158000007504597
 32
0
 13
-0.133736212406817
 23
0.158000007504597
 33
0
0
3DFACE
8
8
 62
8
 10
-0.158000007504597
 20
-0.133736212406817
 30
0
 11
-0.174000008264557
 21
-0.133736212406817
 31
0
 12
-0.174000008264557
 22
0.133736212406817
 32
0
 13
-0.174000008264557
 23
0.133736212406817
 33
0
0
3DFACE
8
8
 62
8
 10
-0.158000007504597
 20
-0.133736212406817
 30
0
 11
-0.174000008264557
 21
0.133736212406817
 31
0
 12
-0.158000007504597
 22
0.133736212406817
 32
0
 13
-0.158000007504597
 23
0.133736212406817
 33
0
0
3DFACE
8
8
 62
8
 10
-0.158000007504597
 20
-0.133736212406817
 30
0
 11
-0.158000007504597
 21
0.133736212406817
 31
0
 12
-0.133736212406817
 22
0.158000007504597
 32
0
 13
-0.133736212406817
 23
0.158000007504597
 33
0
0
3DFACE
8
8
 62
8
 10
-0.158000007504597
 20
0.133736212406817
 30
0
 11
-0.158000007504597
 21
0.158000007504597
 31
0
 12
-0.133736212406817
 22
0.158000007504597
 32
0
 13
-0.133736212406817
 23
0.158000007504597
 33
0
0
3DFACE
8
8
 62
8
 10
-0.158000007504597
 20
-0.158000007504597
 30
0
 11
-0.133736212406817
 21
0.158000007504597
 31
0
 12
0.133736212406817
 22
0.174000008264557
 32
0
 13
0.133736212406817
 23
0.174000008264557
 33
0
0
3DFACE
8
8
 62
8
 10
-0.133736212406817
 20
0.158000007504597
 30
0
 11
-0.133736212406817
 21
0.174000008264557
 31
0
 12
0.133736212406817
 22
0.174000008264557
 32
0
 13
0.133736212406817
 23
0.174000008264557
 33
0
0
3DFACE
8
8
 62
8
 10
-0.158000007504597
 20
-0.158000007504597
 30
0
 11
0.133736212406817
 21
0.174000008264557
 31
0
 12
0.133736212406817
 22
0.158000007504597
 32
0
 13
0.133736212406817
 23
0.158000007504597
 33
0
0
3DFACE
8
8
 62
8
 10
-0.158000007504597
 20
-0.158000007504597
 30
0
 11
0.133736212406817
 21
0.158000007504597
 31
0
 12
0.158000007504597
 22
0.158000007504597
 32
0
 13
0.158000007504597
 23
0.158000007504597
 33
0
0
3DFACE
8
8
 62
8
 10
-0.158000007504597
 20
-0.158000007504597
 30
0
 11
0.158000007504597
 21
0.158000007504597
 31
0
 12
0.158000007504597
 22
0.133736212406817
 32
0
 13
0.158000007504597
 23
0.133736212406817
 33
0
0
3DFACE
8
8
 62
8
 10
-0.158000007504597
 20
-0.158000007504597
 30
0
 11
0.158000007504597
 21
0.133736212406817
 31
0
 12
0.174000008264557
 22
0.133736212406817
 32
0
 13
0.174000008264557
 23
0.133736212406817
 33
0
0
3DFACE
8
8
 62
8
 10
-0.158000007504597
 20
-0.158000007504597
 30
0
 11
0.174000008264557
 21
0.133736212406817
 31
0
 12
0.158000007504597
 22
-0.133736212406817
 32
0
 13
0.158000007504597
 23
-0.133736212406817
 33
0
0
3DFACE
8
8
 62
8
 10
0.174000008264557
 20
0.133736212406817
 30
0
 11
0.174000008264557
 21
-0.133736212406817
 31
0
 12
0.158000007504597
 22
-0.133736212406817
 32
0
 13
0.158000007504597
 23
-0.133736212406817
 33
0
0
3DFACE
8
8
 62
8
 10
-0.158000007504597
 20
-0.158000007504597
 30
0
 11
0.158000007504597
 21
-0.133736212406817
 31
0
 12
-0.133736212406817
 22
-0.158000007504597
 32
0
 13
-0.133736212406817
 23
-0.158000007504597
 33
0
0
3DFACE
8
8
 62
8
 10
0.158000007504597
 20
-0.133736212406817
 30
0
 11
0.158000007504597
 21
-0.158000007504597
 31
0
 12
0.133736212406817
 22
-0.158000007504597
 32
0
 13
0.133736212406817
 23
-0.158000007504597
 33
0
0
3DFACE
8
8
 62
8
 10
0.158000007504597
 20
-0.133736212406817
 30
0
 11
0.133736212406817
 21
-0.158000007504597
 31
0
 12
-0.133736212406817
 22
-0.174000008264557
 32
0
 13
-0.133736212406817
 23
-0.174000008264557
 33
0
0
3DFACE
8
8
 62
8
 10
0.133736212406817
 20
-0.158000007504597
 30
0
 11
0.133736212406817
 21
-0.174000008264557
 31
0
 12
-0.133736212406817
 22
-0.174000008264557
 32
0
 13
-0.133736212406817
 23
-0.174000008264557
 33
0
0
3DFACE
8
8
 62
8
 10
0.158000007504597
 20
-0.133736212406817
 30
0
 11
-0.133736212406817
 21
-0.174000008264557
 31
0
 12
-0.133736212406817
 22
-0.158000007504597
 32
0
 13
-0.133736212406817
 23
-0.158000007504597
 33
0
0
3DFACE
8
8
 62
8
 10
-0.158000007504597
 20
-0.158000007504597
 30
0.0350000016624108
 11
-0.158000007504597
 21
-0.133736212406817
 31
0.0350000016624108
 12
-0.133736212406817
 22
0.158000007504597
 32
0.0350000016624108
 13
-0.133736212406817
 23
0.158000007504597
 33
0.0350000016624108
0
3DFACE
8
8
 62
8
 10
-0.158000007504597
 20
-0.133736212406817
 30
0.0350000016624108
 11
-0.174000008264557
 21
-0.133736212406817
 31
0.0350000016624108
 12
-0.174000008264557
 22
0.133736212406817
 32
0.0350000016624108
 13
-0.174000008264557
 23
0.133736212406817
 33
0.0350000016624108
0
3DFACE
8
8
 62
8
 10
-0.158000007504597
 20
-0.133736212406817
 30
0.0350000016624108
 11
-0.174000008264557
 21
0.133736212406817
 31
0.0350000016624108
 12
-0.158000007504597
 22
0.133736212406817
 32
0.0350000016624108
 13
-0.158000007504597
 23
0.133736212406817
 33
0.0350000016624108
0
3DFACE
8
8
 62
8
 10
-0.158000007504597
 20
-0.133736212406817
 30
0.0350000016624108
 11
-0.158000007504597
 21
0.133736212406817
 31
0.0350000016624108
 12
-0.133736212406817
 22
0.158000007504597
 32
0.0350000016624108
 13
-0.133736212406817
 23
0.158000007504597
 33
0.0350000016624108
0
3DFACE
8
8
 62
8
 10
-0.158000007504597
 20
0.133736212406817
 30
0.0350000016624108
 11
-0.158000007504597
 21
0.158000007504597
 31
0.0350000016624108
 12
-0.133736212406817
 22
0.158000007504597
 32
0.0350000016624108
 13
-0.133736212406817
 23
0.158000007504597
 33
0.0350000016624108
0
3DFACE
8
8
 62
8
 10
-0.158000007504597
 20
-0.158000007504597
 30
0.0350000016624108
 11
-0.133736212406817
 21
0.158000007504597
 31
0.0350000016624108
 12
0.133736212406817
 22
0.174000008264557
 32
0.0350000016624108
 13
0.133736212406817
 23
0.174000008264557
 33
0.0350000016624108
0
3DFACE
8
8
 62
8
 10
-0.133736212406817
 20
0.158000007504597
 30
0.0350000016624108
 11
-0.133736212406817
 21
0.174000008264557
 31
0.0350000016624108
 12
0.133736212406817
 22
0.174000008264557
 32
0.0350000016624108
 13
0.133736212406817
 23
0.174000008264557
 33
0.0350000016624108
0
3DFACE
8
8
 62
8
 10
-0.158000007504597
 20
-0.158000007504597
 30
0.0350000016624108
 11
0.133736212406817
 21
0.174000008264557
 31
0.0350000016624108
 12
0.133736212406817
 22
0.158000007504597
 32
0.0350000016624108
 13
0.133736212406817
 23
0.158000007504597
 33
0.0350000016624108
0
3DFACE
8
8
 62
8
 10
-0.158000007504597
 20
-0.158000007504597
 30
0.0350000016624108
 11
0.133736212406817
 21
0.158000007504597
 31
0.0350000016624108
 12
0.158000007504597
 22
0.158000007504597
 32
0.0350000016624108
 13
0.158000007504597
 23
0.158000007504597
 33
0.0350000016624108
0
3DFACE
8
8
 62
8
 10
-0.158000007504597
 20
-0.158000007504597
 30
0.0350000016624108
 11
0.158000007504597
 21
0.158000007504597
 31
0.0350000016624108
 12
0.158000007504597
 22
0.133736212406817
 32
0.0350000016624108
 13
0.158000007504597
 23
0.133736212406817
 33
0.0350000016624108
0
3DFACE
8
8
 62
8
 10
-0.158000007504597
 20
-0.158000007504597
 30
0.0350000016624108
 11
0.158000007504597
 21
0.133736212406817
 31
0.0350000016624108
 12
0.174000008264557
 22
0.133736212406817
 32
0.0350000016624108
 13
0.174000008264557
 23
0.133736212406817
 33
0.0350000016624108
0
3DFACE
8
8
 62
8
 10
-0.158000007504597
 20
-0.158000007504597
 30
0.0350000016624108
 11
0.174000008264557
 21
0.133736212406817
 31
0.0350000016624108
 12
0.158000007504597
 22
-0.133736212406817
 32
0.0350000016624108
 13
0.158000007504597
 23
-0.133736212406817
 33
0.0350000016624108
0
3DFACE
8
8
 62
8
 10
0.174000008264557
 20
0.133736212406817
 30
0.0350000016624108
 11
0.174000008264557
 21
-0.133736212406817
 31
0.0350000016624108
 12
0.158000007504597
 22
-0.133736212406817
 32
0.0350000016624108
 13
0.158000007504597
 23
-0.133736212406817
 33
0.0350000016624108
0
3DFACE
8
8
 62
8
 10
-0.158000007504597
 20
-0.158000007504597
 30
0.0350000016624108
 11
0.158000007504597
 21
-0.133736212406817
 31
0.0350000016624108
 12
-0.133736212406817
 22
-0.158000007504597
 32
0.0350000016624108
 13
-0.133736212406817
 23
-0.158000007504597
 33
0.0350000016624108
0
3DFACE
8
8
 62
8
 10
0.158000007504597
 20
-0.133736212406817
 30
0.0350000016624108
 11
0.158000007504597
 21
-0.158000007504597
 31
0.0350000016624108
 12
0.133736212406817
 22
-0.158000007504597
 32
0.0350000016624108
 13
0.133736212406817
 23
-0.158000007504597
 33
0.0350000016624108
0
3DFACE
8
8
 62
8
 10
0.158000007504597
 20
-0.133736212406817
 30
0.0350000016624108
 11
0.133736212406817
 21
-0.158000007504597
 31
0.0350000016624108
 12
-0.133736212406817
 22
-0.174000008264557
 32
0.0350000016624108
 13
-0.133736212406817
 23
-0.174000008264557
 33
0.0350000016624108
0
3DFACE
8
8
 62
8
 10
0.133736212406817
 20
-0.158000007504597
 30
0.0350000016624108
 11
0.133736212406817
 21
-0.174000008264557
 31
0.0350000016624108
 12
-0.133736212406817
 22
-0.174000008264557
 32
0.0350000016624108
 13
-0.133736212406817
 23
-0.174000008264557
 33
0.0350000016624108
0
3DFACE
8
8
 62
8
 10
0.158000007504597
 20
-0.133736212406817
 30
0.0350000016624108
 11
-0.133736212406817
 21
-0.174000008264557
 31
0.0350000016624108
 12
-0.133736212406817
 22
-0.158000007504597
 32
0.0350000016624108
 13
-0.133736212406817
 23
-0.158000007504597
 33
0.0350000016624108
0
3DFACE
8
8
 62
8
 10
-0.133736212406817
 20
-0.158000007504597
 30
0
 11
-0.158000007504597
 21
-0.158000007504597
 31
0
 12
-0.158000007504597
 22
-0.158000007504597
 32
0.0350000016624108
 13
-0.133736212406817
 23
-0.158000007504597
 33
0.0350000016624108
0
3DFACE
8
8
 62
8
 10
-0.158000007504597
 20
-0.158000007504597
 30
0
 11
-0.158000007504597
 21
-0.133736212406817
 31
0
 12
-0.158000007504597
 22
-0.133736212406817
 32
0.0350000016624108
 13
-0.158000007504597
 23
-0.158000007504597
 33
0.0350000016624108
0
3DFACE
8
8
 62
8
 10
-0.158000007504597
 20
-0.133736212406817
 30
0
 11
-0.174000008264557
 21
-0.133736212406817
 31
0
 12
-0.174000008264557
 22
-0.133736212406817
 32
0.0350000016624108
 13
-0.158000007504597
 23
-0.133736212406817
 33
0.0350000016624108
0
3DFACE
8
8
 62
8
 10
-0.174000008264557
 20
-0.133736212406817
 30
0
 11
-0.174000008264557
 21
0.133736212406817
 31
0
 12
-0.174000008264557
 22
0.133736212406817
 32
0.0350000016624108
 13
-0.174000008264557
 23
-0.133736212406817
 33
0.0350000016624108
0
3DFACE
8
8
 62
8
 10
-0.174000008264557
 20
0.133736212406817
 30
0
 11
-0.158000007504597
 21
0.133736212406817
 31
0
 12
-0.158000007504597
 22
0.133736212406817
 32
0.0350000016624108
 13
-0.174000008264557
 23
0.133736212406817
 33
0.0350000016624108
0
3DFACE
8
8
 62
8
 10
-0.158000007504597
 20
0.133736212406817
 30
0
 11
-0.158000007504597
 21
0.158000007504597
 31
0
 12
-0.158000007504597
 22
0.158000007504597
 32
0.0350000016624108
 13
-0.158000007504597
 23
0.133736212406817
 33
0.0350000016624108
0
3DFACE
8
8
 62
8
 10
-0.158000007504597
 20
0.158000007504597
 30
0
 11
-0.133736212406817
 21
0.158000007504597
 31
0
 12
-0.133736212406817
 22
0.158000007504597
 32
0.0350000016624108
 13
-0.158000007504597
 23
0.158000007504597
 33
0.0350000016624108
0
3DFACE
8
8
 62
8
 10
-0.133736212406817
 20
0.158000007504597
 30
0
 11
-0.133736212406817
 21
0.174000008264557
 31
0
 12
-0.133736212406817
 22
0.174000008264557
 32
0.0350000016624108
 13
-0.133736212406817
 23
0.158000007504597
 33
0.0350000016624108
0
3DFACE
8
8
 62
8
 10
-0.133736212406817
 20
0.174000008264557
 30
0
 11
0.133736212406817
 21
0.174000008264557
 31
0
 12
0.133736212406817
 22
0.174000008264557
 32
0.0350000016624108
 13
-0.133736212406817
 23
0.174000008264557
 33
0.0350000016624108
0
3DFACE
8
8
 62
8
 10
0.133736212406817
 20
0.174000008264557
 30
0
 11
0.133736212406817
 21
0.158000007504597
 31
0
 12
0.133736212406817
 22
0.158000007504597
 32
0.0350000016624108
 13
0.133736212406817
 23
0.174000008264557
 33
0.0350000016624108
0
3DFACE
8
8
 62
8
 10
0.133736212406817
 20
0.158000007504597
 30
0
 11
0.158000007504597
 21
0.158000007504597
 31
0
 12
0.158000007504597
 22
0.158000007504597
 32
0.0350000016624108
 13
0.133736212406817
 23
0.158000007504597
 33
0.0350000016624108
0
3DFACE
8
8
 62
8
 10
0.158000007504597
 20
0.158000007504597
 30
0
 11
0.158000007504597
 21
0.133736212406817
 31
0
 12
0.158000007504597
 22
0.133736212406817
 32
0.0350000016624108
 13
0.158000007504597
 23
0.158000007504597
 33
0.0350000016624108
0
3DFACE
8
8
 62
8
 10
0.158000007504597
 20
0.133736212406817
 30
0
 11
0.174000008264557
 21
0.133736212406817
 31
0
 12
0.174000008264557
 22
0.133736212406817
 32
0.0350000016624108
 13
0.158000007504597
 23
0.133736212406817
 33
0.0350000016624108
0
3DFACE
8
8
 62
8
 10
0.174000008264557
 20
0.133736212406817
 30
0
 11
0.174000008264557
 21
-0.133736212406817
 31
0
 12
0.174000008264557
 22
-0.133736212406817
 32
0.0350000016624108
 13
0.174000008264557
 23
0.133736212406817
 33
0.0350000016624108
0
3DFACE
8
8
 62
8
 10
0.174000008264557
 20
-0.133736212406817
 30
0
 11
0.158000007504597
 21
-0.133736212406817
 31
0
 12
0.158000007504597
 22
-0.133736212406817
 32
0.0350000016624108
 13
0.174000008264557
 23
-0.133736212406817
 33
0.0350000016624108
0
3DFACE
8
8
 62
8
 10
0.158000007504597
 20
-0.133736212406817
 30
0
 11
0.158000007504597
 21
-0.158000007504597
 31
0
 12
0.158000007504597
 22
-0.158000007504597
 32
0.0350000016624108
 13
0.158000007504597
 23
-0.133736212406817
 33
0.0350000016624108
0
3DFACE
8
8
 62
8
 10
0.158000007504597
 20
-0.158000007504597
 30
0
 11
0.133736212406817
 21
-0.158000007504597
 31
0
 12
0.133736212406817
 22
-0.158000007504597
 32
0.0350000016624108
 13
0.158000007504597
 23
-0.158000007504597
 33
0.0350000016624108
0
3DFACE
8
8
 62
8
 10
0.133736212406817
 20
-0.158000007504597
 30
0
 11
0.133736212406817
 21
-0.174000008264557
 31
0
 12
0.133736212406817
 22
-0.174000008264557
 32
0.0350000016624108
 13
0.133736212406817
 23
-0.158000007504597
 33
0.0350000016624108
0
3DFACE
8
8
 62
8
 10
0.133736212406817
 20
-0.174000008264557
 30
0
 11
-0.133736212406817
 21
-0.174000008264557
 31
0
 12
-0.133736212406817
 22
-0.174000008264557
 32
0.0350000016624108
 13
0.133736212406817
 23
-0.174000008264557
 33
0.0350000016624108
0
3DFACE
8
8
 62
8
 10
-0.133736212406817
 20
-0.174000008264557
 30
0
 11
-0.133736212406817
 21
-0.158000007504597
 31
0
 12
-0.133736212406817
 22
-0.158000007504597
 32
0.0350000016624108
 13
-0.133736212406817
 23
-0.174000008264557
 33
0.0350000016624108
 0
ENDBLK
 0
BLOCK
 70
0
 2
TOP_VALOR_Polygon_184
 10
0
 20
0
 30
0
0
3DFACE
8
23
 62
23
 10
-0.179000008502044
 20
-0.179000008502044
 30
0
 11
-0.179000008502044
 21
0.179000008502044
 31
0
 12
0.179000008502044
 22
0.179000008502044
 32
0
 13
0.179000008502044
 23
-0.179000008502044
 33
0
0
3DFACE
8
23
 62
23
 10
-0.179000008502044
 20
-0.179000008502044
 30
0.0350000016624108
 11
-0.179000008502044
 21
0.179000008502044
 31
0.0350000016624108
 12
0.179000008502044
 22
0.179000008502044
 32
0.0350000016624108
 13
0.179000008502044
 23
-0.179000008502044
 33
0.0350000016624108
0
3DFACE
8
23
 62
23
 10
0.179000008502044
 20
-0.179000008502044
 30
0
 11
-0.179000008502044
 21
-0.179000008502044
 31
0
 12
-0.179000008502044
 22
-0.179000008502044
 32
0.0350000016624108
 13
0.179000008502044
 23
-0.179000008502044
 33
0.0350000016624108
0
3DFACE
8
23
 62
23
 10
-0.179000008502044
 20
-0.179000008502044
 30
0
 11
-0.179000008502044
 21
0.179000008502044
 31
0
 12
-0.179000008502044
 22
0.179000008502044
 32
0.0350000016624108
 13
-0.179000008502044
 23
-0.179000008502044
 33
0.0350000016624108
0
3DFACE
8
23
 62
23
 10
-0.179000008502044
 20
0.179000008502044
 30
0
 11
0.179000008502044
 21
0.179000008502044
 31
0
 12
0.179000008502044
 22
0.179000008502044
 32
0.0350000016624108
 13
-0.179000008502044
 23
0.179000008502044
 33
0.0350000016624108
0
3DFACE
8
23
 62
23
 10
0.179000008502044
 20
0.179000008502044
 30
0
 11
0.179000008502044
 21
-0.179000008502044
 31
0
 12
0.179000008502044
 22
-0.179000008502044
 32
0.0350000016624108
 13
0.179000008502044
 23
0.179000008502044
 33
0.0350000016624108
 0
ENDBLK
0
ENDSEC
0
SECTION
2
ENTITIES
 0
INSERT
 8
2
 2
TOP_SILKSCREEN_Polygon_1
 10
0
 20
0
 30
0
 41
1
 42
1
 43
1
 0
INSERT
 8
2
 2
TOP_SILKSCREEN_Polygon_17
 10
0
 20
0
 30
0
 41
1
 42
1
 43
1
 0
INSERT
 8
2
 2
TOP_SILKSCREEN_Polygon_18
 10
0
 20
0
 30
0
 41
1
 42
1
 43
1
 0
INSERT
 8
2
 2
TOP_SILKSCREEN_Polygon_34
 10
0
 20
0
 30
0
 41
1
 42
1
 43
1
 0
INSERT
 8
2
 2
TOP_SILKSCREEN_Polygon_50
 10
0
 20
0
 30
0
 41
1
 42
1
 43
1
 0
INSERT
 8
2
 2
TOP_SILKSCREEN_Polygon_51
 10
0
 20
0
 30
0
 41
1
 42
1
 43
1
 0
INSERT
 8
3
 2
TOP_SOLDER_PASTE_Polygon_128
 10
0
 20
0
 30
0
 41
1
 42
1
 43
1
 0
INSERT
 8
3
 2
TOP_SOLDER_PASTE_Polygon_129
 10
0
 20
0
 30
0
 41
1
 42
1
 43
1
 0
INSERT
 8
3
 2
TOP_SOLDER_PASTE_Polygon_130
 10
0
 20
0
 30
0
 41
1
 42
1
 43
1
 0
INSERT
 8
3
 2
TOP_SOLDER_PASTE_Polygon_131
 10
0
 20
0
 30
0
 41
1
 42
1
 43
1
 0
INSERT
 8
8
 2
TOP_PLACE_BOUND_Polygon_152
 10
0
 20
0
 30
0
 41
1
 42
1
 43
1
 0
INSERT
 8
23
 2
TOP_VALOR_Polygon_184
 10
0
 20
0
 30
0
 41
1
 42
1
 43
1
0
ENDSEC
 0
EOF

