 999
VISION3D DXF
0
SECTION
2
HEADER
0
ENDSEC
0
SECTION
2
TABLES
0
ENDSEC
0
SECTION
2
BLOCKS
 0
BLOCK
 70
0
 2
TOP_SILKSCREEN_Polygon_1
 10
0
 20
0
 30
0
0
3DFACE
8
2
 62
2
 10
-0.269877912818512
 20
-0.0220276010462549
 30
0
 11
-0.269877912818512
 21
-0.0370276017587166
 31
0
 12
-0.259877912343538
 22
-0.0370276017587166
 32
0
 13
-0.259877912343538
 23
-0.0220276010462549
 33
0
0
3DFACE
8
2
 62
2
 10
-0.269877912818512
 20
-0.0220276010462549
 30
0.0630000029923394
 11
-0.269877912818512
 21
-0.0370276017587166
 31
0.0630000029923394
 12
-0.259877912343538
 22
-0.0370276017587166
 32
0.0630000029923394
 13
-0.259877912343538
 23
-0.0220276010462549
 33
0.0630000029923394
0
3DFACE
8
2
 62
2
 10
-0.259877912343538
 20
-0.0220276010462549
 30
0
 11
-0.269877912818512
 21
-0.0220276010462549
 31
0
 12
-0.269877912818512
 22
-0.0220276010462549
 32
0.0630000029923394
 13
-0.259877912343538
 23
-0.0220276010462549
 33
0.0630000029923394
0
3DFACE
8
2
 62
2
 10
-0.269877912818512
 20
-0.0220276010462549
 30
0
 11
-0.269877912818512
 21
-0.0370276017587166
 31
0
 12
-0.269877912818512
 22
-0.0370276017587166
 32
0.0630000029923394
 13
-0.269877912818512
 23
-0.0220276010462549
 33
0.0630000029923394
0
3DFACE
8
2
 62
2
 10
-0.269877912818512
 20
-0.0370276017587166
 30
0
 11
-0.259877912343538
 21
-0.0370276017587166
 31
0
 12
-0.259877912343538
 22
-0.0370276017587166
 32
0.0630000029923394
 13
-0.269877912818512
 23
-0.0370276017587166
 33
0.0630000029923394
0
3DFACE
8
2
 62
2
 10
-0.259877912343538
 20
-0.0370276017587166
 30
0
 11
-0.259877912343538
 21
-0.0220276010462549
 31
0
 12
-0.259877912343538
 22
-0.0220276010462549
 32
0.0630000029923394
 13
-0.259877912343538
 23
-0.0370276017587166
 33
0.0630000029923394
 0
ENDBLK
 0
BLOCK
 70
0
 2
TOP_SILKSCREEN_Polygon_18
 10
0
 20
0
 30
0
0
3DFACE
8
2
 62
2
 10
-0.0960827045636834
 20
-0.259877912343538
 30
0
 11
-0.0960827045636834
 21
-0.269877912818512
 31
0
 12
-0.0810827038512216
 22
-0.269877912818512
 32
0
 13
-0.0810827038512216
 23
-0.259877912343538
 33
0
0
3DFACE
8
2
 62
2
 10
-0.0960827045636834
 20
-0.259877912343538
 30
0.0630000029923394
 11
-0.0960827045636834
 21
-0.269877912818512
 31
0.0630000029923394
 12
-0.0810827038512216
 22
-0.269877912818512
 32
0.0630000029923394
 13
-0.0810827038512216
 23
-0.259877912343538
 33
0.0630000029923394
0
3DFACE
8
2
 62
2
 10
-0.0810827038512216
 20
-0.259877912343538
 30
0
 11
-0.0960827045636834
 21
-0.259877912343538
 31
0
 12
-0.0960827045636834
 22
-0.259877912343538
 32
0.0630000029923394
 13
-0.0810827038512216
 23
-0.259877912343538
 33
0.0630000029923394
0
3DFACE
8
2
 62
2
 10
-0.0960827045636834
 20
-0.259877912343538
 30
0
 11
-0.0960827045636834
 21
-0.269877912818512
 31
0
 12
-0.0960827045636834
 22
-0.269877912818512
 32
0.0630000029923394
 13
-0.0960827045636834
 23
-0.259877912343538
 33
0.0630000029923394
0
3DFACE
8
2
 62
2
 10
-0.0960827045636834
 20
-0.269877912818512
 30
0
 11
-0.0810827038512216
 21
-0.269877912818512
 31
0
 12
-0.0810827038512216
 22
-0.269877912818512
 32
0.0630000029923394
 13
-0.0960827045636834
 23
-0.269877912818512
 33
0.0630000029923394
0
3DFACE
8
2
 62
2
 10
-0.0810827038512216
 20
-0.269877912818512
 30
0
 11
-0.0810827038512216
 21
-0.259877912343538
 31
0
 12
-0.0810827038512216
 22
-0.259877912343538
 32
0.0630000029923394
 13
-0.0810827038512216
 23
-0.269877912818512
 33
0.0630000029923394
 0
ENDBLK
 0
BLOCK
 70
0
 2
TOP_SILKSCREEN_Polygon_19
 10
0
 20
0
 30
0
0
3DFACE
8
2
 62
2
 10
0.100767704786209
 20
-0.259877912343538
 30
0
 11
0.100767704786209
 21
-0.269877912818512
 31
0
 12
0.115767705498671
 22
-0.269877912818512
 32
0
 13
0.115767705498671
 23
-0.259877912343538
 33
0
0
3DFACE
8
2
 62
2
 10
0.100767704786209
 20
-0.259877912343538
 30
0.0630000029923394
 11
0.100767704786209
 21
-0.269877912818512
 31
0.0630000029923394
 12
0.115767705498671
 22
-0.269877912818512
 32
0.0630000029923394
 13
0.115767705498671
 23
-0.259877912343538
 33
0.0630000029923394
0
3DFACE
8
2
 62
2
 10
0.115767705498671
 20
-0.259877912343538
 30
0
 11
0.100767704786209
 21
-0.259877912343538
 31
0
 12
0.100767704786209
 22
-0.259877912343538
 32
0.0630000029923394
 13
0.115767705498671
 23
-0.259877912343538
 33
0.0630000029923394
0
3DFACE
8
2
 62
2
 10
0.100767704786209
 20
-0.259877912343538
 30
0
 11
0.100767704786209
 21
-0.269877912818512
 31
0
 12
0.100767704786209
 22
-0.269877912818512
 32
0.0630000029923394
 13
0.100767704786209
 23
-0.259877912343538
 33
0.0630000029923394
0
3DFACE
8
2
 62
2
 10
0.100767704786209
 20
-0.269877912818512
 30
0
 11
0.115767705498671
 21
-0.269877912818512
 31
0
 12
0.115767705498671
 22
-0.269877912818512
 32
0.0630000029923394
 13
0.100767704786209
 23
-0.269877912818512
 33
0.0630000029923394
0
3DFACE
8
2
 62
2
 10
0.115767705498671
 20
-0.269877912818512
 30
0
 11
0.115767705498671
 21
-0.259877912343538
 31
0
 12
0.115767705498671
 22
-0.259877912343538
 32
0.0630000029923394
 13
0.115767705498671
 23
-0.269877912818512
 33
0.0630000029923394
 0
ENDBLK
 0
BLOCK
 70
0
 2
TOP_SILKSCREEN_Polygon_36
 10
0
 20
0
 30
0
0
3DFACE
8
2
 62
2
 10
0.269877912818512
 20
-0.00234250011126278
 30
0
 11
0.269877912818512
 21
-0.0173425008237246
 31
0
 12
0.259877912343538
 22
-0.0173425008237246
 32
0
 13
0.259877912343538
 23
-0.00234250011126278
 33
0
0
3DFACE
8
2
 62
2
 10
0.269877912818512
 20
-0.00234250011126278
 30
0.0630000029923394
 11
0.269877912818512
 21
-0.0173425008237246
 31
0.0630000029923394
 12
0.259877912343538
 22
-0.0173425008237246
 32
0.0630000029923394
 13
0.259877912343538
 23
-0.00234250011126278
 33
0.0630000029923394
0
3DFACE
8
2
 62
2
 10
0.259877912343538
 20
-0.00234250011126278
 30
0
 11
0.269877912818512
 21
-0.00234250011126278
 31
0
 12
0.269877912818512
 22
-0.00234250011126278
 32
0.0630000029923394
 13
0.259877912343538
 23
-0.00234250011126278
 33
0.0630000029923394
0
3DFACE
8
2
 62
2
 10
0.269877912818512
 20
-0.00234250011126278
 30
0
 11
0.269877912818512
 21
-0.0173425008237246
 31
0
 12
0.269877912818512
 22
-0.0173425008237246
 32
0.0630000029923394
 13
0.269877912818512
 23
-0.00234250011126278
 33
0.0630000029923394
0
3DFACE
8
2
 62
2
 10
0.269877912818512
 20
-0.0173425008237246
 30
0
 11
0.259877912343538
 21
-0.0173425008237246
 31
0
 12
0.259877912343538
 22
-0.0173425008237246
 32
0.0630000029923394
 13
0.269877912818512
 23
-0.0173425008237246
 33
0.0630000029923394
0
3DFACE
8
2
 62
2
 10
0.259877912343538
 20
-0.0173425008237246
 30
0
 11
0.259877912343538
 21
-0.00234250011126278
 31
0
 12
0.259877912343538
 22
-0.00234250011126278
 32
0.0630000029923394
 13
0.259877912343538
 23
-0.0173425008237246
 33
0.0630000029923394
 0
ENDBLK
 0
BLOCK
 70
0
 2
TOP_SILKSCREEN_Polygon_53
 10
0
 20
0
 30
0
0
3DFACE
8
2
 62
2
 10
0.120452805721201
 20
0.259877912343538
 30
0
 11
0.120452805721201
 21
0.269877912818512
 31
0
 12
0.135452806433663
 22
0.269877912818512
 32
0
 13
0.135452806433663
 23
0.259877912343538
 33
0
0
3DFACE
8
2
 62
2
 10
0.120452805721201
 20
0.259877912343538
 30
0.0630000029923394
 11
0.120452805721201
 21
0.269877912818512
 31
0.0630000029923394
 12
0.135452806433663
 22
0.269877912818512
 32
0.0630000029923394
 13
0.135452806433663
 23
0.259877912343538
 33
0.0630000029923394
0
3DFACE
8
2
 62
2
 10
0.135452806433663
 20
0.259877912343538
 30
0
 11
0.120452805721201
 21
0.259877912343538
 31
0
 12
0.120452805721201
 22
0.259877912343538
 32
0.0630000029923394
 13
0.135452806433663
 23
0.259877912343538
 33
0.0630000029923394
0
3DFACE
8
2
 62
2
 10
0.120452805721201
 20
0.259877912343538
 30
0
 11
0.120452805721201
 21
0.269877912818512
 31
0
 12
0.120452805721201
 22
0.269877912818512
 32
0.0630000029923394
 13
0.120452805721201
 23
0.259877912343538
 33
0.0630000029923394
0
3DFACE
8
2
 62
2
 10
0.120452805721201
 20
0.269877912818512
 30
0
 11
0.135452806433663
 21
0.269877912818512
 31
0
 12
0.135452806433663
 22
0.269877912818512
 32
0.0630000029923394
 13
0.120452805721201
 23
0.269877912818512
 33
0.0630000029923394
0
3DFACE
8
2
 62
2
 10
0.135452806433663
 20
0.269877912818512
 30
0
 11
0.135452806433663
 21
0.259877912343538
 31
0
 12
0.135452806433663
 22
0.259877912343538
 32
0.0630000029923394
 13
0.135452806433663
 23
0.269877912818512
 33
0.0630000029923394
 0
ENDBLK
 0
BLOCK
 70
0
 2
TOP_SILKSCREEN_Polygon_54
 10
0
 20
0
 30
0
0
3DFACE
8
2
 62
2
 10
-0.0763976036286913
 20
0.259877912343538
 30
0
 11
-0.0763976036286913
 21
0.269877912818512
 31
0
 12
-0.0613976029162295
 22
0.269877912818512
 32
0
 13
-0.0613976029162295
 23
0.259877912343538
 33
0
0
3DFACE
8
2
 62
2
 10
-0.0763976036286913
 20
0.259877912343538
 30
0.0630000029923394
 11
-0.0763976036286913
 21
0.269877912818512
 31
0.0630000029923394
 12
-0.0613976029162295
 22
0.269877912818512
 32
0.0630000029923394
 13
-0.0613976029162295
 23
0.259877912343538
 33
0.0630000029923394
0
3DFACE
8
2
 62
2
 10
-0.0613976029162295
 20
0.259877912343538
 30
0
 11
-0.0763976036286913
 21
0.259877912343538
 31
0
 12
-0.0763976036286913
 22
0.259877912343538
 32
0.0630000029923394
 13
-0.0613976029162295
 23
0.259877912343538
 33
0.0630000029923394
0
3DFACE
8
2
 62
2
 10
-0.0763976036286913
 20
0.259877912343538
 30
0
 11
-0.0763976036286913
 21
0.269877912818512
 31
0
 12
-0.0763976036286913
 22
0.269877912818512
 32
0.0630000029923394
 13
-0.0763976036286913
 23
0.259877912343538
 33
0.0630000029923394
0
3DFACE
8
2
 62
2
 10
-0.0763976036286913
 20
0.269877912818512
 30
0
 11
-0.0613976029162295
 21
0.269877912818512
 31
0
 12
-0.0613976029162295
 22
0.269877912818512
 32
0.0630000029923394
 13
-0.0763976036286913
 23
0.269877912818512
 33
0.0630000029923394
0
3DFACE
8
2
 62
2
 10
-0.0613976029162295
 20
0.269877912818512
 30
0
 11
-0.0613976029162295
 21
0.259877912343538
 31
0
 12
-0.0613976029162295
 22
0.259877912343538
 32
0.0630000029923394
 13
-0.0613976029162295
 23
0.269877912818512
 33
0.0630000029923394
 0
ENDBLK
 0
BLOCK
 70
0
 2
TOP_PLACE_BOUND_Polygon_91
 10
0
 20
0
 30
0
0
3DFACE
8
8
 62
8
 10
-0.207000009831972
 20
-0.207000009831972
 30
0
 11
-0.207000009831972
 21
-0.167637810086391
 31
0
 12
-0.167637810086391
 22
0.207000009831972
 32
0
 13
-0.167637810086391
 23
0.207000009831972
 33
0
0
3DFACE
8
8
 62
8
 10
-0.207000009831972
 20
-0.167637810086391
 30
0
 11
-0.259877972548619
 21
-0.167637810086391
 31
0
 12
-0.259877972548619
 22
0.167637810086391
 32
0
 13
-0.259877972548619
 23
0.167637810086391
 33
0
0
3DFACE
8
8
 62
8
 10
-0.207000009831972
 20
-0.167637810086391
 30
0
 11
-0.259877972548619
 21
0.167637810086391
 31
0
 12
-0.207000009831972
 22
0.167637810086391
 32
0
 13
-0.207000009831972
 23
0.167637810086391
 33
0
0
3DFACE
8
8
 62
8
 10
-0.207000009831972
 20
-0.167637810086391
 30
0
 11
-0.207000009831972
 21
0.167637810086391
 31
0
 12
-0.167637810086391
 22
0.207000009831972
 32
0
 13
-0.167637810086391
 23
0.207000009831972
 33
0
0
3DFACE
8
8
 62
8
 10
-0.207000009831972
 20
0.167637810086391
 30
0
 11
-0.207000009831972
 21
0.207000009831972
 31
0
 12
-0.167637810086391
 22
0.207000009831972
 32
0
 13
-0.167637810086391
 23
0.207000009831972
 33
0
0
3DFACE
8
8
 62
8
 10
-0.207000009831972
 20
-0.207000009831972
 30
0
 11
-0.167637810086391
 21
0.207000009831972
 31
0
 12
0.167637810086391
 22
0.259877972548619
 32
0
 13
0.167637810086391
 23
0.259877972548619
 33
0
0
3DFACE
8
8
 62
8
 10
-0.167637810086391
 20
0.207000009831972
 30
0
 11
-0.167637810086391
 21
0.259877972548619
 31
0
 12
0.167637810086391
 22
0.259877972548619
 32
0
 13
0.167637810086391
 23
0.259877972548619
 33
0
0
3DFACE
8
8
 62
8
 10
-0.207000009831972
 20
-0.207000009831972
 30
0
 11
0.167637810086391
 21
0.259877972548619
 31
0
 12
0.167637810086391
 22
0.207000009831972
 32
0
 13
0.167637810086391
 23
0.207000009831972
 33
0
0
3DFACE
8
8
 62
8
 10
-0.207000009831972
 20
-0.207000009831972
 30
0
 11
0.167637810086391
 21
0.207000009831972
 31
0
 12
0.207000009831972
 22
0.207000009831972
 32
0
 13
0.207000009831972
 23
0.207000009831972
 33
0
0
3DFACE
8
8
 62
8
 10
-0.207000009831972
 20
-0.207000009831972
 30
0
 11
0.207000009831972
 21
0.207000009831972
 31
0
 12
0.207000009831972
 22
0.167637810086391
 32
0
 13
0.207000009831972
 23
0.167637810086391
 33
0
0
3DFACE
8
8
 62
8
 10
-0.207000009831972
 20
-0.207000009831972
 30
0
 11
0.207000009831972
 21
0.167637810086391
 31
0
 12
0.259877972548619
 22
0.167637810086391
 32
0
 13
0.259877972548619
 23
0.167637810086391
 33
0
0
3DFACE
8
8
 62
8
 10
-0.207000009831972
 20
-0.207000009831972
 30
0
 11
0.259877972548619
 21
0.167637810086391
 31
0
 12
0.207000009831972
 22
-0.167637810086391
 32
0
 13
0.207000009831972
 23
-0.167637810086391
 33
0
0
3DFACE
8
8
 62
8
 10
0.259877972548619
 20
0.167637810086391
 30
0
 11
0.259877972548619
 21
-0.167637810086391
 31
0
 12
0.207000009831972
 22
-0.167637810086391
 32
0
 13
0.207000009831972
 23
-0.167637810086391
 33
0
0
3DFACE
8
8
 62
8
 10
-0.207000009831972
 20
-0.207000009831972
 30
0
 11
0.207000009831972
 21
-0.167637810086391
 31
0
 12
-0.167637810086391
 22
-0.207000009831972
 32
0
 13
-0.167637810086391
 23
-0.207000009831972
 33
0
0
3DFACE
8
8
 62
8
 10
0.207000009831972
 20
-0.167637810086391
 30
0
 11
0.207000009831972
 21
-0.207000009831972
 31
0
 12
0.167637810086391
 22
-0.207000009831972
 32
0
 13
0.167637810086391
 23
-0.207000009831972
 33
0
0
3DFACE
8
8
 62
8
 10
0.207000009831972
 20
-0.167637810086391
 30
0
 11
0.167637810086391
 21
-0.207000009831972
 31
0
 12
-0.167637810086391
 22
-0.259877972548619
 32
0
 13
-0.167637810086391
 23
-0.259877972548619
 33
0
0
3DFACE
8
8
 62
8
 10
0.167637810086391
 20
-0.207000009831972
 30
0
 11
0.167637810086391
 21
-0.259877972548619
 31
0
 12
-0.167637810086391
 22
-0.259877972548619
 32
0
 13
-0.167637810086391
 23
-0.259877972548619
 33
0
0
3DFACE
8
8
 62
8
 10
0.207000009831972
 20
-0.167637810086391
 30
0
 11
-0.167637810086391
 21
-0.259877972548619
 31
0
 12
-0.167637810086391
 22
-0.207000009831972
 32
0
 13
-0.167637810086391
 23
-0.207000009831972
 33
0
0
3DFACE
8
8
 62
8
 10
-0.207000009831972
 20
-0.207000009831972
 30
0.0630000029923394
 11
-0.207000009831972
 21
-0.167637810086391
 31
0.0630000029923394
 12
-0.167637810086391
 22
0.207000009831972
 32
0.0630000029923394
 13
-0.167637810086391
 23
0.207000009831972
 33
0.0630000029923394
0
3DFACE
8
8
 62
8
 10
-0.207000009831972
 20
-0.167637810086391
 30
0.0630000029923394
 11
-0.259877972548619
 21
-0.167637810086391
 31
0.0630000029923394
 12
-0.259877972548619
 22
0.167637810086391
 32
0.0630000029923394
 13
-0.259877972548619
 23
0.167637810086391
 33
0.0630000029923394
0
3DFACE
8
8
 62
8
 10
-0.207000009831972
 20
-0.167637810086391
 30
0.0630000029923394
 11
-0.259877972548619
 21
0.167637810086391
 31
0.0630000029923394
 12
-0.207000009831972
 22
0.167637810086391
 32
0.0630000029923394
 13
-0.207000009831972
 23
0.167637810086391
 33
0.0630000029923394
0
3DFACE
8
8
 62
8
 10
-0.207000009831972
 20
-0.167637810086391
 30
0.0630000029923394
 11
-0.207000009831972
 21
0.167637810086391
 31
0.0630000029923394
 12
-0.167637810086391
 22
0.207000009831972
 32
0.0630000029923394
 13
-0.167637810086391
 23
0.207000009831972
 33
0.0630000029923394
0
3DFACE
8
8
 62
8
 10
-0.207000009831972
 20
0.167637810086391
 30
0.0630000029923394
 11
-0.207000009831972
 21
0.207000009831972
 31
0.0630000029923394
 12
-0.167637810086391
 22
0.207000009831972
 32
0.0630000029923394
 13
-0.167637810086391
 23
0.207000009831972
 33
0.0630000029923394
0
3DFACE
8
8
 62
8
 10
-0.207000009831972
 20
-0.207000009831972
 30
0.0630000029923394
 11
-0.167637810086391
 21
0.207000009831972
 31
0.0630000029923394
 12
0.167637810086391
 22
0.259877972548619
 32
0.0630000029923394
 13
0.167637810086391
 23
0.259877972548619
 33
0.0630000029923394
0
3DFACE
8
8
 62
8
 10
-0.167637810086391
 20
0.207000009831972
 30
0.0630000029923394
 11
-0.167637810086391
 21
0.259877972548619
 31
0.0630000029923394
 12
0.167637810086391
 22
0.259877972548619
 32
0.0630000029923394
 13
0.167637810086391
 23
0.259877972548619
 33
0.0630000029923394
0
3DFACE
8
8
 62
8
 10
-0.207000009831972
 20
-0.207000009831972
 30
0.0630000029923394
 11
0.167637810086391
 21
0.259877972548619
 31
0.0630000029923394
 12
0.167637810086391
 22
0.207000009831972
 32
0.0630000029923394
 13
0.167637810086391
 23
0.207000009831972
 33
0.0630000029923394
0
3DFACE
8
8
 62
8
 10
-0.207000009831972
 20
-0.207000009831972
 30
0.0630000029923394
 11
0.167637810086391
 21
0.207000009831972
 31
0.0630000029923394
 12
0.207000009831972
 22
0.207000009831972
 32
0.0630000029923394
 13
0.207000009831972
 23
0.207000009831972
 33
0.0630000029923394
0
3DFACE
8
8
 62
8
 10
-0.207000009831972
 20
-0.207000009831972
 30
0.0630000029923394
 11
0.207000009831972
 21
0.207000009831972
 31
0.0630000029923394
 12
0.207000009831972
 22
0.167637810086391
 32
0.0630000029923394
 13
0.207000009831972
 23
0.167637810086391
 33
0.0630000029923394
0
3DFACE
8
8
 62
8
 10
-0.207000009831972
 20
-0.207000009831972
 30
0.0630000029923394
 11
0.207000009831972
 21
0.167637810086391
 31
0.0630000029923394
 12
0.259877972548619
 22
0.167637810086391
 32
0.0630000029923394
 13
0.259877972548619
 23
0.167637810086391
 33
0.0630000029923394
0
3DFACE
8
8
 62
8
 10
-0.207000009831972
 20
-0.207000009831972
 30
0.0630000029923394
 11
0.259877972548619
 21
0.167637810086391
 31
0.0630000029923394
 12
0.207000009831972
 22
-0.167637810086391
 32
0.0630000029923394
 13
0.207000009831972
 23
-0.167637810086391
 33
0.0630000029923394
0
3DFACE
8
8
 62
8
 10
0.259877972548619
 20
0.167637810086391
 30
0.0630000029923394
 11
0.259877972548619
 21
-0.167637810086391
 31
0.0630000029923394
 12
0.207000009831972
 22
-0.167637810086391
 32
0.0630000029923394
 13
0.207000009831972
 23
-0.167637810086391
 33
0.0630000029923394
0
3DFACE
8
8
 62
8
 10
-0.207000009831972
 20
-0.207000009831972
 30
0.0630000029923394
 11
0.207000009831972
 21
-0.167637810086391
 31
0.0630000029923394
 12
-0.167637810086391
 22
-0.207000009831972
 32
0.0630000029923394
 13
-0.167637810086391
 23
-0.207000009831972
 33
0.0630000029923394
0
3DFACE
8
8
 62
8
 10
0.207000009831972
 20
-0.167637810086391
 30
0.0630000029923394
 11
0.207000009831972
 21
-0.207000009831972
 31
0.0630000029923394
 12
0.167637810086391
 22
-0.207000009831972
 32
0.0630000029923394
 13
0.167637810086391
 23
-0.207000009831972
 33
0.0630000029923394
0
3DFACE
8
8
 62
8
 10
0.207000009831972
 20
-0.167637810086391
 30
0.0630000029923394
 11
0.167637810086391
 21
-0.207000009831972
 31
0.0630000029923394
 12
-0.167637810086391
 22
-0.259877972548619
 32
0.0630000029923394
 13
-0.167637810086391
 23
-0.259877972548619
 33
0.0630000029923394
0
3DFACE
8
8
 62
8
 10
0.167637810086391
 20
-0.207000009831972
 30
0.0630000029923394
 11
0.167637810086391
 21
-0.259877972548619
 31
0.0630000029923394
 12
-0.167637810086391
 22
-0.259877972548619
 32
0.0630000029923394
 13
-0.167637810086391
 23
-0.259877972548619
 33
0.0630000029923394
0
3DFACE
8
8
 62
8
 10
0.207000009831972
 20
-0.167637810086391
 30
0.0630000029923394
 11
-0.167637810086391
 21
-0.259877972548619
 31
0.0630000029923394
 12
-0.167637810086391
 22
-0.207000009831972
 32
0.0630000029923394
 13
-0.167637810086391
 23
-0.207000009831972
 33
0.0630000029923394
0
3DFACE
8
8
 62
8
 10
-0.167637810086391
 20
-0.207000009831972
 30
0
 11
-0.207000009831972
 21
-0.207000009831972
 31
0
 12
-0.207000009831972
 22
-0.207000009831972
 32
0.0630000029923394
 13
-0.167637810086391
 23
-0.207000009831972
 33
0.0630000029923394
0
3DFACE
8
8
 62
8
 10
-0.207000009831972
 20
-0.207000009831972
 30
0
 11
-0.207000009831972
 21
-0.167637810086391
 31
0
 12
-0.207000009831972
 22
-0.167637810086391
 32
0.0630000029923394
 13
-0.207000009831972
 23
-0.207000009831972
 33
0.0630000029923394
0
3DFACE
8
8
 62
8
 10
-0.207000009831972
 20
-0.167637810086391
 30
0
 11
-0.259877972548619
 21
-0.167637810086391
 31
0
 12
-0.259877972548619
 22
-0.167637810086391
 32
0.0630000029923394
 13
-0.207000009831972
 23
-0.167637810086391
 33
0.0630000029923394
0
3DFACE
8
8
 62
8
 10
-0.259877972548619
 20
-0.167637810086391
 30
0
 11
-0.259877972548619
 21
0.167637810086391
 31
0
 12
-0.259877972548619
 22
0.167637810086391
 32
0.0630000029923394
 13
-0.259877972548619
 23
-0.167637810086391
 33
0.0630000029923394
0
3DFACE
8
8
 62
8
 10
-0.259877972548619
 20
0.167637810086391
 30
0
 11
-0.207000009831972
 21
0.167637810086391
 31
0
 12
-0.207000009831972
 22
0.167637810086391
 32
0.0630000029923394
 13
-0.259877972548619
 23
0.167637810086391
 33
0.0630000029923394
0
3DFACE
8
8
 62
8
 10
-0.207000009831972
 20
0.167637810086391
 30
0
 11
-0.207000009831972
 21
0.207000009831972
 31
0
 12
-0.207000009831972
 22
0.207000009831972
 32
0.0630000029923394
 13
-0.207000009831972
 23
0.167637810086391
 33
0.0630000029923394
0
3DFACE
8
8
 62
8
 10
-0.207000009831972
 20
0.207000009831972
 30
0
 11
-0.167637810086391
 21
0.207000009831972
 31
0
 12
-0.167637810086391
 22
0.207000009831972
 32
0.0630000029923394
 13
-0.207000009831972
 23
0.207000009831972
 33
0.0630000029923394
0
3DFACE
8
8
 62
8
 10
-0.167637810086391
 20
0.207000009831972
 30
0
 11
-0.167637810086391
 21
0.259877972548619
 31
0
 12
-0.167637810086391
 22
0.259877972548619
 32
0.0630000029923394
 13
-0.167637810086391
 23
0.207000009831972
 33
0.0630000029923394
0
3DFACE
8
8
 62
8
 10
-0.167637810086391
 20
0.259877972548619
 30
0
 11
0.167637810086391
 21
0.259877972548619
 31
0
 12
0.167637810086391
 22
0.259877972548619
 32
0.0630000029923394
 13
-0.167637810086391
 23
0.259877972548619
 33
0.0630000029923394
0
3DFACE
8
8
 62
8
 10
0.167637810086391
 20
0.259877972548619
 30
0
 11
0.167637810086391
 21
0.207000009831972
 31
0
 12
0.167637810086391
 22
0.207000009831972
 32
0.0630000029923394
 13
0.167637810086391
 23
0.259877972548619
 33
0.0630000029923394
0
3DFACE
8
8
 62
8
 10
0.167637810086391
 20
0.207000009831972
 30
0
 11
0.207000009831972
 21
0.207000009831972
 31
0
 12
0.207000009831972
 22
0.207000009831972
 32
0.0630000029923394
 13
0.167637810086391
 23
0.207000009831972
 33
0.0630000029923394
0
3DFACE
8
8
 62
8
 10
0.207000009831972
 20
0.207000009831972
 30
0
 11
0.207000009831972
 21
0.167637810086391
 31
0
 12
0.207000009831972
 22
0.167637810086391
 32
0.0630000029923394
 13
0.207000009831972
 23
0.207000009831972
 33
0.0630000029923394
0
3DFACE
8
8
 62
8
 10
0.207000009831972
 20
0.167637810086391
 30
0
 11
0.259877972548619
 21
0.167637810086391
 31
0
 12
0.259877972548619
 22
0.167637810086391
 32
0.0630000029923394
 13
0.207000009831972
 23
0.167637810086391
 33
0.0630000029923394
0
3DFACE
8
8
 62
8
 10
0.259877972548619
 20
0.167637810086391
 30
0
 11
0.259877972548619
 21
-0.167637810086391
 31
0
 12
0.259877972548619
 22
-0.167637810086391
 32
0.0630000029923394
 13
0.259877972548619
 23
0.167637810086391
 33
0.0630000029923394
0
3DFACE
8
8
 62
8
 10
0.259877972548619
 20
-0.167637810086391
 30
0
 11
0.207000009831972
 21
-0.167637810086391
 31
0
 12
0.207000009831972
 22
-0.167637810086391
 32
0.0630000029923394
 13
0.259877972548619
 23
-0.167637810086391
 33
0.0630000029923394
0
3DFACE
8
8
 62
8
 10
0.207000009831972
 20
-0.167637810086391
 30
0
 11
0.207000009831972
 21
-0.207000009831972
 31
0
 12
0.207000009831972
 22
-0.207000009831972
 32
0.0630000029923394
 13
0.207000009831972
 23
-0.167637810086391
 33
0.0630000029923394
0
3DFACE
8
8
 62
8
 10
0.207000009831972
 20
-0.207000009831972
 30
0
 11
0.167637810086391
 21
-0.207000009831972
 31
0
 12
0.167637810086391
 22
-0.207000009831972
 32
0.0630000029923394
 13
0.207000009831972
 23
-0.207000009831972
 33
0.0630000029923394
0
3DFACE
8
8
 62
8
 10
0.167637810086391
 20
-0.207000009831972
 30
0
 11
0.167637810086391
 21
-0.259877972548619
 31
0
 12
0.167637810086391
 22
-0.259877972548619
 32
0.0630000029923394
 13
0.167637810086391
 23
-0.207000009831972
 33
0.0630000029923394
0
3DFACE
8
8
 62
8
 10
0.167637810086391
 20
-0.259877972548619
 30
0
 11
-0.167637810086391
 21
-0.259877972548619
 31
0
 12
-0.167637810086391
 22
-0.259877972548619
 32
0.0630000029923394
 13
0.167637810086391
 23
-0.259877972548619
 33
0.0630000029923394
0
3DFACE
8
8
 62
8
 10
-0.167637810086391
 20
-0.259877972548619
 30
0
 11
-0.167637810086391
 21
-0.207000009831972
 31
0
 12
-0.167637810086391
 22
-0.207000009831972
 32
0.0630000029923394
 13
-0.167637810086391
 23
-0.259877972548619
 33
0.0630000029923394
 0
ENDBLK
 0
BLOCK
 70
0
 2
TOP_VALOR_Polygon_118
 10
0
 20
0
 30
0
0
3DFACE
8
23
 62
23
 10
-0.274877912225922
 20
-0.274877912225922
 30
0
 11
-0.274877912225922
 21
0.274877912225922
 31
0
 12
0.274877912225922
 22
0.274877912225922
 32
0
 13
0.274877912225922
 23
-0.274877912225922
 33
0
0
3DFACE
8
23
 62
23
 10
-0.274877912225922
 20
-0.274877912225922
 30
0.0630000029923394
 11
-0.274877912225922
 21
0.274877912225922
 31
0.0630000029923394
 12
0.274877912225922
 22
0.274877912225922
 32
0.0630000029923394
 13
0.274877912225922
 23
-0.274877912225922
 33
0.0630000029923394
0
3DFACE
8
23
 62
23
 10
0.274877912225922
 20
-0.274877912225922
 30
0
 11
-0.274877912225922
 21
-0.274877912225922
 31
0
 12
-0.274877912225922
 22
-0.274877912225922
 32
0.0630000029923394
 13
0.274877912225922
 23
-0.274877912225922
 33
0.0630000029923394
0
3DFACE
8
23
 62
23
 10
-0.274877912225922
 20
-0.274877912225922
 30
0
 11
-0.274877912225922
 21
0.274877912225922
 31
0
 12
-0.274877912225922
 22
0.274877912225922
 32
0.0630000029923394
 13
-0.274877912225922
 23
-0.274877912225922
 33
0.0630000029923394
0
3DFACE
8
23
 62
23
 10
-0.274877912225922
 20
0.274877912225922
 30
0
 11
0.274877912225922
 21
0.274877912225922
 31
0
 12
0.274877912225922
 22
0.274877912225922
 32
0.0630000029923394
 13
-0.274877912225922
 23
0.274877912225922
 33
0.0630000029923394
0
3DFACE
8
23
 62
23
 10
0.274877912225922
 20
0.274877912225922
 30
0
 11
0.274877912225922
 21
-0.274877912225922
 31
0
 12
0.274877912225922
 22
-0.274877912225922
 32
0.0630000029923394
 13
0.274877912225922
 23
0.274877912225922
 33
0.0630000029923394
 0
ENDBLK
0
ENDSEC
0
SECTION
2
ENTITIES
 0
INSERT
 8
2
 2
TOP_SILKSCREEN_Polygon_1
 10
0
 20
0
 30
0
 41
1
 42
1
 43
1
 0
INSERT
 8
2
 2
TOP_SILKSCREEN_Polygon_18
 10
0
 20
0
 30
0
 41
1
 42
1
 43
1
 0
INSERT
 8
2
 2
TOP_SILKSCREEN_Polygon_19
 10
0
 20
0
 30
0
 41
1
 42
1
 43
1
 0
INSERT
 8
2
 2
TOP_SILKSCREEN_Polygon_36
 10
0
 20
0
 30
0
 41
1
 42
1
 43
1
 0
INSERT
 8
2
 2
TOP_SILKSCREEN_Polygon_53
 10
0
 20
0
 30
0
 41
1
 42
1
 43
1
 0
INSERT
 8
2
 2
TOP_SILKSCREEN_Polygon_54
 10
0
 20
0
 30
0
 41
1
 42
1
 43
1
 0
INSERT
 8
8
 2
TOP_PLACE_BOUND_Polygon_91
 10
0
 20
0
 30
0
 41
1
 42
1
 43
1
 0
INSERT
 8
23
 2
TOP_VALOR_Polygon_118
 10
0
 20
0
 30
0
 41
1
 42
1
 43
1
0
ENDSEC
 0
EOF

