 999
VISION3D DXF
0
SECTION
2
HEADER
0
ENDSEC
0
SECTION
2
TABLES
0
ENDSEC
0
SECTION
2
BLOCKS
 0
BLOCK
 70
0
 2
TOP_SILKSCREEN_Polygon_83
 10
0
 20
0
 30
0
0
3DFACE
8
2
 62
2
 10
-0.0271850012912182
 20
0.0474331022529514
 30
0
 11
-0.0271850012912182
 21
0.0574331027279259
 31
0
 12
-0.0121850005787564
 22
0.0574331027279259
 32
0
 13
-0.0121850005787564
 23
0.0474331022529514
 33
0
0
3DFACE
8
2
 62
2
 10
-0.0271850012912182
 20
0.0474331022529514
 30
0.0320000015199184
 11
-0.0271850012912182
 21
0.0574331027279259
 31
0.0320000015199184
 12
-0.0121850005787564
 22
0.0574331027279259
 32
0.0320000015199184
 13
-0.0121850005787564
 23
0.0474331022529514
 33
0.0320000015199184
0
3DFACE
8
2
 62
2
 10
-0.0121850005787564
 20
0.0474331022529514
 30
0
 11
-0.0271850012912182
 21
0.0474331022529514
 31
0
 12
-0.0271850012912182
 22
0.0474331022529514
 32
0.0320000015199184
 13
-0.0121850005787564
 23
0.0474331022529514
 33
0.0320000015199184
0
3DFACE
8
2
 62
2
 10
-0.0271850012912182
 20
0.0474331022529514
 30
0
 11
-0.0271850012912182
 21
0.0574331027279259
 31
0
 12
-0.0271850012912182
 22
0.0574331027279259
 32
0.0320000015199184
 13
-0.0271850012912182
 23
0.0474331022529514
 33
0.0320000015199184
0
3DFACE
8
2
 62
2
 10
-0.0271850012912182
 20
0.0574331027279259
 30
0
 11
-0.0121850005787564
 21
0.0574331027279259
 31
0
 12
-0.0121850005787564
 22
0.0574331027279259
 32
0.0320000015199184
 13
-0.0271850012912182
 23
0.0574331027279259
 33
0.0320000015199184
0
3DFACE
8
2
 62
2
 10
-0.0121850005787564
 20
0.0574331027279259
 30
0
 11
-0.0121850005787564
 21
0.0474331022529514
 31
0
 12
-0.0121850005787564
 22
0.0474331022529514
 32
0.0320000015199184
 13
-0.0121850005787564
 23
0.0574331027279259
 33
0.0320000015199184
 0
ENDBLK
 0
BLOCK
 70
0
 2
TOP_PLACE_BOUND_Polygon_117
 10
0
 20
0
 30
0
0
3DFACE
8
8
 62
8
 10
-0.0615000029210933
 20
-0.0615000029210933
 30
0
 11
-0.0615000029210933
 21
-0.0348425233224115
 31
0
 12
-0.0446850416426892
 22
0.0615000029210933
 32
0
 13
-0.0446850416426892
 23
0.0615000029210933
 33
0
0
3DFACE
8
8
 62
8
 10
-0.0615000029210933
 20
-0.0348425233224115
 30
0
 11
-0.0635000030160882
 21
-0.0348425233224115
 31
0
 12
-0.0635000030160882
 22
0.0348425233224115
 32
0
 13
-0.0635000030160882
 23
0.0348425233224115
 33
0
0
3DFACE
8
8
 62
8
 10
-0.0615000029210933
 20
-0.0348425233224115
 30
0
 11
-0.0635000030160882
 21
0.0348425233224115
 31
0
 12
-0.0615000029210933
 22
0.0348425233224115
 32
0
 13
-0.0615000029210933
 23
0.0348425233224115
 33
0
0
3DFACE
8
8
 62
8
 10
-0.0615000029210933
 20
-0.0348425233224115
 30
0
 11
-0.0615000029210933
 21
0.0348425233224115
 31
0
 12
-0.0446850416426892
 22
0.0615000029210933
 32
0
 13
-0.0446850416426892
 23
0.0615000029210933
 33
0
0
3DFACE
8
8
 62
8
 10
-0.0615000029210933
 20
0.0348425233224115
 30
0
 11
-0.0615000029210933
 21
0.0615000029210933
 31
0
 12
-0.0446850416426892
 22
0.0615000029210933
 32
0
 13
-0.0446850416426892
 23
0.0615000029210933
 33
0
0
3DFACE
8
8
 62
8
 10
-0.0615000029210933
 20
-0.0615000029210933
 30
0
 11
-0.0446850416426892
 21
0.0615000029210933
 31
0
 12
0.0446850416426892
 22
0.0635000030160882
 32
0
 13
0.0446850416426892
 23
0.0635000030160882
 33
0
0
3DFACE
8
8
 62
8
 10
-0.0446850416426892
 20
0.0615000029210933
 30
0
 11
-0.0446850416426892
 21
0.0635000030160882
 31
0
 12
0.0446850416426892
 22
0.0635000030160882
 32
0
 13
0.0446850416426892
 23
0.0635000030160882
 33
0
0
3DFACE
8
8
 62
8
 10
-0.0615000029210933
 20
-0.0615000029210933
 30
0
 11
0.0446850416426892
 21
0.0635000030160882
 31
0
 12
0.0446850416426892
 22
0.0615000029210933
 32
0
 13
0.0446850416426892
 23
0.0615000029210933
 33
0
0
3DFACE
8
8
 62
8
 10
-0.0615000029210933
 20
-0.0615000029210933
 30
0
 11
0.0446850416426892
 21
0.0615000029210933
 31
0
 12
0.0615000029210933
 22
0.0615000029210933
 32
0
 13
0.0615000029210933
 23
0.0615000029210933
 33
0
0
3DFACE
8
8
 62
8
 10
-0.0615000029210933
 20
-0.0615000029210933
 30
0
 11
0.0615000029210933
 21
0.0615000029210933
 31
0
 12
0.0615000029210933
 22
0.0348425233224115
 32
0
 13
0.0615000029210933
 23
0.0348425233224115
 33
0
0
3DFACE
8
8
 62
8
 10
-0.0615000029210933
 20
-0.0615000029210933
 30
0
 11
0.0615000029210933
 21
0.0348425233224115
 31
0
 12
0.0635000030160882
 22
0.0348425233224115
 32
0
 13
0.0635000030160882
 23
0.0348425233224115
 33
0
0
3DFACE
8
8
 62
8
 10
-0.0615000029210933
 20
-0.0615000029210933
 30
0
 11
0.0635000030160882
 21
0.0348425233224115
 31
0
 12
0.0615000029210933
 22
-0.0348425233224115
 32
0
 13
0.0615000029210933
 23
-0.0348425233224115
 33
0
0
3DFACE
8
8
 62
8
 10
0.0635000030160882
 20
0.0348425233224115
 30
0
 11
0.0635000030160882
 21
-0.0348425233224115
 31
0
 12
0.0615000029210933
 22
-0.0348425233224115
 32
0
 13
0.0615000029210933
 23
-0.0348425233224115
 33
0
0
3DFACE
8
8
 62
8
 10
-0.0615000029210933
 20
-0.0615000029210933
 30
0
 11
0.0615000029210933
 21
-0.0348425233224115
 31
0
 12
-0.0446850416426892
 22
-0.0615000029210933
 32
0
 13
-0.0446850416426892
 23
-0.0615000029210933
 33
0
0
3DFACE
8
8
 62
8
 10
0.0615000029210933
 20
-0.0348425233224115
 30
0
 11
0.0615000029210933
 21
-0.0615000029210933
 31
0
 12
0.0446850416426892
 22
-0.0615000029210933
 32
0
 13
0.0446850416426892
 23
-0.0615000029210933
 33
0
0
3DFACE
8
8
 62
8
 10
0.0615000029210933
 20
-0.0348425233224115
 30
0
 11
0.0446850416426892
 21
-0.0615000029210933
 31
0
 12
-0.0446850416426892
 22
-0.0635000030160882
 32
0
 13
-0.0446850416426892
 23
-0.0635000030160882
 33
0
0
3DFACE
8
8
 62
8
 10
0.0446850416426892
 20
-0.0615000029210933
 30
0
 11
0.0446850416426892
 21
-0.0635000030160882
 31
0
 12
-0.0446850416426892
 22
-0.0635000030160882
 32
0
 13
-0.0446850416426892
 23
-0.0635000030160882
 33
0
0
3DFACE
8
8
 62
8
 10
0.0615000029210933
 20
-0.0348425233224115
 30
0
 11
-0.0446850416426892
 21
-0.0635000030160882
 31
0
 12
-0.0446850416426892
 22
-0.0615000029210933
 32
0
 13
-0.0446850416426892
 23
-0.0615000029210933
 33
0
0
3DFACE
8
8
 62
8
 10
-0.0615000029210933
 20
-0.0615000029210933
 30
0.0320000015199184
 11
-0.0615000029210933
 21
-0.0348425233224115
 31
0.0320000015199184
 12
-0.0446850416426892
 22
0.0615000029210933
 32
0.0320000015199184
 13
-0.0446850416426892
 23
0.0615000029210933
 33
0.0320000015199184
0
3DFACE
8
8
 62
8
 10
-0.0615000029210933
 20
-0.0348425233224115
 30
0.0320000015199184
 11
-0.0635000030160882
 21
-0.0348425233224115
 31
0.0320000015199184
 12
-0.0635000030160882
 22
0.0348425233224115
 32
0.0320000015199184
 13
-0.0635000030160882
 23
0.0348425233224115
 33
0.0320000015199184
0
3DFACE
8
8
 62
8
 10
-0.0615000029210933
 20
-0.0348425233224115
 30
0.0320000015199184
 11
-0.0635000030160882
 21
0.0348425233224115
 31
0.0320000015199184
 12
-0.0615000029210933
 22
0.0348425233224115
 32
0.0320000015199184
 13
-0.0615000029210933
 23
0.0348425233224115
 33
0.0320000015199184
0
3DFACE
8
8
 62
8
 10
-0.0615000029210933
 20
-0.0348425233224115
 30
0.0320000015199184
 11
-0.0615000029210933
 21
0.0348425233224115
 31
0.0320000015199184
 12
-0.0446850416426892
 22
0.0615000029210933
 32
0.0320000015199184
 13
-0.0446850416426892
 23
0.0615000029210933
 33
0.0320000015199184
0
3DFACE
8
8
 62
8
 10
-0.0615000029210933
 20
0.0348425233224115
 30
0.0320000015199184
 11
-0.0615000029210933
 21
0.0615000029210933
 31
0.0320000015199184
 12
-0.0446850416426892
 22
0.0615000029210933
 32
0.0320000015199184
 13
-0.0446850416426892
 23
0.0615000029210933
 33
0.0320000015199184
0
3DFACE
8
8
 62
8
 10
-0.0615000029210933
 20
-0.0615000029210933
 30
0.0320000015199184
 11
-0.0446850416426892
 21
0.0615000029210933
 31
0.0320000015199184
 12
0.0446850416426892
 22
0.0635000030160882
 32
0.0320000015199184
 13
0.0446850416426892
 23
0.0635000030160882
 33
0.0320000015199184
0
3DFACE
8
8
 62
8
 10
-0.0446850416426892
 20
0.0615000029210933
 30
0.0320000015199184
 11
-0.0446850416426892
 21
0.0635000030160882
 31
0.0320000015199184
 12
0.0446850416426892
 22
0.0635000030160882
 32
0.0320000015199184
 13
0.0446850416426892
 23
0.0635000030160882
 33
0.0320000015199184
0
3DFACE
8
8
 62
8
 10
-0.0615000029210933
 20
-0.0615000029210933
 30
0.0320000015199184
 11
0.0446850416426892
 21
0.0635000030160882
 31
0.0320000015199184
 12
0.0446850416426892
 22
0.0615000029210933
 32
0.0320000015199184
 13
0.0446850416426892
 23
0.0615000029210933
 33
0.0320000015199184
0
3DFACE
8
8
 62
8
 10
-0.0615000029210933
 20
-0.0615000029210933
 30
0.0320000015199184
 11
0.0446850416426892
 21
0.0615000029210933
 31
0.0320000015199184
 12
0.0615000029210933
 22
0.0615000029210933
 32
0.0320000015199184
 13
0.0615000029210933
 23
0.0615000029210933
 33
0.0320000015199184
0
3DFACE
8
8
 62
8
 10
-0.0615000029210933
 20
-0.0615000029210933
 30
0.0320000015199184
 11
0.0615000029210933
 21
0.0615000029210933
 31
0.0320000015199184
 12
0.0615000029210933
 22
0.0348425233224115
 32
0.0320000015199184
 13
0.0615000029210933
 23
0.0348425233224115
 33
0.0320000015199184
0
3DFACE
8
8
 62
8
 10
-0.0615000029210933
 20
-0.0615000029210933
 30
0.0320000015199184
 11
0.0615000029210933
 21
0.0348425233224115
 31
0.0320000015199184
 12
0.0635000030160882
 22
0.0348425233224115
 32
0.0320000015199184
 13
0.0635000030160882
 23
0.0348425233224115
 33
0.0320000015199184
0
3DFACE
8
8
 62
8
 10
-0.0615000029210933
 20
-0.0615000029210933
 30
0.0320000015199184
 11
0.0635000030160882
 21
0.0348425233224115
 31
0.0320000015199184
 12
0.0615000029210933
 22
-0.0348425233224115
 32
0.0320000015199184
 13
0.0615000029210933
 23
-0.0348425233224115
 33
0.0320000015199184
0
3DFACE
8
8
 62
8
 10
0.0635000030160882
 20
0.0348425233224115
 30
0.0320000015199184
 11
0.0635000030160882
 21
-0.0348425233224115
 31
0.0320000015199184
 12
0.0615000029210933
 22
-0.0348425233224115
 32
0.0320000015199184
 13
0.0615000029210933
 23
-0.0348425233224115
 33
0.0320000015199184
0
3DFACE
8
8
 62
8
 10
-0.0615000029210933
 20
-0.0615000029210933
 30
0.0320000015199184
 11
0.0615000029210933
 21
-0.0348425233224115
 31
0.0320000015199184
 12
-0.0446850416426892
 22
-0.0615000029210933
 32
0.0320000015199184
 13
-0.0446850416426892
 23
-0.0615000029210933
 33
0.0320000015199184
0
3DFACE
8
8
 62
8
 10
0.0615000029210933
 20
-0.0348425233224115
 30
0.0320000015199184
 11
0.0615000029210933
 21
-0.0615000029210933
 31
0.0320000015199184
 12
0.0446850416426892
 22
-0.0615000029210933
 32
0.0320000015199184
 13
0.0446850416426892
 23
-0.0615000029210933
 33
0.0320000015199184
0
3DFACE
8
8
 62
8
 10
0.0615000029210933
 20
-0.0348425233224115
 30
0.0320000015199184
 11
0.0446850416426892
 21
-0.0615000029210933
 31
0.0320000015199184
 12
-0.0446850416426892
 22
-0.0635000030160882
 32
0.0320000015199184
 13
-0.0446850416426892
 23
-0.0635000030160882
 33
0.0320000015199184
0
3DFACE
8
8
 62
8
 10
0.0446850416426892
 20
-0.0615000029210933
 30
0.0320000015199184
 11
0.0446850416426892
 21
-0.0635000030160882
 31
0.0320000015199184
 12
-0.0446850416426892
 22
-0.0635000030160882
 32
0.0320000015199184
 13
-0.0446850416426892
 23
-0.0635000030160882
 33
0.0320000015199184
0
3DFACE
8
8
 62
8
 10
0.0615000029210933
 20
-0.0348425233224115
 30
0.0320000015199184
 11
-0.0446850416426892
 21
-0.0635000030160882
 31
0.0320000015199184
 12
-0.0446850416426892
 22
-0.0615000029210933
 32
0.0320000015199184
 13
-0.0446850416426892
 23
-0.0615000029210933
 33
0.0320000015199184
0
3DFACE
8
8
 62
8
 10
-0.0446850416426892
 20
-0.0615000029210933
 30
0
 11
-0.0615000029210933
 21
-0.0615000029210933
 31
0
 12
-0.0615000029210933
 22
-0.0615000029210933
 32
0.0320000015199184
 13
-0.0446850416426892
 23
-0.0615000029210933
 33
0.0320000015199184
0
3DFACE
8
8
 62
8
 10
-0.0615000029210933
 20
-0.0615000029210933
 30
0
 11
-0.0615000029210933
 21
-0.0348425233224115
 31
0
 12
-0.0615000029210933
 22
-0.0348425233224115
 32
0.0320000015199184
 13
-0.0615000029210933
 23
-0.0615000029210933
 33
0.0320000015199184
0
3DFACE
8
8
 62
8
 10
-0.0615000029210933
 20
-0.0348425233224115
 30
0
 11
-0.0635000030160882
 21
-0.0348425233224115
 31
0
 12
-0.0635000030160882
 22
-0.0348425233224115
 32
0.0320000015199184
 13
-0.0615000029210933
 23
-0.0348425233224115
 33
0.0320000015199184
0
3DFACE
8
8
 62
8
 10
-0.0635000030160882
 20
-0.0348425233224115
 30
0
 11
-0.0635000030160882
 21
0.0348425233224115
 31
0
 12
-0.0635000030160882
 22
0.0348425233224115
 32
0.0320000015199184
 13
-0.0635000030160882
 23
-0.0348425233224115
 33
0.0320000015199184
0
3DFACE
8
8
 62
8
 10
-0.0635000030160882
 20
0.0348425233224115
 30
0
 11
-0.0615000029210933
 21
0.0348425233224115
 31
0
 12
-0.0615000029210933
 22
0.0348425233224115
 32
0.0320000015199184
 13
-0.0635000030160882
 23
0.0348425233224115
 33
0.0320000015199184
0
3DFACE
8
8
 62
8
 10
-0.0615000029210933
 20
0.0348425233224115
 30
0
 11
-0.0615000029210933
 21
0.0615000029210933
 31
0
 12
-0.0615000029210933
 22
0.0615000029210933
 32
0.0320000015199184
 13
-0.0615000029210933
 23
0.0348425233224115
 33
0.0320000015199184
0
3DFACE
8
8
 62
8
 10
-0.0615000029210933
 20
0.0615000029210933
 30
0
 11
-0.0446850416426892
 21
0.0615000029210933
 31
0
 12
-0.0446850416426892
 22
0.0615000029210933
 32
0.0320000015199184
 13
-0.0615000029210933
 23
0.0615000029210933
 33
0.0320000015199184
0
3DFACE
8
8
 62
8
 10
-0.0446850416426892
 20
0.0615000029210933
 30
0
 11
-0.0446850416426892
 21
0.0635000030160882
 31
0
 12
-0.0446850416426892
 22
0.0635000030160882
 32
0.0320000015199184
 13
-0.0446850416426892
 23
0.0615000029210933
 33
0.0320000015199184
0
3DFACE
8
8
 62
8
 10
-0.0446850416426892
 20
0.0635000030160882
 30
0
 11
0.0446850416426892
 21
0.0635000030160882
 31
0
 12
0.0446850416426892
 22
0.0635000030160882
 32
0.0320000015199184
 13
-0.0446850416426892
 23
0.0635000030160882
 33
0.0320000015199184
0
3DFACE
8
8
 62
8
 10
0.0446850416426892
 20
0.0635000030160882
 30
0
 11
0.0446850416426892
 21
0.0615000029210933
 31
0
 12
0.0446850416426892
 22
0.0615000029210933
 32
0.0320000015199184
 13
0.0446850416426892
 23
0.0635000030160882
 33
0.0320000015199184
0
3DFACE
8
8
 62
8
 10
0.0446850416426892
 20
0.0615000029210933
 30
0
 11
0.0615000029210933
 21
0.0615000029210933
 31
0
 12
0.0615000029210933
 22
0.0615000029210933
 32
0.0320000015199184
 13
0.0446850416426892
 23
0.0615000029210933
 33
0.0320000015199184
0
3DFACE
8
8
 62
8
 10
0.0615000029210933
 20
0.0615000029210933
 30
0
 11
0.0615000029210933
 21
0.0348425233224115
 31
0
 12
0.0615000029210933
 22
0.0348425233224115
 32
0.0320000015199184
 13
0.0615000029210933
 23
0.0615000029210933
 33
0.0320000015199184
0
3DFACE
8
8
 62
8
 10
0.0615000029210933
 20
0.0348425233224115
 30
0
 11
0.0635000030160882
 21
0.0348425233224115
 31
0
 12
0.0635000030160882
 22
0.0348425233224115
 32
0.0320000015199184
 13
0.0615000029210933
 23
0.0348425233224115
 33
0.0320000015199184
0
3DFACE
8
8
 62
8
 10
0.0635000030160882
 20
0.0348425233224115
 30
0
 11
0.0635000030160882
 21
-0.0348425233224115
 31
0
 12
0.0635000030160882
 22
-0.0348425233224115
 32
0.0320000015199184
 13
0.0635000030160882
 23
0.0348425233224115
 33
0.0320000015199184
0
3DFACE
8
8
 62
8
 10
0.0635000030160882
 20
-0.0348425233224115
 30
0
 11
0.0615000029210933
 21
-0.0348425233224115
 31
0
 12
0.0615000029210933
 22
-0.0348425233224115
 32
0.0320000015199184
 13
0.0635000030160882
 23
-0.0348425233224115
 33
0.0320000015199184
0
3DFACE
8
8
 62
8
 10
0.0615000029210933
 20
-0.0348425233224115
 30
0
 11
0.0615000029210933
 21
-0.0615000029210933
 31
0
 12
0.0615000029210933
 22
-0.0615000029210933
 32
0.0320000015199184
 13
0.0615000029210933
 23
-0.0348425233224115
 33
0.0320000015199184
0
3DFACE
8
8
 62
8
 10
0.0615000029210933
 20
-0.0615000029210933
 30
0
 11
0.0446850416426892
 21
-0.0615000029210933
 31
0
 12
0.0446850416426892
 22
-0.0615000029210933
 32
0.0320000015199184
 13
0.0615000029210933
 23
-0.0615000029210933
 33
0.0320000015199184
0
3DFACE
8
8
 62
8
 10
0.0446850416426892
 20
-0.0615000029210933
 30
0
 11
0.0446850416426892
 21
-0.0635000030160882
 31
0
 12
0.0446850416426892
 22
-0.0635000030160882
 32
0.0320000015199184
 13
0.0446850416426892
 23
-0.0615000029210933
 33
0.0320000015199184
0
3DFACE
8
8
 62
8
 10
0.0446850416426892
 20
-0.0635000030160882
 30
0
 11
-0.0446850416426892
 21
-0.0635000030160882
 31
0
 12
-0.0446850416426892
 22
-0.0635000030160882
 32
0.0320000015199184
 13
0.0446850416426892
 23
-0.0635000030160882
 33
0.0320000015199184
0
3DFACE
8
8
 62
8
 10
-0.0446850416426892
 20
-0.0635000030160882
 30
0
 11
-0.0446850416426892
 21
-0.0615000029210933
 31
0
 12
-0.0446850416426892
 22
-0.0615000029210933
 32
0.0320000015199184
 13
-0.0446850416426892
 23
-0.0635000030160882
 33
0.0320000015199184
 0
ENDBLK
 0
BLOCK
 70
0
 2
TOP_VALOR_Polygon_144
 10
0
 20
0
 30
0
0
3DFACE
8
23
 62
23
 10
-0.0624330741018864
 20
-0.0624330741018864
 30
0
 11
-0.0624330741018864
 21
0.0624330741018864
 31
0
 12
0.0624330741018864
 22
0.0624330741018864
 32
0
 13
0.0624330741018864
 23
-0.0624330741018864
 33
0
0
3DFACE
8
23
 62
23
 10
-0.0624330741018864
 20
-0.0624330741018864
 30
0.0320000015199184
 11
-0.0624330741018864
 21
0.0624330741018864
 31
0.0320000015199184
 12
0.0624330741018864
 22
0.0624330741018864
 32
0.0320000015199184
 13
0.0624330741018864
 23
-0.0624330741018864
 33
0.0320000015199184
0
3DFACE
8
23
 62
23
 10
0.0624330741018864
 20
-0.0624330741018864
 30
0
 11
-0.0624330741018864
 21
-0.0624330741018864
 31
0
 12
-0.0624330741018864
 22
-0.0624330741018864
 32
0.0320000015199184
 13
0.0624330741018864
 23
-0.0624330741018864
 33
0.0320000015199184
0
3DFACE
8
23
 62
23
 10
-0.0624330741018864
 20
-0.0624330741018864
 30
0
 11
-0.0624330741018864
 21
0.0624330741018864
 31
0
 12
-0.0624330741018864
 22
0.0624330741018864
 32
0.0320000015199184
 13
-0.0624330741018864
 23
-0.0624330741018864
 33
0.0320000015199184
0
3DFACE
8
23
 62
23
 10
-0.0624330741018864
 20
0.0624330741018864
 30
0
 11
0.0624330741018864
 21
0.0624330741018864
 31
0
 12
0.0624330741018864
 22
0.0624330741018864
 32
0.0320000015199184
 13
-0.0624330741018864
 23
0.0624330741018864
 33
0.0320000015199184
0
3DFACE
8
23
 62
23
 10
0.0624330741018864
 20
0.0624330741018864
 30
0
 11
0.0624330741018864
 21
-0.0624330741018864
 31
0
 12
0.0624330741018864
 22
-0.0624330741018864
 32
0.0320000015199184
 13
0.0624330741018864
 23
0.0624330741018864
 33
0.0320000015199184
 0
ENDBLK
0
ENDSEC
0
SECTION
2
ENTITIES
 0
INSERT
 8
2
 2
TOP_SILKSCREEN_Polygon_83
 10
0
 20
0
 30
0
 41
1
 42
1
 43
1
 0
INSERT
 8
8
 2
TOP_PLACE_BOUND_Polygon_117
 10
0
 20
0
 30
0
 41
1
 42
1
 43
1
 0
INSERT
 8
23
 2
TOP_VALOR_Polygon_144
 10
0
 20
0
 30
0
 41
1
 42
1
 43
1
0
ENDSEC
 0
EOF

