 999
VISION3D DXF
0
SECTION
2
HEADER
0
ENDSEC
0
SECTION
2
TABLES
0
ENDSEC
0
SECTION
2
BLOCKS
 0
BLOCK
 70
0
 2
TOP_SILKSCREEN_Polygon_83
 10
0
 20
0
 30
0
0
3DFACE
8
2
 62
2
 10
-0.0271850012912182
 20
0.0434331020629616
 30
0
 11
-0.0271850012912182
 21
0.0534331025379361
 31
0
 12
-0.0121850005787564
 22
0.0534331025379361
 32
0
 13
-0.0121850005787564
 23
0.0434331020629616
 33
0
0
3DFACE
8
2
 62
2
 10
-0.0271850012912182
 20
0.0434331020629616
 30
0.0320000015199184
 11
-0.0271850012912182
 21
0.0534331025379361
 31
0.0320000015199184
 12
-0.0121850005787564
 22
0.0534331025379361
 32
0.0320000015199184
 13
-0.0121850005787564
 23
0.0434331020629616
 33
0.0320000015199184
0
3DFACE
8
2
 62
2
 10
-0.0121850005787564
 20
0.0434331020629616
 30
0
 11
-0.0271850012912182
 21
0.0434331020629616
 31
0
 12
-0.0271850012912182
 22
0.0434331020629616
 32
0.0320000015199184
 13
-0.0121850005787564
 23
0.0434331020629616
 33
0.0320000015199184
0
3DFACE
8
2
 62
2
 10
-0.0271850012912182
 20
0.0434331020629616
 30
0
 11
-0.0271850012912182
 21
0.0534331025379361
 31
0
 12
-0.0271850012912182
 22
0.0534331025379361
 32
0.0320000015199184
 13
-0.0271850012912182
 23
0.0434331020629616
 33
0.0320000015199184
0
3DFACE
8
2
 62
2
 10
-0.0271850012912182
 20
0.0534331025379361
 30
0
 11
-0.0121850005787564
 21
0.0534331025379361
 31
0
 12
-0.0121850005787564
 22
0.0534331025379361
 32
0.0320000015199184
 13
-0.0271850012912182
 23
0.0534331025379361
 33
0.0320000015199184
0
3DFACE
8
2
 62
2
 10
-0.0121850005787564
 20
0.0534331025379361
 30
0
 11
-0.0121850005787564
 21
0.0434331020629616
 31
0
 12
-0.0121850005787564
 22
0.0434331020629616
 32
0.0320000015199184
 13
-0.0121850005787564
 23
0.0534331025379361
 33
0.0320000015199184
 0
ENDBLK
 0
BLOCK
 70
0
 2
TOP_PLACE_BOUND_Polygon_117
 10
0
 20
0
 30
0
0
3DFACE
8
8
 62
8
 10
-0.045500002161134
 20
-0.045500002161134
 30
0
 11
-0.045500002161134
 21
-0.0188425206551035
 31
0
 12
-0.0435000020661391
 22
-0.0188425206551035
 32
0
 13
-0.0435000020661391
 23
-0.0188425206551035
 33
0
0
3DFACE
8
8
 62
8
 10
-0.045500002161134
 20
-0.045500002161134
 30
0
 11
-0.0435000020661391
 21
-0.0188425206551035
 31
0
 12
-0.02868504088273
 22
0.045500002161134
 32
0
 13
-0.02868504088273
 23
0.045500002161134
 33
0
0
3DFACE
8
8
 62
8
 10
-0.0435000020661391
 20
-0.0188425206551035
 30
0
 11
-0.0435000020661391
 21
0.0188425206551035
 31
0
 12
-0.02868504088273
 22
0.045500002161134
 32
0
 13
-0.02868504088273
 23
0.045500002161134
 33
0
0
3DFACE
8
8
 62
8
 10
-0.0435000020661391
 20
0.0188425206551035
 30
0
 11
-0.045500002161134
 21
0.0188425206551035
 31
0
 12
-0.045500002161134
 22
0.045500002161134
 32
0
 13
-0.045500002161134
 23
0.045500002161134
 33
0
0
3DFACE
8
8
 62
8
 10
-0.0435000020661391
 20
0.0188425206551035
 30
0
 11
-0.045500002161134
 21
0.045500002161134
 31
0
 12
-0.02868504088273
 22
0.045500002161134
 32
0
 13
-0.02868504088273
 23
0.045500002161134
 33
0
0
3DFACE
8
8
 62
8
 10
-0.045500002161134
 20
-0.045500002161134
 30
0
 11
-0.02868504088273
 21
0.045500002161134
 31
0
 12
-0.02868504088273
 22
0.0435000020661391
 32
0
 13
-0.02868504088273
 23
0.0435000020661391
 33
0
0
3DFACE
8
8
 62
8
 10
-0.045500002161134
 20
-0.045500002161134
 30
0
 11
-0.02868504088273
 21
0.0435000020661391
 31
0
 12
0.02868504088273
 22
0.0435000020661391
 32
0
 13
0.02868504088273
 23
0.0435000020661391
 33
0
0
3DFACE
8
8
 62
8
 10
-0.045500002161134
 20
-0.045500002161134
 30
0
 11
0.02868504088273
 21
0.0435000020661391
 31
0
 12
0.045500002161134
 22
0.045500002161134
 32
0
 13
0.045500002161134
 23
0.045500002161134
 33
0
0
3DFACE
8
8
 62
8
 10
0.02868504088273
 20
0.0435000020661391
 30
0
 11
0.02868504088273
 21
0.045500002161134
 31
0
 12
0.045500002161134
 22
0.045500002161134
 32
0
 13
0.045500002161134
 23
0.045500002161134
 33
0
0
3DFACE
8
8
 62
8
 10
-0.045500002161134
 20
-0.045500002161134
 30
0
 11
0.045500002161134
 21
0.045500002161134
 31
0
 12
0.0435000020661391
 22
0.0188425206551035
 32
0
 13
0.0435000020661391
 23
0.0188425206551035
 33
0
0
3DFACE
8
8
 62
8
 10
0.045500002161134
 20
0.045500002161134
 30
0
 11
0.045500002161134
 21
0.0188425206551035
 31
0
 12
0.0435000020661391
 22
0.0188425206551035
 32
0
 13
0.0435000020661391
 23
0.0188425206551035
 33
0
0
3DFACE
8
8
 62
8
 10
-0.045500002161134
 20
-0.045500002161134
 30
0
 11
0.0435000020661391
 21
0.0188425206551035
 31
0
 12
0.0435000020661391
 22
-0.0188425206551035
 32
0
 13
0.0435000020661391
 23
-0.0188425206551035
 33
0
0
3DFACE
8
8
 62
8
 10
-0.045500002161134
 20
-0.045500002161134
 30
0
 11
0.0435000020661391
 21
-0.0188425206551035
 31
0
 12
0.045500002161134
 22
-0.0188425206551035
 32
0
 13
0.045500002161134
 23
-0.0188425206551035
 33
0
0
3DFACE
8
8
 62
8
 10
-0.045500002161134
 20
-0.045500002161134
 30
0
 11
0.045500002161134
 21
-0.0188425206551035
 31
0
 12
-0.02868504088273
 22
-0.0435000020661391
 32
0
 13
-0.02868504088273
 23
-0.0435000020661391
 33
0
0
3DFACE
8
8
 62
8
 10
0.045500002161134
 20
-0.0188425206551035
 30
0
 11
0.045500002161134
 21
-0.045500002161134
 31
0
 12
0.02868504088273
 22
-0.045500002161134
 32
0
 13
0.02868504088273
 23
-0.045500002161134
 33
0
0
3DFACE
8
8
 62
8
 10
0.045500002161134
 20
-0.0188425206551035
 30
0
 11
0.02868504088273
 21
-0.045500002161134
 31
0
 12
0.02868504088273
 22
-0.0435000020661391
 32
0
 13
0.02868504088273
 23
-0.0435000020661391
 33
0
0
3DFACE
8
8
 62
8
 10
0.045500002161134
 20
-0.0188425206551035
 30
0
 11
0.02868504088273
 21
-0.0435000020661391
 31
0
 12
-0.02868504088273
 22
-0.0435000020661391
 32
0
 13
-0.02868504088273
 23
-0.0435000020661391
 33
0
0
3DFACE
8
8
 62
8
 10
-0.045500002161134
 20
-0.045500002161134
 30
0
 11
-0.02868504088273
 21
-0.0435000020661391
 31
0
 12
-0.02868504088273
 22
-0.045500002161134
 32
0
 13
-0.02868504088273
 23
-0.045500002161134
 33
0
0
3DFACE
8
8
 62
8
 10
-0.045500002161134
 20
-0.045500002161134
 30
0.0320000015199184
 11
-0.045500002161134
 21
-0.0188425206551035
 31
0.0320000015199184
 12
-0.0435000020661391
 22
-0.0188425206551035
 32
0.0320000015199184
 13
-0.0435000020661391
 23
-0.0188425206551035
 33
0.0320000015199184
0
3DFACE
8
8
 62
8
 10
-0.045500002161134
 20
-0.045500002161134
 30
0.0320000015199184
 11
-0.0435000020661391
 21
-0.0188425206551035
 31
0.0320000015199184
 12
-0.02868504088273
 22
0.045500002161134
 32
0.0320000015199184
 13
-0.02868504088273
 23
0.045500002161134
 33
0.0320000015199184
0
3DFACE
8
8
 62
8
 10
-0.0435000020661391
 20
-0.0188425206551035
 30
0.0320000015199184
 11
-0.0435000020661391
 21
0.0188425206551035
 31
0.0320000015199184
 12
-0.02868504088273
 22
0.045500002161134
 32
0.0320000015199184
 13
-0.02868504088273
 23
0.045500002161134
 33
0.0320000015199184
0
3DFACE
8
8
 62
8
 10
-0.0435000020661391
 20
0.0188425206551035
 30
0.0320000015199184
 11
-0.045500002161134
 21
0.0188425206551035
 31
0.0320000015199184
 12
-0.045500002161134
 22
0.045500002161134
 32
0.0320000015199184
 13
-0.045500002161134
 23
0.045500002161134
 33
0.0320000015199184
0
3DFACE
8
8
 62
8
 10
-0.0435000020661391
 20
0.0188425206551035
 30
0.0320000015199184
 11
-0.045500002161134
 21
0.045500002161134
 31
0.0320000015199184
 12
-0.02868504088273
 22
0.045500002161134
 32
0.0320000015199184
 13
-0.02868504088273
 23
0.045500002161134
 33
0.0320000015199184
0
3DFACE
8
8
 62
8
 10
-0.045500002161134
 20
-0.045500002161134
 30
0.0320000015199184
 11
-0.02868504088273
 21
0.045500002161134
 31
0.0320000015199184
 12
-0.02868504088273
 22
0.0435000020661391
 32
0.0320000015199184
 13
-0.02868504088273
 23
0.0435000020661391
 33
0.0320000015199184
0
3DFACE
8
8
 62
8
 10
-0.045500002161134
 20
-0.045500002161134
 30
0.0320000015199184
 11
-0.02868504088273
 21
0.0435000020661391
 31
0.0320000015199184
 12
0.02868504088273
 22
0.0435000020661391
 32
0.0320000015199184
 13
0.02868504088273
 23
0.0435000020661391
 33
0.0320000015199184
0
3DFACE
8
8
 62
8
 10
-0.045500002161134
 20
-0.045500002161134
 30
0.0320000015199184
 11
0.02868504088273
 21
0.0435000020661391
 31
0.0320000015199184
 12
0.045500002161134
 22
0.045500002161134
 32
0.0320000015199184
 13
0.045500002161134
 23
0.045500002161134
 33
0.0320000015199184
0
3DFACE
8
8
 62
8
 10
0.02868504088273
 20
0.0435000020661391
 30
0.0320000015199184
 11
0.02868504088273
 21
0.045500002161134
 31
0.0320000015199184
 12
0.045500002161134
 22
0.045500002161134
 32
0.0320000015199184
 13
0.045500002161134
 23
0.045500002161134
 33
0.0320000015199184
0
3DFACE
8
8
 62
8
 10
-0.045500002161134
 20
-0.045500002161134
 30
0.0320000015199184
 11
0.045500002161134
 21
0.045500002161134
 31
0.0320000015199184
 12
0.0435000020661391
 22
0.0188425206551035
 32
0.0320000015199184
 13
0.0435000020661391
 23
0.0188425206551035
 33
0.0320000015199184
0
3DFACE
8
8
 62
8
 10
0.045500002161134
 20
0.045500002161134
 30
0.0320000015199184
 11
0.045500002161134
 21
0.0188425206551035
 31
0.0320000015199184
 12
0.0435000020661391
 22
0.0188425206551035
 32
0.0320000015199184
 13
0.0435000020661391
 23
0.0188425206551035
 33
0.0320000015199184
0
3DFACE
8
8
 62
8
 10
-0.045500002161134
 20
-0.045500002161134
 30
0.0320000015199184
 11
0.0435000020661391
 21
0.0188425206551035
 31
0.0320000015199184
 12
0.0435000020661391
 22
-0.0188425206551035
 32
0.0320000015199184
 13
0.0435000020661391
 23
-0.0188425206551035
 33
0.0320000015199184
0
3DFACE
8
8
 62
8
 10
-0.045500002161134
 20
-0.045500002161134
 30
0.0320000015199184
 11
0.0435000020661391
 21
-0.0188425206551035
 31
0.0320000015199184
 12
0.045500002161134
 22
-0.0188425206551035
 32
0.0320000015199184
 13
0.045500002161134
 23
-0.0188425206551035
 33
0.0320000015199184
0
3DFACE
8
8
 62
8
 10
-0.045500002161134
 20
-0.045500002161134
 30
0.0320000015199184
 11
0.045500002161134
 21
-0.0188425206551035
 31
0.0320000015199184
 12
-0.02868504088273
 22
-0.0435000020661391
 32
0.0320000015199184
 13
-0.02868504088273
 23
-0.0435000020661391
 33
0.0320000015199184
0
3DFACE
8
8
 62
8
 10
0.045500002161134
 20
-0.0188425206551035
 30
0.0320000015199184
 11
0.045500002161134
 21
-0.045500002161134
 31
0.0320000015199184
 12
0.02868504088273
 22
-0.045500002161134
 32
0.0320000015199184
 13
0.02868504088273
 23
-0.045500002161134
 33
0.0320000015199184
0
3DFACE
8
8
 62
8
 10
0.045500002161134
 20
-0.0188425206551035
 30
0.0320000015199184
 11
0.02868504088273
 21
-0.045500002161134
 31
0.0320000015199184
 12
0.02868504088273
 22
-0.0435000020661391
 32
0.0320000015199184
 13
0.02868504088273
 23
-0.0435000020661391
 33
0.0320000015199184
0
3DFACE
8
8
 62
8
 10
0.045500002161134
 20
-0.0188425206551035
 30
0.0320000015199184
 11
0.02868504088273
 21
-0.0435000020661391
 31
0.0320000015199184
 12
-0.02868504088273
 22
-0.0435000020661391
 32
0.0320000015199184
 13
-0.02868504088273
 23
-0.0435000020661391
 33
0.0320000015199184
0
3DFACE
8
8
 62
8
 10
-0.045500002161134
 20
-0.045500002161134
 30
0.0320000015199184
 11
-0.02868504088273
 21
-0.0435000020661391
 31
0.0320000015199184
 12
-0.02868504088273
 22
-0.045500002161134
 32
0.0320000015199184
 13
-0.02868504088273
 23
-0.045500002161134
 33
0.0320000015199184
0
3DFACE
8
8
 62
8
 10
-0.02868504088273
 20
-0.045500002161134
 30
0
 11
-0.045500002161134
 21
-0.045500002161134
 31
0
 12
-0.045500002161134
 22
-0.045500002161134
 32
0.0320000015199184
 13
-0.02868504088273
 23
-0.045500002161134
 33
0.0320000015199184
0
3DFACE
8
8
 62
8
 10
-0.045500002161134
 20
-0.045500002161134
 30
0
 11
-0.045500002161134
 21
-0.0188425206551035
 31
0
 12
-0.045500002161134
 22
-0.0188425206551035
 32
0.0320000015199184
 13
-0.045500002161134
 23
-0.045500002161134
 33
0.0320000015199184
0
3DFACE
8
8
 62
8
 10
-0.045500002161134
 20
-0.0188425206551035
 30
0
 11
-0.0435000020661391
 21
-0.0188425206551035
 31
0
 12
-0.0435000020661391
 22
-0.0188425206551035
 32
0.0320000015199184
 13
-0.045500002161134
 23
-0.0188425206551035
 33
0.0320000015199184
0
3DFACE
8
8
 62
8
 10
-0.0435000020661391
 20
-0.0188425206551035
 30
0
 11
-0.0435000020661391
 21
0.0188425206551035
 31
0
 12
-0.0435000020661391
 22
0.0188425206551035
 32
0.0320000015199184
 13
-0.0435000020661391
 23
-0.0188425206551035
 33
0.0320000015199184
0
3DFACE
8
8
 62
8
 10
-0.0435000020661391
 20
0.0188425206551035
 30
0
 11
-0.045500002161134
 21
0.0188425206551035
 31
0
 12
-0.045500002161134
 22
0.0188425206551035
 32
0.0320000015199184
 13
-0.0435000020661391
 23
0.0188425206551035
 33
0.0320000015199184
0
3DFACE
8
8
 62
8
 10
-0.045500002161134
 20
0.0188425206551035
 30
0
 11
-0.045500002161134
 21
0.045500002161134
 31
0
 12
-0.045500002161134
 22
0.045500002161134
 32
0.0320000015199184
 13
-0.045500002161134
 23
0.0188425206551035
 33
0.0320000015199184
0
3DFACE
8
8
 62
8
 10
-0.045500002161134
 20
0.045500002161134
 30
0
 11
-0.02868504088273
 21
0.045500002161134
 31
0
 12
-0.02868504088273
 22
0.045500002161134
 32
0.0320000015199184
 13
-0.045500002161134
 23
0.045500002161134
 33
0.0320000015199184
0
3DFACE
8
8
 62
8
 10
-0.02868504088273
 20
0.045500002161134
 30
0
 11
-0.02868504088273
 21
0.0435000020661391
 31
0
 12
-0.02868504088273
 22
0.0435000020661391
 32
0.0320000015199184
 13
-0.02868504088273
 23
0.045500002161134
 33
0.0320000015199184
0
3DFACE
8
8
 62
8
 10
-0.02868504088273
 20
0.0435000020661391
 30
0
 11
0.02868504088273
 21
0.0435000020661391
 31
0
 12
0.02868504088273
 22
0.0435000020661391
 32
0.0320000015199184
 13
-0.02868504088273
 23
0.0435000020661391
 33
0.0320000015199184
0
3DFACE
8
8
 62
8
 10
0.02868504088273
 20
0.0435000020661391
 30
0
 11
0.02868504088273
 21
0.045500002161134
 31
0
 12
0.02868504088273
 22
0.045500002161134
 32
0.0320000015199184
 13
0.02868504088273
 23
0.0435000020661391
 33
0.0320000015199184
0
3DFACE
8
8
 62
8
 10
0.02868504088273
 20
0.045500002161134
 30
0
 11
0.045500002161134
 21
0.045500002161134
 31
0
 12
0.045500002161134
 22
0.045500002161134
 32
0.0320000015199184
 13
0.02868504088273
 23
0.045500002161134
 33
0.0320000015199184
0
3DFACE
8
8
 62
8
 10
0.045500002161134
 20
0.045500002161134
 30
0
 11
0.045500002161134
 21
0.0188425206551035
 31
0
 12
0.045500002161134
 22
0.0188425206551035
 32
0.0320000015199184
 13
0.045500002161134
 23
0.045500002161134
 33
0.0320000015199184
0
3DFACE
8
8
 62
8
 10
0.045500002161134
 20
0.0188425206551035
 30
0
 11
0.0435000020661391
 21
0.0188425206551035
 31
0
 12
0.0435000020661391
 22
0.0188425206551035
 32
0.0320000015199184
 13
0.045500002161134
 23
0.0188425206551035
 33
0.0320000015199184
0
3DFACE
8
8
 62
8
 10
0.0435000020661391
 20
0.0188425206551035
 30
0
 11
0.0435000020661391
 21
-0.0188425206551035
 31
0
 12
0.0435000020661391
 22
-0.0188425206551035
 32
0.0320000015199184
 13
0.0435000020661391
 23
0.0188425206551035
 33
0.0320000015199184
0
3DFACE
8
8
 62
8
 10
0.0435000020661391
 20
-0.0188425206551035
 30
0
 11
0.045500002161134
 21
-0.0188425206551035
 31
0
 12
0.045500002161134
 22
-0.0188425206551035
 32
0.0320000015199184
 13
0.0435000020661391
 23
-0.0188425206551035
 33
0.0320000015199184
0
3DFACE
8
8
 62
8
 10
0.045500002161134
 20
-0.0188425206551035
 30
0
 11
0.045500002161134
 21
-0.045500002161134
 31
0
 12
0.045500002161134
 22
-0.045500002161134
 32
0.0320000015199184
 13
0.045500002161134
 23
-0.0188425206551035
 33
0.0320000015199184
0
3DFACE
8
8
 62
8
 10
0.045500002161134
 20
-0.045500002161134
 30
0
 11
0.02868504088273
 21
-0.045500002161134
 31
0
 12
0.02868504088273
 22
-0.045500002161134
 32
0.0320000015199184
 13
0.045500002161134
 23
-0.045500002161134
 33
0.0320000015199184
0
3DFACE
8
8
 62
8
 10
0.02868504088273
 20
-0.045500002161134
 30
0
 11
0.02868504088273
 21
-0.0435000020661391
 31
0
 12
0.02868504088273
 22
-0.0435000020661391
 32
0.0320000015199184
 13
0.02868504088273
 23
-0.045500002161134
 33
0.0320000015199184
0
3DFACE
8
8
 62
8
 10
0.02868504088273
 20
-0.0435000020661391
 30
0
 11
-0.02868504088273
 21
-0.0435000020661391
 31
0
 12
-0.02868504088273
 22
-0.0435000020661391
 32
0.0320000015199184
 13
0.02868504088273
 23
-0.0435000020661391
 33
0.0320000015199184
0
3DFACE
8
8
 62
8
 10
-0.02868504088273
 20
-0.0435000020661391
 30
0
 11
-0.02868504088273
 21
-0.045500002161134
 31
0
 12
-0.02868504088273
 22
-0.045500002161134
 32
0.0320000015199184
 13
-0.02868504088273
 23
-0.0435000020661391
 33
0.0320000015199184
 0
ENDBLK
 0
BLOCK
 70
0
 2
TOP_VALOR_Polygon_144
 10
0
 20
0
 30
0
0
3DFACE
8
23
 62
23
 10
-0.0584330739118966
 20
-0.0584330739118966
 30
0
 11
-0.0584330739118966
 21
0.0584330739118966
 31
0
 12
0.0584330739118966
 22
0.0584330739118966
 32
0
 13
0.0584330739118966
 23
-0.0584330739118966
 33
0
0
3DFACE
8
23
 62
23
 10
-0.0584330739118966
 20
-0.0584330739118966
 30
0.0320000015199184
 11
-0.0584330739118966
 21
0.0584330739118966
 31
0.0320000015199184
 12
0.0584330739118966
 22
0.0584330739118966
 32
0.0320000015199184
 13
0.0584330739118966
 23
-0.0584330739118966
 33
0.0320000015199184
0
3DFACE
8
23
 62
23
 10
0.0584330739118966
 20
-0.0584330739118966
 30
0
 11
-0.0584330739118966
 21
-0.0584330739118966
 31
0
 12
-0.0584330739118966
 22
-0.0584330739118966
 32
0.0320000015199184
 13
0.0584330739118966
 23
-0.0584330739118966
 33
0.0320000015199184
0
3DFACE
8
23
 62
23
 10
-0.0584330739118966
 20
-0.0584330739118966
 30
0
 11
-0.0584330739118966
 21
0.0584330739118966
 31
0
 12
-0.0584330739118966
 22
0.0584330739118966
 32
0.0320000015199184
 13
-0.0584330739118966
 23
-0.0584330739118966
 33
0.0320000015199184
0
3DFACE
8
23
 62
23
 10
-0.0584330739118966
 20
0.0584330739118966
 30
0
 11
0.0584330739118966
 21
0.0584330739118966
 31
0
 12
0.0584330739118966
 22
0.0584330739118966
 32
0.0320000015199184
 13
-0.0584330739118966
 23
0.0584330739118966
 33
0.0320000015199184
0
3DFACE
8
23
 62
23
 10
0.0584330739118966
 20
0.0584330739118966
 30
0
 11
0.0584330739118966
 21
-0.0584330739118966
 31
0
 12
0.0584330739118966
 22
-0.0584330739118966
 32
0.0320000015199184
 13
0.0584330739118966
 23
0.0584330739118966
 33
0.0320000015199184
 0
ENDBLK
0
ENDSEC
0
SECTION
2
ENTITIES
 0
INSERT
 8
2
 2
TOP_SILKSCREEN_Polygon_83
 10
0
 20
0
 30
0
 41
1
 42
1
 43
1
 0
INSERT
 8
8
 2
TOP_PLACE_BOUND_Polygon_117
 10
0
 20
0
 30
0
 41
1
 42
1
 43
1
 0
INSERT
 8
23
 2
TOP_VALOR_Polygon_144
 10
0
 20
0
 30
0
 41
1
 42
1
 43
1
0
ENDSEC
 0
EOF

