 999
VISION3D DXF
0
SECTION
2
HEADER
0
ENDSEC
0
SECTION
2
TABLES
0
ENDSEC
0
SECTION
2
BLOCKS
 0
BLOCK
 70
0
 2
TOP_SILKSCREEN_Polygon_83
 10
0
 20
0
 30
0
0
3DFACE
8
2
 62
2
 10
-0.0271850012912182
 20
0.0454331021579565
 30
0
 11
-0.0271850012912182
 21
0.055433102632931
 31
0
 12
-0.0121850005787564
 22
0.055433102632931
 32
0
 13
-0.0121850005787564
 23
0.0454331021579565
 33
0
0
3DFACE
8
2
 62
2
 10
-0.0271850012912182
 20
0.0454331021579565
 30
0.0320000015199184
 11
-0.0271850012912182
 21
0.055433102632931
 31
0.0320000015199184
 12
-0.0121850005787564
 22
0.055433102632931
 32
0.0320000015199184
 13
-0.0121850005787564
 23
0.0454331021579565
 33
0.0320000015199184
0
3DFACE
8
2
 62
2
 10
-0.0121850005787564
 20
0.0454331021579565
 30
0
 11
-0.0271850012912182
 21
0.0454331021579565
 31
0
 12
-0.0271850012912182
 22
0.0454331021579565
 32
0.0320000015199184
 13
-0.0121850005787564
 23
0.0454331021579565
 33
0.0320000015199184
0
3DFACE
8
2
 62
2
 10
-0.0271850012912182
 20
0.0454331021579565
 30
0
 11
-0.0271850012912182
 21
0.055433102632931
 31
0
 12
-0.0271850012912182
 22
0.055433102632931
 32
0.0320000015199184
 13
-0.0271850012912182
 23
0.0454331021579565
 33
0.0320000015199184
0
3DFACE
8
2
 62
2
 10
-0.0271850012912182
 20
0.055433102632931
 30
0
 11
-0.0121850005787564
 21
0.055433102632931
 31
0
 12
-0.0121850005787564
 22
0.055433102632931
 32
0.0320000015199184
 13
-0.0271850012912182
 23
0.055433102632931
 33
0.0320000015199184
0
3DFACE
8
2
 62
2
 10
-0.0121850005787564
 20
0.055433102632931
 30
0
 11
-0.0121850005787564
 21
0.0454331021579565
 31
0
 12
-0.0121850005787564
 22
0.0454331021579565
 32
0.0320000015199184
 13
-0.0121850005787564
 23
0.055433102632931
 33
0.0320000015199184
 0
ENDBLK
 0
BLOCK
 70
0
 2
TOP_PLACE_BOUND_Polygon_117
 10
0
 20
0
 30
0
0
3DFACE
8
8
 62
8
 10
-0.0515000024461187
 20
-0.0515000024461187
 30
0
 11
-0.0515000024461187
 21
-0.0248425209400882
 31
0
 12
-0.0515000024461187
 22
-0.0248425209400882
 32
0
 13
-0.0515000024461187
 23
-0.0248425209400882
 33
0
0
3DFACE
8
8
 62
8
 10
-0.0515000024461187
 20
-0.0515000024461187
 30
0
 11
-0.0515000024461187
 21
-0.0248425209400882
 31
0
 12
-0.0346850411677147
 22
0.0515000024461187
 32
0
 13
-0.0346850411677147
 23
0.0515000024461187
 33
0
0
3DFACE
8
8
 62
8
 10
-0.0515000024461187
 20
-0.0248425209400882
 30
0
 11
-0.0515000024461187
 21
0.0248425209400882
 31
0
 12
-0.0515000024461187
 22
0.0248425209400882
 32
0
 13
-0.0515000024461187
 23
0.0248425209400882
 33
0
0
3DFACE
8
8
 62
8
 10
-0.0515000024461187
 20
-0.0248425209400882
 30
0
 11
-0.0515000024461187
 21
0.0248425209400882
 31
0
 12
-0.0346850411677147
 22
0.0515000024461187
 32
0
 13
-0.0346850411677147
 23
0.0515000024461187
 33
0
0
3DFACE
8
8
 62
8
 10
-0.0515000024461187
 20
0.0248425209400882
 30
0
 11
-0.0515000024461187
 21
0.0515000024461187
 31
0
 12
-0.0346850411677147
 22
0.0515000024461187
 32
0
 13
-0.0346850411677147
 23
0.0515000024461187
 33
0
0
3DFACE
8
8
 62
8
 10
-0.0515000024461187
 20
-0.0248425209400882
 30
0
 11
-0.0346850411677147
 21
0.0515000024461187
 31
0
 12
-0.0346850411677147
 22
0.0515000024461187
 32
0
 13
-0.0346850411677147
 23
0.0515000024461187
 33
0
0
3DFACE
8
8
 62
8
 10
-0.0515000024461187
 20
-0.0515000024461187
 30
0
 11
-0.0346850411677147
 21
0.0515000024461187
 31
0
 12
0.0346850411677147
 22
0.0515000024461187
 32
0
 13
0.0346850411677147
 23
0.0515000024461187
 33
0
0
3DFACE
8
8
 62
8
 10
-0.0346850411677147
 20
0.0515000024461187
 30
0
 11
0.0346850411677147
 21
0.0515000024461187
 31
0
 12
0.0346850411677147
 22
0.0515000024461187
 32
0
 13
0.0346850411677147
 23
0.0515000024461187
 33
0
0
3DFACE
8
8
 62
8
 10
-0.0515000024461187
 20
-0.0515000024461187
 30
0
 11
0.0346850411677147
 21
0.0515000024461187
 31
0
 12
0.0515000024461187
 22
0.0515000024461187
 32
0
 13
0.0515000024461187
 23
0.0515000024461187
 33
0
0
3DFACE
8
8
 62
8
 10
-0.0515000024461187
 20
-0.0515000024461187
 30
0
 11
0.0515000024461187
 21
0.0515000024461187
 31
0
 12
0.0515000024461187
 22
0.0248425209400882
 32
0
 13
0.0515000024461187
 23
0.0248425209400882
 33
0
0
3DFACE
8
8
 62
8
 10
0.0515000024461187
 20
0.0515000024461187
 30
0
 11
0.0515000024461187
 21
0.0248425209400882
 31
0
 12
0.0515000024461187
 22
0.0248425209400882
 32
0
 13
0.0515000024461187
 23
0.0248425209400882
 33
0
0
3DFACE
8
8
 62
8
 10
-0.0515000024461187
 20
-0.0515000024461187
 30
0
 11
0.0515000024461187
 21
0.0248425209400882
 31
0
 12
0.0515000024461187
 22
-0.0248425209400882
 32
0
 13
0.0515000024461187
 23
-0.0248425209400882
 33
0
0
3DFACE
8
8
 62
8
 10
0.0515000024461187
 20
0.0248425209400882
 30
0
 11
0.0515000024461187
 21
-0.0248425209400882
 31
0
 12
0.0515000024461187
 22
-0.0248425209400882
 32
0
 13
0.0515000024461187
 23
-0.0248425209400882
 33
0
0
3DFACE
8
8
 62
8
 10
-0.0515000024461187
 20
-0.0515000024461187
 30
0
 11
0.0515000024461187
 21
-0.0248425209400882
 31
0
 12
-0.0346850411677147
 22
-0.0515000024461187
 32
0
 13
-0.0346850411677147
 23
-0.0515000024461187
 33
0
0
3DFACE
8
8
 62
8
 10
0.0515000024461187
 20
-0.0248425209400882
 30
0
 11
0.0515000024461187
 21
-0.0515000024461187
 31
0
 12
0.0346850411677147
 22
-0.0515000024461187
 32
0
 13
0.0346850411677147
 23
-0.0515000024461187
 33
0
0
3DFACE
8
8
 62
8
 10
0.0515000024461187
 20
-0.0515000024461187
 30
0
 11
0.0346850411677147
 21
-0.0515000024461187
 31
0
 12
0.0346850411677147
 22
-0.0515000024461187
 32
0
 13
0.0346850411677147
 23
-0.0515000024461187
 33
0
0
3DFACE
8
8
 62
8
 10
0.0515000024461187
 20
-0.0248425209400882
 30
0
 11
0.0346850411677147
 21
-0.0515000024461187
 31
0
 12
-0.0346850411677147
 22
-0.0515000024461187
 32
0
 13
-0.0346850411677147
 23
-0.0515000024461187
 33
0
0
3DFACE
8
8
 62
8
 10
-0.0515000024461187
 20
-0.0515000024461187
 30
0
 11
-0.0346850411677147
 21
-0.0515000024461187
 31
0
 12
-0.0346850411677147
 22
-0.0515000024461187
 32
0
 13
-0.0346850411677147
 23
-0.0515000024461187
 33
0
0
3DFACE
8
8
 62
8
 10
-0.0515000024461187
 20
-0.0515000024461187
 30
0.0320000015199184
 11
-0.0515000024461187
 21
-0.0248425209400882
 31
0.0320000015199184
 12
-0.0515000024461187
 22
-0.0248425209400882
 32
0.0320000015199184
 13
-0.0515000024461187
 23
-0.0248425209400882
 33
0.0320000015199184
0
3DFACE
8
8
 62
8
 10
-0.0515000024461187
 20
-0.0515000024461187
 30
0.0320000015199184
 11
-0.0515000024461187
 21
-0.0248425209400882
 31
0.0320000015199184
 12
-0.0346850411677147
 22
0.0515000024461187
 32
0.0320000015199184
 13
-0.0346850411677147
 23
0.0515000024461187
 33
0.0320000015199184
0
3DFACE
8
8
 62
8
 10
-0.0515000024461187
 20
-0.0248425209400882
 30
0.0320000015199184
 11
-0.0515000024461187
 21
0.0248425209400882
 31
0.0320000015199184
 12
-0.0515000024461187
 22
0.0248425209400882
 32
0.0320000015199184
 13
-0.0515000024461187
 23
0.0248425209400882
 33
0.0320000015199184
0
3DFACE
8
8
 62
8
 10
-0.0515000024461187
 20
-0.0248425209400882
 30
0.0320000015199184
 11
-0.0515000024461187
 21
0.0248425209400882
 31
0.0320000015199184
 12
-0.0346850411677147
 22
0.0515000024461187
 32
0.0320000015199184
 13
-0.0346850411677147
 23
0.0515000024461187
 33
0.0320000015199184
0
3DFACE
8
8
 62
8
 10
-0.0515000024461187
 20
0.0248425209400882
 30
0.0320000015199184
 11
-0.0515000024461187
 21
0.0515000024461187
 31
0.0320000015199184
 12
-0.0346850411677147
 22
0.0515000024461187
 32
0.0320000015199184
 13
-0.0346850411677147
 23
0.0515000024461187
 33
0.0320000015199184
0
3DFACE
8
8
 62
8
 10
-0.0515000024461187
 20
-0.0248425209400882
 30
0.0320000015199184
 11
-0.0346850411677147
 21
0.0515000024461187
 31
0.0320000015199184
 12
-0.0346850411677147
 22
0.0515000024461187
 32
0.0320000015199184
 13
-0.0346850411677147
 23
0.0515000024461187
 33
0.0320000015199184
0
3DFACE
8
8
 62
8
 10
-0.0515000024461187
 20
-0.0515000024461187
 30
0.0320000015199184
 11
-0.0346850411677147
 21
0.0515000024461187
 31
0.0320000015199184
 12
0.0346850411677147
 22
0.0515000024461187
 32
0.0320000015199184
 13
0.0346850411677147
 23
0.0515000024461187
 33
0.0320000015199184
0
3DFACE
8
8
 62
8
 10
-0.0346850411677147
 20
0.0515000024461187
 30
0.0320000015199184
 11
0.0346850411677147
 21
0.0515000024461187
 31
0.0320000015199184
 12
0.0346850411677147
 22
0.0515000024461187
 32
0.0320000015199184
 13
0.0346850411677147
 23
0.0515000024461187
 33
0.0320000015199184
0
3DFACE
8
8
 62
8
 10
-0.0515000024461187
 20
-0.0515000024461187
 30
0.0320000015199184
 11
0.0346850411677147
 21
0.0515000024461187
 31
0.0320000015199184
 12
0.0515000024461187
 22
0.0515000024461187
 32
0.0320000015199184
 13
0.0515000024461187
 23
0.0515000024461187
 33
0.0320000015199184
0
3DFACE
8
8
 62
8
 10
-0.0515000024461187
 20
-0.0515000024461187
 30
0.0320000015199184
 11
0.0515000024461187
 21
0.0515000024461187
 31
0.0320000015199184
 12
0.0515000024461187
 22
0.0248425209400882
 32
0.0320000015199184
 13
0.0515000024461187
 23
0.0248425209400882
 33
0.0320000015199184
0
3DFACE
8
8
 62
8
 10
0.0515000024461187
 20
0.0515000024461187
 30
0.0320000015199184
 11
0.0515000024461187
 21
0.0248425209400882
 31
0.0320000015199184
 12
0.0515000024461187
 22
0.0248425209400882
 32
0.0320000015199184
 13
0.0515000024461187
 23
0.0248425209400882
 33
0.0320000015199184
0
3DFACE
8
8
 62
8
 10
-0.0515000024461187
 20
-0.0515000024461187
 30
0.0320000015199184
 11
0.0515000024461187
 21
0.0248425209400882
 31
0.0320000015199184
 12
0.0515000024461187
 22
-0.0248425209400882
 32
0.0320000015199184
 13
0.0515000024461187
 23
-0.0248425209400882
 33
0.0320000015199184
0
3DFACE
8
8
 62
8
 10
0.0515000024461187
 20
0.0248425209400882
 30
0.0320000015199184
 11
0.0515000024461187
 21
-0.0248425209400882
 31
0.0320000015199184
 12
0.0515000024461187
 22
-0.0248425209400882
 32
0.0320000015199184
 13
0.0515000024461187
 23
-0.0248425209400882
 33
0.0320000015199184
0
3DFACE
8
8
 62
8
 10
-0.0515000024461187
 20
-0.0515000024461187
 30
0.0320000015199184
 11
0.0515000024461187
 21
-0.0248425209400882
 31
0.0320000015199184
 12
-0.0346850411677147
 22
-0.0515000024461187
 32
0.0320000015199184
 13
-0.0346850411677147
 23
-0.0515000024461187
 33
0.0320000015199184
0
3DFACE
8
8
 62
8
 10
0.0515000024461187
 20
-0.0248425209400882
 30
0.0320000015199184
 11
0.0515000024461187
 21
-0.0515000024461187
 31
0.0320000015199184
 12
0.0346850411677147
 22
-0.0515000024461187
 32
0.0320000015199184
 13
0.0346850411677147
 23
-0.0515000024461187
 33
0.0320000015199184
0
3DFACE
8
8
 62
8
 10
0.0515000024461187
 20
-0.0515000024461187
 30
0.0320000015199184
 11
0.0346850411677147
 21
-0.0515000024461187
 31
0.0320000015199184
 12
0.0346850411677147
 22
-0.0515000024461187
 32
0.0320000015199184
 13
0.0346850411677147
 23
-0.0515000024461187
 33
0.0320000015199184
0
3DFACE
8
8
 62
8
 10
0.0515000024461187
 20
-0.0248425209400882
 30
0.0320000015199184
 11
0.0346850411677147
 21
-0.0515000024461187
 31
0.0320000015199184
 12
-0.0346850411677147
 22
-0.0515000024461187
 32
0.0320000015199184
 13
-0.0346850411677147
 23
-0.0515000024461187
 33
0.0320000015199184
0
3DFACE
8
8
 62
8
 10
-0.0515000024461187
 20
-0.0515000024461187
 30
0.0320000015199184
 11
-0.0346850411677147
 21
-0.0515000024461187
 31
0.0320000015199184
 12
-0.0346850411677147
 22
-0.0515000024461187
 32
0.0320000015199184
 13
-0.0346850411677147
 23
-0.0515000024461187
 33
0.0320000015199184
0
3DFACE
8
8
 62
8
 10
-0.0346850411677147
 20
-0.0515000024461187
 30
0
 11
-0.0515000024461187
 21
-0.0515000024461187
 31
0
 12
-0.0515000024461187
 22
-0.0515000024461187
 32
0.0320000015199184
 13
-0.0346850411677147
 23
-0.0515000024461187
 33
0.0320000015199184
0
3DFACE
8
8
 62
8
 10
-0.0515000024461187
 20
-0.0515000024461187
 30
0
 11
-0.0515000024461187
 21
-0.0248425209400882
 31
0
 12
-0.0515000024461187
 22
-0.0248425209400882
 32
0.0320000015199184
 13
-0.0515000024461187
 23
-0.0515000024461187
 33
0.0320000015199184
0
3DFACE
8
8
 62
8
 10
-0.0515000024461187
 20
-0.0248425209400882
 30
0
 11
-0.0515000024461187
 21
-0.0248425209400882
 31
0
 12
-0.0515000024461187
 22
-0.0248425209400882
 32
0.0320000015199184
 13
-0.0515000024461187
 23
-0.0248425209400882
 33
0.0320000015199184
0
3DFACE
8
8
 62
8
 10
-0.0515000024461187
 20
-0.0248425209400882
 30
0
 11
-0.0515000024461187
 21
0.0248425209400882
 31
0
 12
-0.0515000024461187
 22
0.0248425209400882
 32
0.0320000015199184
 13
-0.0515000024461187
 23
-0.0248425209400882
 33
0.0320000015199184
0
3DFACE
8
8
 62
8
 10
-0.0515000024461187
 20
0.0248425209400882
 30
0
 11
-0.0515000024461187
 21
0.0248425209400882
 31
0
 12
-0.0515000024461187
 22
0.0248425209400882
 32
0.0320000015199184
 13
-0.0515000024461187
 23
0.0248425209400882
 33
0.0320000015199184
0
3DFACE
8
8
 62
8
 10
-0.0515000024461187
 20
0.0248425209400882
 30
0
 11
-0.0515000024461187
 21
0.0515000024461187
 31
0
 12
-0.0515000024461187
 22
0.0515000024461187
 32
0.0320000015199184
 13
-0.0515000024461187
 23
0.0248425209400882
 33
0.0320000015199184
0
3DFACE
8
8
 62
8
 10
-0.0515000024461187
 20
0.0515000024461187
 30
0
 11
-0.0346850411677147
 21
0.0515000024461187
 31
0
 12
-0.0346850411677147
 22
0.0515000024461187
 32
0.0320000015199184
 13
-0.0515000024461187
 23
0.0515000024461187
 33
0.0320000015199184
0
3DFACE
8
8
 62
8
 10
-0.0346850411677147
 20
0.0515000024461187
 30
0
 11
-0.0346850411677147
 21
0.0515000024461187
 31
0
 12
-0.0346850411677147
 22
0.0515000024461187
 32
0.0320000015199184
 13
-0.0346850411677147
 23
0.0515000024461187
 33
0.0320000015199184
0
3DFACE
8
8
 62
8
 10
-0.0346850411677147
 20
0.0515000024461187
 30
0
 11
0.0346850411677147
 21
0.0515000024461187
 31
0
 12
0.0346850411677147
 22
0.0515000024461187
 32
0.0320000015199184
 13
-0.0346850411677147
 23
0.0515000024461187
 33
0.0320000015199184
0
3DFACE
8
8
 62
8
 10
0.0346850411677147
 20
0.0515000024461187
 30
0
 11
0.0346850411677147
 21
0.0515000024461187
 31
0
 12
0.0346850411677147
 22
0.0515000024461187
 32
0.0320000015199184
 13
0.0346850411677147
 23
0.0515000024461187
 33
0.0320000015199184
0
3DFACE
8
8
 62
8
 10
0.0346850411677147
 20
0.0515000024461187
 30
0
 11
0.0515000024461187
 21
0.0515000024461187
 31
0
 12
0.0515000024461187
 22
0.0515000024461187
 32
0.0320000015199184
 13
0.0346850411677147
 23
0.0515000024461187
 33
0.0320000015199184
0
3DFACE
8
8
 62
8
 10
0.0515000024461187
 20
0.0515000024461187
 30
0
 11
0.0515000024461187
 21
0.0248425209400882
 31
0
 12
0.0515000024461187
 22
0.0248425209400882
 32
0.0320000015199184
 13
0.0515000024461187
 23
0.0515000024461187
 33
0.0320000015199184
0
3DFACE
8
8
 62
8
 10
0.0515000024461187
 20
0.0248425209400882
 30
0
 11
0.0515000024461187
 21
0.0248425209400882
 31
0
 12
0.0515000024461187
 22
0.0248425209400882
 32
0.0320000015199184
 13
0.0515000024461187
 23
0.0248425209400882
 33
0.0320000015199184
0
3DFACE
8
8
 62
8
 10
0.0515000024461187
 20
0.0248425209400882
 30
0
 11
0.0515000024461187
 21
-0.0248425209400882
 31
0
 12
0.0515000024461187
 22
-0.0248425209400882
 32
0.0320000015199184
 13
0.0515000024461187
 23
0.0248425209400882
 33
0.0320000015199184
0
3DFACE
8
8
 62
8
 10
0.0515000024461187
 20
-0.0248425209400882
 30
0
 11
0.0515000024461187
 21
-0.0248425209400882
 31
0
 12
0.0515000024461187
 22
-0.0248425209400882
 32
0.0320000015199184
 13
0.0515000024461187
 23
-0.0248425209400882
 33
0.0320000015199184
0
3DFACE
8
8
 62
8
 10
0.0515000024461187
 20
-0.0248425209400882
 30
0
 11
0.0515000024461187
 21
-0.0515000024461187
 31
0
 12
0.0515000024461187
 22
-0.0515000024461187
 32
0.0320000015199184
 13
0.0515000024461187
 23
-0.0248425209400882
 33
0.0320000015199184
0
3DFACE
8
8
 62
8
 10
0.0515000024461187
 20
-0.0515000024461187
 30
0
 11
0.0346850411677147
 21
-0.0515000024461187
 31
0
 12
0.0346850411677147
 22
-0.0515000024461187
 32
0.0320000015199184
 13
0.0515000024461187
 23
-0.0515000024461187
 33
0.0320000015199184
0
3DFACE
8
8
 62
8
 10
0.0346850411677147
 20
-0.0515000024461187
 30
0
 11
0.0346850411677147
 21
-0.0515000024461187
 31
0
 12
0.0346850411677147
 22
-0.0515000024461187
 32
0.0320000015199184
 13
0.0346850411677147
 23
-0.0515000024461187
 33
0.0320000015199184
0
3DFACE
8
8
 62
8
 10
0.0346850411677147
 20
-0.0515000024461187
 30
0
 11
-0.0346850411677147
 21
-0.0515000024461187
 31
0
 12
-0.0346850411677147
 22
-0.0515000024461187
 32
0.0320000015199184
 13
0.0346850411677147
 23
-0.0515000024461187
 33
0.0320000015199184
0
3DFACE
8
8
 62
8
 10
-0.0346850411677147
 20
-0.0515000024461187
 30
0
 11
-0.0346850411677147
 21
-0.0515000024461187
 31
0
 12
-0.0346850411677147
 22
-0.0515000024461187
 32
0.0320000015199184
 13
-0.0346850411677147
 23
-0.0515000024461187
 33
0.0320000015199184
 0
ENDBLK
 0
BLOCK
 70
0
 2
TOP_VALOR_Polygon_144
 10
0
 20
0
 30
0
0
3DFACE
8
23
 62
23
 10
-0.0604330740068915
 20
-0.0604330740068915
 30
0
 11
-0.0604330740068915
 21
0.0604330740068915
 31
0
 12
0.0604330740068915
 22
0.0604330740068915
 32
0
 13
0.0604330740068915
 23
-0.0604330740068915
 33
0
0
3DFACE
8
23
 62
23
 10
-0.0604330740068915
 20
-0.0604330740068915
 30
0.0320000015199184
 11
-0.0604330740068915
 21
0.0604330740068915
 31
0.0320000015199184
 12
0.0604330740068915
 22
0.0604330740068915
 32
0.0320000015199184
 13
0.0604330740068915
 23
-0.0604330740068915
 33
0.0320000015199184
0
3DFACE
8
23
 62
23
 10
0.0604330740068915
 20
-0.0604330740068915
 30
0
 11
-0.0604330740068915
 21
-0.0604330740068915
 31
0
 12
-0.0604330740068915
 22
-0.0604330740068915
 32
0.0320000015199184
 13
0.0604330740068915
 23
-0.0604330740068915
 33
0.0320000015199184
0
3DFACE
8
23
 62
23
 10
-0.0604330740068915
 20
-0.0604330740068915
 30
0
 11
-0.0604330740068915
 21
0.0604330740068915
 31
0
 12
-0.0604330740068915
 22
0.0604330740068915
 32
0.0320000015199184
 13
-0.0604330740068915
 23
-0.0604330740068915
 33
0.0320000015199184
0
3DFACE
8
23
 62
23
 10
-0.0604330740068915
 20
0.0604330740068915
 30
0
 11
0.0604330740068915
 21
0.0604330740068915
 31
0
 12
0.0604330740068915
 22
0.0604330740068915
 32
0.0320000015199184
 13
-0.0604330740068915
 23
0.0604330740068915
 33
0.0320000015199184
0
3DFACE
8
23
 62
23
 10
0.0604330740068915
 20
0.0604330740068915
 30
0
 11
0.0604330740068915
 21
-0.0604330740068915
 31
0
 12
0.0604330740068915
 22
-0.0604330740068915
 32
0.0320000015199184
 13
0.0604330740068915
 23
0.0604330740068915
 33
0.0320000015199184
 0
ENDBLK
0
ENDSEC
0
SECTION
2
ENTITIES
 0
INSERT
 8
2
 2
TOP_SILKSCREEN_Polygon_83
 10
0
 20
0
 30
0
 41
1
 42
1
 43
1
 0
INSERT
 8
8
 2
TOP_PLACE_BOUND_Polygon_117
 10
0
 20
0
 30
0
 41
1
 42
1
 43
1
 0
INSERT
 8
23
 2
TOP_VALOR_Polygon_144
 10
0
 20
0
 30
0
 41
1
 42
1
 43
1
0
ENDSEC
 0
EOF

