 999
VISION3D DXF
0
SECTION
2
HEADER
0
ENDSEC
0
SECTION
2
TABLES
0
ENDSEC
0
SECTION
2
BLOCKS
 0
BLOCK
 70
0
 2
TOP_SILKSCREEN_Polygon_8
 10
0
 20
0
 30
0
0
3DFACE
8
2
 62
2
 10
0.0750000035623088
 20
0.0173425008237246
 30
0
 11
0.0750000035623088
 21
0.00234250011126278
 31
0
 12
0.0650000030873343
 22
0.00234250011126278
 32
0
 13
0.0650000030873343
 23
0.0173425008237246
 33
0
0
3DFACE
8
2
 62
2
 10
0.0750000035623088
 20
0.0173425008237246
 30
0.0340000016149133
 11
0.0750000035623088
 21
0.00234250011126278
 31
0.0340000016149133
 12
0.0650000030873343
 22
0.00234250011126278
 32
0.0340000016149133
 13
0.0650000030873343
 23
0.0173425008237246
 33
0.0340000016149133
0
3DFACE
8
2
 62
2
 10
0.0650000030873343
 20
0.0173425008237246
 30
0
 11
0.0750000035623088
 21
0.0173425008237246
 31
0
 12
0.0750000035623088
 22
0.0173425008237246
 32
0.0340000016149133
 13
0.0650000030873343
 23
0.0173425008237246
 33
0.0340000016149133
0
3DFACE
8
2
 62
2
 10
0.0750000035623088
 20
0.0173425008237246
 30
0
 11
0.0750000035623088
 21
0.00234250011126278
 31
0
 12
0.0750000035623088
 22
0.00234250011126278
 32
0.0340000016149133
 13
0.0750000035623088
 23
0.0173425008237246
 33
0.0340000016149133
0
3DFACE
8
2
 62
2
 10
0.0750000035623088
 20
0.00234250011126278
 30
0
 11
0.0650000030873343
 21
0.00234250011126278
 31
0
 12
0.0650000030873343
 22
0.00234250011126278
 32
0.0340000016149133
 13
0.0750000035623088
 23
0.00234250011126278
 33
0.0340000016149133
0
3DFACE
8
2
 62
2
 10
0.0650000030873343
 20
0.00234250011126278
 30
0
 11
0.0650000030873343
 21
0.0173425008237246
 31
0
 12
0.0650000030873343
 22
0.0173425008237246
 32
0.0340000016149133
 13
0.0650000030873343
 23
0.00234250011126278
 33
0.0340000016149133
 0
ENDBLK
 0
BLOCK
 70
0
 2
TOP_PLACE_BOUND_Polygon_50
 10
0
 20
0
 30
0
0
3DFACE
8
8
 62
8
 10
-0.0640000030398369
 20
-0.0540000025648624
 30
0
 11
-0.0640000030398369
 21
-0.0375275629702076
 31
0
 12
-0.0640000030398369
 22
-0.0375275629702076
 32
0
 13
-0.0640000030398369
 23
-0.0375275629702076
 33
0
0
3DFACE
8
8
 62
8
 10
-0.0640000030398369
 20
-0.0540000025648624
 30
0
 11
-0.0640000030398369
 21
-0.0375275629702076
 31
0
 12
-0.0276850408352325
 22
0.0540000025648624
 32
0
 13
-0.0276850408352325
 23
0.0540000025648624
 33
0
0
3DFACE
8
8
 62
8
 10
-0.0640000030398369
 20
-0.0375275629702076
 30
0
 11
-0.0640000030398369
 21
0.0375275629702076
 31
0
 12
-0.0640000030398369
 22
0.0375275629702076
 32
0
 13
-0.0640000030398369
 23
0.0375275629702076
 33
0
0
3DFACE
8
8
 62
8
 10
-0.0640000030398369
 20
-0.0375275629702076
 30
0
 11
-0.0640000030398369
 21
0.0375275629702076
 31
0
 12
-0.0276850408352325
 22
0.0540000025648624
 32
0
 13
-0.0276850408352325
 23
0.0540000025648624
 33
0
0
3DFACE
8
8
 62
8
 10
-0.0640000030398369
 20
0.0375275629702076
 30
0
 11
-0.0640000030398369
 21
0.0540000025648624
 31
0
 12
-0.0276850408352325
 22
0.0540000025648624
 32
0
 13
-0.0276850408352325
 23
0.0540000025648624
 33
0
0
3DFACE
8
8
 62
8
 10
-0.0640000030398369
 20
-0.0375275629702076
 30
0
 11
-0.0276850408352325
 21
0.0540000025648624
 31
0
 12
-0.0276850408352325
 22
0.0540000025648624
 32
0
 13
-0.0276850408352325
 23
0.0540000025648624
 33
0
0
3DFACE
8
8
 62
8
 10
-0.0640000030398369
 20
-0.0540000025648624
 30
0
 11
-0.0276850408352325
 21
0.0540000025648624
 31
0
 12
0.0276850408352325
 22
0.0540000025648624
 32
0
 13
0.0276850408352325
 23
0.0540000025648624
 33
0
0
3DFACE
8
8
 62
8
 10
-0.0276850408352325
 20
0.0540000025648624
 30
0
 11
0.0276850408352325
 21
0.0540000025648624
 31
0
 12
0.0276850408352325
 22
0.0540000025648624
 32
0
 13
0.0276850408352325
 23
0.0540000025648624
 33
0
0
3DFACE
8
8
 62
8
 10
-0.0640000030398369
 20
-0.0540000025648624
 30
0
 11
0.0276850408352325
 21
0.0540000025648624
 31
0
 12
0.0640000030398369
 22
0.0540000025648624
 32
0
 13
0.0640000030398369
 23
0.0540000025648624
 33
0
0
3DFACE
8
8
 62
8
 10
-0.0640000030398369
 20
-0.0540000025648624
 30
0
 11
0.0640000030398369
 21
0.0540000025648624
 31
0
 12
0.0640000030398369
 22
0.0375275629702076
 32
0
 13
0.0640000030398369
 23
0.0375275629702076
 33
0
0
3DFACE
8
8
 62
8
 10
0.0640000030398369
 20
0.0540000025648624
 30
0
 11
0.0640000030398369
 21
0.0375275629702076
 31
0
 12
0.0640000030398369
 22
0.0375275629702076
 32
0
 13
0.0640000030398369
 23
0.0375275629702076
 33
0
0
3DFACE
8
8
 62
8
 10
-0.0640000030398369
 20
-0.0540000025648624
 30
0
 11
0.0640000030398369
 21
0.0375275629702076
 31
0
 12
0.0640000030398369
 22
-0.0375275629702076
 32
0
 13
0.0640000030398369
 23
-0.0375275629702076
 33
0
0
3DFACE
8
8
 62
8
 10
0.0640000030398369
 20
0.0375275629702076
 30
0
 11
0.0640000030398369
 21
-0.0375275629702076
 31
0
 12
0.0640000030398369
 22
-0.0375275629702076
 32
0
 13
0.0640000030398369
 23
-0.0375275629702076
 33
0
0
3DFACE
8
8
 62
8
 10
-0.0640000030398369
 20
-0.0540000025648624
 30
0
 11
0.0640000030398369
 21
-0.0375275629702076
 31
0
 12
-0.0276850408352325
 22
-0.0540000025648624
 32
0
 13
-0.0276850408352325
 23
-0.0540000025648624
 33
0
0
3DFACE
8
8
 62
8
 10
0.0640000030398369
 20
-0.0375275629702076
 30
0
 11
0.0640000030398369
 21
-0.0540000025648624
 31
0
 12
0.0276850408352325
 22
-0.0540000025648624
 32
0
 13
0.0276850408352325
 23
-0.0540000025648624
 33
0
0
3DFACE
8
8
 62
8
 10
0.0640000030398369
 20
-0.0540000025648624
 30
0
 11
0.0276850408352325
 21
-0.0540000025648624
 31
0
 12
0.0276850408352325
 22
-0.0540000025648624
 32
0
 13
0.0276850408352325
 23
-0.0540000025648624
 33
0
0
3DFACE
8
8
 62
8
 10
0.0640000030398369
 20
-0.0375275629702076
 30
0
 11
0.0276850408352325
 21
-0.0540000025648624
 31
0
 12
-0.0276850408352325
 22
-0.0540000025648624
 32
0
 13
-0.0276850408352325
 23
-0.0540000025648624
 33
0
0
3DFACE
8
8
 62
8
 10
-0.0640000030398369
 20
-0.0540000025648624
 30
0
 11
-0.0276850408352325
 21
-0.0540000025648624
 31
0
 12
-0.0276850408352325
 22
-0.0540000025648624
 32
0
 13
-0.0276850408352325
 23
-0.0540000025648624
 33
0
0
3DFACE
8
8
 62
8
 10
-0.0640000030398369
 20
-0.0540000025648624
 30
0.0340000016149133
 11
-0.0640000030398369
 21
-0.0375275629702076
 31
0.0340000016149133
 12
-0.0640000030398369
 22
-0.0375275629702076
 32
0.0340000016149133
 13
-0.0640000030398369
 23
-0.0375275629702076
 33
0.0340000016149133
0
3DFACE
8
8
 62
8
 10
-0.0640000030398369
 20
-0.0540000025648624
 30
0.0340000016149133
 11
-0.0640000030398369
 21
-0.0375275629702076
 31
0.0340000016149133
 12
-0.0276850408352325
 22
0.0540000025648624
 32
0.0340000016149133
 13
-0.0276850408352325
 23
0.0540000025648624
 33
0.0340000016149133
0
3DFACE
8
8
 62
8
 10
-0.0640000030398369
 20
-0.0375275629702076
 30
0.0340000016149133
 11
-0.0640000030398369
 21
0.0375275629702076
 31
0.0340000016149133
 12
-0.0640000030398369
 22
0.0375275629702076
 32
0.0340000016149133
 13
-0.0640000030398369
 23
0.0375275629702076
 33
0.0340000016149133
0
3DFACE
8
8
 62
8
 10
-0.0640000030398369
 20
-0.0375275629702076
 30
0.0340000016149133
 11
-0.0640000030398369
 21
0.0375275629702076
 31
0.0340000016149133
 12
-0.0276850408352325
 22
0.0540000025648624
 32
0.0340000016149133
 13
-0.0276850408352325
 23
0.0540000025648624
 33
0.0340000016149133
0
3DFACE
8
8
 62
8
 10
-0.0640000030398369
 20
0.0375275629702076
 30
0.0340000016149133
 11
-0.0640000030398369
 21
0.0540000025648624
 31
0.0340000016149133
 12
-0.0276850408352325
 22
0.0540000025648624
 32
0.0340000016149133
 13
-0.0276850408352325
 23
0.0540000025648624
 33
0.0340000016149133
0
3DFACE
8
8
 62
8
 10
-0.0640000030398369
 20
-0.0375275629702076
 30
0.0340000016149133
 11
-0.0276850408352325
 21
0.0540000025648624
 31
0.0340000016149133
 12
-0.0276850408352325
 22
0.0540000025648624
 32
0.0340000016149133
 13
-0.0276850408352325
 23
0.0540000025648624
 33
0.0340000016149133
0
3DFACE
8
8
 62
8
 10
-0.0640000030398369
 20
-0.0540000025648624
 30
0.0340000016149133
 11
-0.0276850408352325
 21
0.0540000025648624
 31
0.0340000016149133
 12
0.0276850408352325
 22
0.0540000025648624
 32
0.0340000016149133
 13
0.0276850408352325
 23
0.0540000025648624
 33
0.0340000016149133
0
3DFACE
8
8
 62
8
 10
-0.0276850408352325
 20
0.0540000025648624
 30
0.0340000016149133
 11
0.0276850408352325
 21
0.0540000025648624
 31
0.0340000016149133
 12
0.0276850408352325
 22
0.0540000025648624
 32
0.0340000016149133
 13
0.0276850408352325
 23
0.0540000025648624
 33
0.0340000016149133
0
3DFACE
8
8
 62
8
 10
-0.0640000030398369
 20
-0.0540000025648624
 30
0.0340000016149133
 11
0.0276850408352325
 21
0.0540000025648624
 31
0.0340000016149133
 12
0.0640000030398369
 22
0.0540000025648624
 32
0.0340000016149133
 13
0.0640000030398369
 23
0.0540000025648624
 33
0.0340000016149133
0
3DFACE
8
8
 62
8
 10
-0.0640000030398369
 20
-0.0540000025648624
 30
0.0340000016149133
 11
0.0640000030398369
 21
0.0540000025648624
 31
0.0340000016149133
 12
0.0640000030398369
 22
0.0375275629702076
 32
0.0340000016149133
 13
0.0640000030398369
 23
0.0375275629702076
 33
0.0340000016149133
0
3DFACE
8
8
 62
8
 10
0.0640000030398369
 20
0.0540000025648624
 30
0.0340000016149133
 11
0.0640000030398369
 21
0.0375275629702076
 31
0.0340000016149133
 12
0.0640000030398369
 22
0.0375275629702076
 32
0.0340000016149133
 13
0.0640000030398369
 23
0.0375275629702076
 33
0.0340000016149133
0
3DFACE
8
8
 62
8
 10
-0.0640000030398369
 20
-0.0540000025648624
 30
0.0340000016149133
 11
0.0640000030398369
 21
0.0375275629702076
 31
0.0340000016149133
 12
0.0640000030398369
 22
-0.0375275629702076
 32
0.0340000016149133
 13
0.0640000030398369
 23
-0.0375275629702076
 33
0.0340000016149133
0
3DFACE
8
8
 62
8
 10
0.0640000030398369
 20
0.0375275629702076
 30
0.0340000016149133
 11
0.0640000030398369
 21
-0.0375275629702076
 31
0.0340000016149133
 12
0.0640000030398369
 22
-0.0375275629702076
 32
0.0340000016149133
 13
0.0640000030398369
 23
-0.0375275629702076
 33
0.0340000016149133
0
3DFACE
8
8
 62
8
 10
-0.0640000030398369
 20
-0.0540000025648624
 30
0.0340000016149133
 11
0.0640000030398369
 21
-0.0375275629702076
 31
0.0340000016149133
 12
-0.0276850408352325
 22
-0.0540000025648624
 32
0.0340000016149133
 13
-0.0276850408352325
 23
-0.0540000025648624
 33
0.0340000016149133
0
3DFACE
8
8
 62
8
 10
0.0640000030398369
 20
-0.0375275629702076
 30
0.0340000016149133
 11
0.0640000030398369
 21
-0.0540000025648624
 31
0.0340000016149133
 12
0.0276850408352325
 22
-0.0540000025648624
 32
0.0340000016149133
 13
0.0276850408352325
 23
-0.0540000025648624
 33
0.0340000016149133
0
3DFACE
8
8
 62
8
 10
0.0640000030398369
 20
-0.0540000025648624
 30
0.0340000016149133
 11
0.0276850408352325
 21
-0.0540000025648624
 31
0.0340000016149133
 12
0.0276850408352325
 22
-0.0540000025648624
 32
0.0340000016149133
 13
0.0276850408352325
 23
-0.0540000025648624
 33
0.0340000016149133
0
3DFACE
8
8
 62
8
 10
0.0640000030398369
 20
-0.0375275629702076
 30
0.0340000016149133
 11
0.0276850408352325
 21
-0.0540000025648624
 31
0.0340000016149133
 12
-0.0276850408352325
 22
-0.0540000025648624
 32
0.0340000016149133
 13
-0.0276850408352325
 23
-0.0540000025648624
 33
0.0340000016149133
0
3DFACE
8
8
 62
8
 10
-0.0640000030398369
 20
-0.0540000025648624
 30
0.0340000016149133
 11
-0.0276850408352325
 21
-0.0540000025648624
 31
0.0340000016149133
 12
-0.0276850408352325
 22
-0.0540000025648624
 32
0.0340000016149133
 13
-0.0276850408352325
 23
-0.0540000025648624
 33
0.0340000016149133
0
3DFACE
8
8
 62
8
 10
-0.0276850408352325
 20
-0.0540000025648624
 30
0
 11
-0.0640000030398369
 21
-0.0540000025648624
 31
0
 12
-0.0640000030398369
 22
-0.0540000025648624
 32
0.0340000016149133
 13
-0.0276850408352325
 23
-0.0540000025648624
 33
0.0340000016149133
0
3DFACE
8
8
 62
8
 10
-0.0640000030398369
 20
-0.0540000025648624
 30
0
 11
-0.0640000030398369
 21
-0.0375275629702076
 31
0
 12
-0.0640000030398369
 22
-0.0375275629702076
 32
0.0340000016149133
 13
-0.0640000030398369
 23
-0.0540000025648624
 33
0.0340000016149133
0
3DFACE
8
8
 62
8
 10
-0.0640000030398369
 20
-0.0375275629702076
 30
0
 11
-0.0640000030398369
 21
-0.0375275629702076
 31
0
 12
-0.0640000030398369
 22
-0.0375275629702076
 32
0.0340000016149133
 13
-0.0640000030398369
 23
-0.0375275629702076
 33
0.0340000016149133
0
3DFACE
8
8
 62
8
 10
-0.0640000030398369
 20
-0.0375275629702076
 30
0
 11
-0.0640000030398369
 21
0.0375275629702076
 31
0
 12
-0.0640000030398369
 22
0.0375275629702076
 32
0.0340000016149133
 13
-0.0640000030398369
 23
-0.0375275629702076
 33
0.0340000016149133
0
3DFACE
8
8
 62
8
 10
-0.0640000030398369
 20
0.0375275629702076
 30
0
 11
-0.0640000030398369
 21
0.0375275629702076
 31
0
 12
-0.0640000030398369
 22
0.0375275629702076
 32
0.0340000016149133
 13
-0.0640000030398369
 23
0.0375275629702076
 33
0.0340000016149133
0
3DFACE
8
8
 62
8
 10
-0.0640000030398369
 20
0.0375275629702076
 30
0
 11
-0.0640000030398369
 21
0.0540000025648624
 31
0
 12
-0.0640000030398369
 22
0.0540000025648624
 32
0.0340000016149133
 13
-0.0640000030398369
 23
0.0375275629702076
 33
0.0340000016149133
0
3DFACE
8
8
 62
8
 10
-0.0640000030398369
 20
0.0540000025648624
 30
0
 11
-0.0276850408352325
 21
0.0540000025648624
 31
0
 12
-0.0276850408352325
 22
0.0540000025648624
 32
0.0340000016149133
 13
-0.0640000030398369
 23
0.0540000025648624
 33
0.0340000016149133
0
3DFACE
8
8
 62
8
 10
-0.0276850408352325
 20
0.0540000025648624
 30
0
 11
-0.0276850408352325
 21
0.0540000025648624
 31
0
 12
-0.0276850408352325
 22
0.0540000025648624
 32
0.0340000016149133
 13
-0.0276850408352325
 23
0.0540000025648624
 33
0.0340000016149133
0
3DFACE
8
8
 62
8
 10
-0.0276850408352325
 20
0.0540000025648624
 30
0
 11
0.0276850408352325
 21
0.0540000025648624
 31
0
 12
0.0276850408352325
 22
0.0540000025648624
 32
0.0340000016149133
 13
-0.0276850408352325
 23
0.0540000025648624
 33
0.0340000016149133
0
3DFACE
8
8
 62
8
 10
0.0276850408352325
 20
0.0540000025648624
 30
0
 11
0.0276850408352325
 21
0.0540000025648624
 31
0
 12
0.0276850408352325
 22
0.0540000025648624
 32
0.0340000016149133
 13
0.0276850408352325
 23
0.0540000025648624
 33
0.0340000016149133
0
3DFACE
8
8
 62
8
 10
0.0276850408352325
 20
0.0540000025648624
 30
0
 11
0.0640000030398369
 21
0.0540000025648624
 31
0
 12
0.0640000030398369
 22
0.0540000025648624
 32
0.0340000016149133
 13
0.0276850408352325
 23
0.0540000025648624
 33
0.0340000016149133
0
3DFACE
8
8
 62
8
 10
0.0640000030398369
 20
0.0540000025648624
 30
0
 11
0.0640000030398369
 21
0.0375275629702076
 31
0
 12
0.0640000030398369
 22
0.0375275629702076
 32
0.0340000016149133
 13
0.0640000030398369
 23
0.0540000025648624
 33
0.0340000016149133
0
3DFACE
8
8
 62
8
 10
0.0640000030398369
 20
0.0375275629702076
 30
0
 11
0.0640000030398369
 21
0.0375275629702076
 31
0
 12
0.0640000030398369
 22
0.0375275629702076
 32
0.0340000016149133
 13
0.0640000030398369
 23
0.0375275629702076
 33
0.0340000016149133
0
3DFACE
8
8
 62
8
 10
0.0640000030398369
 20
0.0375275629702076
 30
0
 11
0.0640000030398369
 21
-0.0375275629702076
 31
0
 12
0.0640000030398369
 22
-0.0375275629702076
 32
0.0340000016149133
 13
0.0640000030398369
 23
0.0375275629702076
 33
0.0340000016149133
0
3DFACE
8
8
 62
8
 10
0.0640000030398369
 20
-0.0375275629702076
 30
0
 11
0.0640000030398369
 21
-0.0375275629702076
 31
0
 12
0.0640000030398369
 22
-0.0375275629702076
 32
0.0340000016149133
 13
0.0640000030398369
 23
-0.0375275629702076
 33
0.0340000016149133
0
3DFACE
8
8
 62
8
 10
0.0640000030398369
 20
-0.0375275629702076
 30
0
 11
0.0640000030398369
 21
-0.0540000025648624
 31
0
 12
0.0640000030398369
 22
-0.0540000025648624
 32
0.0340000016149133
 13
0.0640000030398369
 23
-0.0375275629702076
 33
0.0340000016149133
0
3DFACE
8
8
 62
8
 10
0.0640000030398369
 20
-0.0540000025648624
 30
0
 11
0.0276850408352325
 21
-0.0540000025648624
 31
0
 12
0.0276850408352325
 22
-0.0540000025648624
 32
0.0340000016149133
 13
0.0640000030398369
 23
-0.0540000025648624
 33
0.0340000016149133
0
3DFACE
8
8
 62
8
 10
0.0276850408352325
 20
-0.0540000025648624
 30
0
 11
0.0276850408352325
 21
-0.0540000025648624
 31
0
 12
0.0276850408352325
 22
-0.0540000025648624
 32
0.0340000016149133
 13
0.0276850408352325
 23
-0.0540000025648624
 33
0.0340000016149133
0
3DFACE
8
8
 62
8
 10
0.0276850408352325
 20
-0.0540000025648624
 30
0
 11
-0.0276850408352325
 21
-0.0540000025648624
 31
0
 12
-0.0276850408352325
 22
-0.0540000025648624
 32
0.0340000016149133
 13
0.0276850408352325
 23
-0.0540000025648624
 33
0.0340000016149133
0
3DFACE
8
8
 62
8
 10
-0.0276850408352325
 20
-0.0540000025648624
 30
0
 11
-0.0276850408352325
 21
-0.0540000025648624
 31
0
 12
-0.0276850408352325
 22
-0.0540000025648624
 32
0.0340000016149133
 13
-0.0276850408352325
 23
-0.0540000025648624
 33
0.0340000016149133
 0
ENDBLK
 0
BLOCK
 70
0
 2
TOP_VALOR_Polygon_82
 10
0
 20
0
 30
0
0
3DFACE
8
23
 62
23
 10
-0.0800000037997961
 20
-0.0700000033248216
 30
0
 11
-0.0800000037997961
 21
0.0700000033248216
 31
0
 12
0.0800000037997961
 22
0.0700000033248216
 32
0
 13
0.0800000037997961
 23
-0.0700000033248216
 33
0
0
3DFACE
8
23
 62
23
 10
-0.0800000037997961
 20
-0.0700000033248216
 30
0.0340000016149133
 11
-0.0800000037997961
 21
0.0700000033248216
 31
0.0340000016149133
 12
0.0800000037997961
 22
0.0700000033248216
 32
0.0340000016149133
 13
0.0800000037997961
 23
-0.0700000033248216
 33
0.0340000016149133
0
3DFACE
8
23
 62
23
 10
0.0800000037997961
 20
-0.0700000033248216
 30
0
 11
-0.0800000037997961
 21
-0.0700000033248216
 31
0
 12
-0.0800000037997961
 22
-0.0700000033248216
 32
0.0340000016149133
 13
0.0800000037997961
 23
-0.0700000033248216
 33
0.0340000016149133
0
3DFACE
8
23
 62
23
 10
-0.0800000037997961
 20
-0.0700000033248216
 30
0
 11
-0.0800000037997961
 21
0.0700000033248216
 31
0
 12
-0.0800000037997961
 22
0.0700000033248216
 32
0.0340000016149133
 13
-0.0800000037997961
 23
-0.0700000033248216
 33
0.0340000016149133
0
3DFACE
8
23
 62
23
 10
-0.0800000037997961
 20
0.0700000033248216
 30
0
 11
0.0800000037997961
 21
0.0700000033248216
 31
0
 12
0.0800000037997961
 22
0.0700000033248216
 32
0.0340000016149133
 13
-0.0800000037997961
 23
0.0700000033248216
 33
0.0340000016149133
0
3DFACE
8
23
 62
23
 10
0.0800000037997961
 20
0.0700000033248216
 30
0
 11
0.0800000037997961
 21
-0.0700000033248216
 31
0
 12
0.0800000037997961
 22
-0.0700000033248216
 32
0.0340000016149133
 13
0.0800000037997961
 23
0.0700000033248216
 33
0.0340000016149133
 0
ENDBLK
0
ENDSEC
0
SECTION
2
ENTITIES
 0
INSERT
 8
2
 2
TOP_SILKSCREEN_Polygon_8
 10
0
 20
0
 30
0
 41
1
 42
1
 43
1
 0
INSERT
 8
8
 2
TOP_PLACE_BOUND_Polygon_50
 10
0
 20
0
 30
0
 41
1
 42
1
 43
1
 0
INSERT
 8
23
 2
TOP_VALOR_Polygon_82
 10
0
 20
0
 30
0
 41
1
 42
1
 43
1
0
ENDSEC
 0
EOF

