 999
VISION3D DXF
0
SECTION
2
HEADER
0
ENDSEC
0
SECTION
2
TABLES
0
ENDSEC
0
SECTION
2
BLOCKS
 0
BLOCK
 70
0
 2
TOP_SILKSCREEN_Polygon_8
 10
0
 20
0
 30
0
0
3DFACE
8
2
 62
2
 10
0.0770000036573038
 20
0.0173425008237246
 30
0
 11
0.0770000036573038
 21
0.00234250011126278
 31
0
 12
0.0670000031823292
 22
0.00234250011126278
 32
0
 13
0.0670000031823292
 23
0.0173425008237246
 33
0
0
3DFACE
8
2
 62
2
 10
0.0770000036573038
 20
0.0173425008237246
 30
0.0340000016149133
 11
0.0770000036573038
 21
0.00234250011126278
 31
0.0340000016149133
 12
0.0670000031823292
 22
0.00234250011126278
 32
0.0340000016149133
 13
0.0670000031823292
 23
0.0173425008237246
 33
0.0340000016149133
0
3DFACE
8
2
 62
2
 10
0.0670000031823292
 20
0.0173425008237246
 30
0
 11
0.0770000036573038
 21
0.0173425008237246
 31
0
 12
0.0770000036573038
 22
0.0173425008237246
 32
0.0340000016149133
 13
0.0670000031823292
 23
0.0173425008237246
 33
0.0340000016149133
0
3DFACE
8
2
 62
2
 10
0.0770000036573038
 20
0.0173425008237246
 30
0
 11
0.0770000036573038
 21
0.00234250011126278
 31
0
 12
0.0770000036573038
 22
0.00234250011126278
 32
0.0340000016149133
 13
0.0770000036573038
 23
0.0173425008237246
 33
0.0340000016149133
0
3DFACE
8
2
 62
2
 10
0.0770000036573038
 20
0.00234250011126278
 30
0
 11
0.0670000031823292
 21
0.00234250011126278
 31
0
 12
0.0670000031823292
 22
0.00234250011126278
 32
0.0340000016149133
 13
0.0770000036573038
 23
0.00234250011126278
 33
0.0340000016149133
0
3DFACE
8
2
 62
2
 10
0.0670000031823292
 20
0.00234250011126278
 30
0
 11
0.0670000031823292
 21
0.0173425008237246
 31
0
 12
0.0670000031823292
 22
0.0173425008237246
 32
0.0340000016149133
 13
0.0670000031823292
 23
0.00234250011126278
 33
0.0340000016149133
 0
ENDBLK
 0
BLOCK
 70
0
 2
TOP_PLACE_BOUND_Polygon_50
 10
0
 20
0
 30
0
0
3DFACE
8
8
 62
8
 10
-0.0700000033248216
 20
-0.0600000028498471
 30
0
 11
-0.0700000033248216
 21
-0.0445275633026898
 31
0
 12
-0.0700000033248216
 22
-0.0445275633026898
 32
0
 13
-0.0700000033248216
 23
-0.0445275633026898
 33
0
0
3DFACE
8
8
 62
8
 10
-0.0700000033248216
 20
-0.0600000028498471
 30
0
 11
-0.0700000033248216
 21
-0.0445275633026898
 31
0
 12
-0.0346850411677147
 22
0.0600000028498471
 32
0
 13
-0.0346850411677147
 23
0.0600000028498471
 33
0
0
3DFACE
8
8
 62
8
 10
-0.0700000033248216
 20
-0.0445275633026898
 30
0
 11
-0.0700000033248216
 21
0.0445275633026898
 31
0
 12
-0.0700000033248216
 22
0.0445275633026898
 32
0
 13
-0.0700000033248216
 23
0.0445275633026898
 33
0
0
3DFACE
8
8
 62
8
 10
-0.0700000033248216
 20
-0.0445275633026898
 30
0
 11
-0.0700000033248216
 21
0.0445275633026898
 31
0
 12
-0.0346850411677147
 22
0.0600000028498471
 32
0
 13
-0.0346850411677147
 23
0.0600000028498471
 33
0
0
3DFACE
8
8
 62
8
 10
-0.0700000033248216
 20
0.0445275633026898
 30
0
 11
-0.0700000033248216
 21
0.0600000028498471
 31
0
 12
-0.0346850411677147
 22
0.0600000028498471
 32
0
 13
-0.0346850411677147
 23
0.0600000028498471
 33
0
0
3DFACE
8
8
 62
8
 10
-0.0700000033248216
 20
-0.0445275633026898
 30
0
 11
-0.0346850411677147
 21
0.0600000028498471
 31
0
 12
-0.0346850411677147
 22
0.0600000028498471
 32
0
 13
-0.0346850411677147
 23
0.0600000028498471
 33
0
0
3DFACE
8
8
 62
8
 10
-0.0700000033248216
 20
-0.0600000028498471
 30
0
 11
-0.0346850411677147
 21
0.0600000028498471
 31
0
 12
0.0346850411677147
 22
0.0600000028498471
 32
0
 13
0.0346850411677147
 23
0.0600000028498471
 33
0
0
3DFACE
8
8
 62
8
 10
-0.0346850411677147
 20
0.0600000028498471
 30
0
 11
0.0346850411677147
 21
0.0600000028498471
 31
0
 12
0.0346850411677147
 22
0.0600000028498471
 32
0
 13
0.0346850411677147
 23
0.0600000028498471
 33
0
0
3DFACE
8
8
 62
8
 10
-0.0700000033248216
 20
-0.0600000028498471
 30
0
 11
0.0346850411677147
 21
0.0600000028498471
 31
0
 12
0.0700000033248216
 22
0.0600000028498471
 32
0
 13
0.0700000033248216
 23
0.0600000028498471
 33
0
0
3DFACE
8
8
 62
8
 10
-0.0700000033248216
 20
-0.0600000028498471
 30
0
 11
0.0700000033248216
 21
0.0600000028498471
 31
0
 12
0.0700000033248216
 22
0.0445275633026898
 32
0
 13
0.0700000033248216
 23
0.0445275633026898
 33
0
0
3DFACE
8
8
 62
8
 10
0.0700000033248216
 20
0.0600000028498471
 30
0
 11
0.0700000033248216
 21
0.0445275633026898
 31
0
 12
0.0700000033248216
 22
0.0445275633026898
 32
0
 13
0.0700000033248216
 23
0.0445275633026898
 33
0
0
3DFACE
8
8
 62
8
 10
-0.0700000033248216
 20
-0.0600000028498471
 30
0
 11
0.0700000033248216
 21
0.0445275633026898
 31
0
 12
0.0700000033248216
 22
-0.0445275633026898
 32
0
 13
0.0700000033248216
 23
-0.0445275633026898
 33
0
0
3DFACE
8
8
 62
8
 10
0.0700000033248216
 20
0.0445275633026898
 30
0
 11
0.0700000033248216
 21
-0.0445275633026898
 31
0
 12
0.0700000033248216
 22
-0.0445275633026898
 32
0
 13
0.0700000033248216
 23
-0.0445275633026898
 33
0
0
3DFACE
8
8
 62
8
 10
-0.0700000033248216
 20
-0.0600000028498471
 30
0
 11
0.0700000033248216
 21
-0.0445275633026898
 31
0
 12
-0.0346850411677147
 22
-0.0600000028498471
 32
0
 13
-0.0346850411677147
 23
-0.0600000028498471
 33
0
0
3DFACE
8
8
 62
8
 10
0.0700000033248216
 20
-0.0445275633026898
 30
0
 11
0.0700000033248216
 21
-0.0600000028498471
 31
0
 12
0.0346850411677147
 22
-0.0600000028498471
 32
0
 13
0.0346850411677147
 23
-0.0600000028498471
 33
0
0
3DFACE
8
8
 62
8
 10
0.0700000033248216
 20
-0.0600000028498471
 30
0
 11
0.0346850411677147
 21
-0.0600000028498471
 31
0
 12
0.0346850411677147
 22
-0.0600000028498471
 32
0
 13
0.0346850411677147
 23
-0.0600000028498471
 33
0
0
3DFACE
8
8
 62
8
 10
0.0700000033248216
 20
-0.0445275633026898
 30
0
 11
0.0346850411677147
 21
-0.0600000028498471
 31
0
 12
-0.0346850411677147
 22
-0.0600000028498471
 32
0
 13
-0.0346850411677147
 23
-0.0600000028498471
 33
0
0
3DFACE
8
8
 62
8
 10
-0.0700000033248216
 20
-0.0600000028498471
 30
0
 11
-0.0346850411677147
 21
-0.0600000028498471
 31
0
 12
-0.0346850411677147
 22
-0.0600000028498471
 32
0
 13
-0.0346850411677147
 23
-0.0600000028498471
 33
0
0
3DFACE
8
8
 62
8
 10
-0.0700000033248216
 20
-0.0600000028498471
 30
0.0340000016149133
 11
-0.0700000033248216
 21
-0.0445275633026898
 31
0.0340000016149133
 12
-0.0700000033248216
 22
-0.0445275633026898
 32
0.0340000016149133
 13
-0.0700000033248216
 23
-0.0445275633026898
 33
0.0340000016149133
0
3DFACE
8
8
 62
8
 10
-0.0700000033248216
 20
-0.0600000028498471
 30
0.0340000016149133
 11
-0.0700000033248216
 21
-0.0445275633026898
 31
0.0340000016149133
 12
-0.0346850411677147
 22
0.0600000028498471
 32
0.0340000016149133
 13
-0.0346850411677147
 23
0.0600000028498471
 33
0.0340000016149133
0
3DFACE
8
8
 62
8
 10
-0.0700000033248216
 20
-0.0445275633026898
 30
0.0340000016149133
 11
-0.0700000033248216
 21
0.0445275633026898
 31
0.0340000016149133
 12
-0.0700000033248216
 22
0.0445275633026898
 32
0.0340000016149133
 13
-0.0700000033248216
 23
0.0445275633026898
 33
0.0340000016149133
0
3DFACE
8
8
 62
8
 10
-0.0700000033248216
 20
-0.0445275633026898
 30
0.0340000016149133
 11
-0.0700000033248216
 21
0.0445275633026898
 31
0.0340000016149133
 12
-0.0346850411677147
 22
0.0600000028498471
 32
0.0340000016149133
 13
-0.0346850411677147
 23
0.0600000028498471
 33
0.0340000016149133
0
3DFACE
8
8
 62
8
 10
-0.0700000033248216
 20
0.0445275633026898
 30
0.0340000016149133
 11
-0.0700000033248216
 21
0.0600000028498471
 31
0.0340000016149133
 12
-0.0346850411677147
 22
0.0600000028498471
 32
0.0340000016149133
 13
-0.0346850411677147
 23
0.0600000028498471
 33
0.0340000016149133
0
3DFACE
8
8
 62
8
 10
-0.0700000033248216
 20
-0.0445275633026898
 30
0.0340000016149133
 11
-0.0346850411677147
 21
0.0600000028498471
 31
0.0340000016149133
 12
-0.0346850411677147
 22
0.0600000028498471
 32
0.0340000016149133
 13
-0.0346850411677147
 23
0.0600000028498471
 33
0.0340000016149133
0
3DFACE
8
8
 62
8
 10
-0.0700000033248216
 20
-0.0600000028498471
 30
0.0340000016149133
 11
-0.0346850411677147
 21
0.0600000028498471
 31
0.0340000016149133
 12
0.0346850411677147
 22
0.0600000028498471
 32
0.0340000016149133
 13
0.0346850411677147
 23
0.0600000028498471
 33
0.0340000016149133
0
3DFACE
8
8
 62
8
 10
-0.0346850411677147
 20
0.0600000028498471
 30
0.0340000016149133
 11
0.0346850411677147
 21
0.0600000028498471
 31
0.0340000016149133
 12
0.0346850411677147
 22
0.0600000028498471
 32
0.0340000016149133
 13
0.0346850411677147
 23
0.0600000028498471
 33
0.0340000016149133
0
3DFACE
8
8
 62
8
 10
-0.0700000033248216
 20
-0.0600000028498471
 30
0.0340000016149133
 11
0.0346850411677147
 21
0.0600000028498471
 31
0.0340000016149133
 12
0.0700000033248216
 22
0.0600000028498471
 32
0.0340000016149133
 13
0.0700000033248216
 23
0.0600000028498471
 33
0.0340000016149133
0
3DFACE
8
8
 62
8
 10
-0.0700000033248216
 20
-0.0600000028498471
 30
0.0340000016149133
 11
0.0700000033248216
 21
0.0600000028498471
 31
0.0340000016149133
 12
0.0700000033248216
 22
0.0445275633026898
 32
0.0340000016149133
 13
0.0700000033248216
 23
0.0445275633026898
 33
0.0340000016149133
0
3DFACE
8
8
 62
8
 10
0.0700000033248216
 20
0.0600000028498471
 30
0.0340000016149133
 11
0.0700000033248216
 21
0.0445275633026898
 31
0.0340000016149133
 12
0.0700000033248216
 22
0.0445275633026898
 32
0.0340000016149133
 13
0.0700000033248216
 23
0.0445275633026898
 33
0.0340000016149133
0
3DFACE
8
8
 62
8
 10
-0.0700000033248216
 20
-0.0600000028498471
 30
0.0340000016149133
 11
0.0700000033248216
 21
0.0445275633026898
 31
0.0340000016149133
 12
0.0700000033248216
 22
-0.0445275633026898
 32
0.0340000016149133
 13
0.0700000033248216
 23
-0.0445275633026898
 33
0.0340000016149133
0
3DFACE
8
8
 62
8
 10
0.0700000033248216
 20
0.0445275633026898
 30
0.0340000016149133
 11
0.0700000033248216
 21
-0.0445275633026898
 31
0.0340000016149133
 12
0.0700000033248216
 22
-0.0445275633026898
 32
0.0340000016149133
 13
0.0700000033248216
 23
-0.0445275633026898
 33
0.0340000016149133
0
3DFACE
8
8
 62
8
 10
-0.0700000033248216
 20
-0.0600000028498471
 30
0.0340000016149133
 11
0.0700000033248216
 21
-0.0445275633026898
 31
0.0340000016149133
 12
-0.0346850411677147
 22
-0.0600000028498471
 32
0.0340000016149133
 13
-0.0346850411677147
 23
-0.0600000028498471
 33
0.0340000016149133
0
3DFACE
8
8
 62
8
 10
0.0700000033248216
 20
-0.0445275633026898
 30
0.0340000016149133
 11
0.0700000033248216
 21
-0.0600000028498471
 31
0.0340000016149133
 12
0.0346850411677147
 22
-0.0600000028498471
 32
0.0340000016149133
 13
0.0346850411677147
 23
-0.0600000028498471
 33
0.0340000016149133
0
3DFACE
8
8
 62
8
 10
0.0700000033248216
 20
-0.0600000028498471
 30
0.0340000016149133
 11
0.0346850411677147
 21
-0.0600000028498471
 31
0.0340000016149133
 12
0.0346850411677147
 22
-0.0600000028498471
 32
0.0340000016149133
 13
0.0346850411677147
 23
-0.0600000028498471
 33
0.0340000016149133
0
3DFACE
8
8
 62
8
 10
0.0700000033248216
 20
-0.0445275633026898
 30
0.0340000016149133
 11
0.0346850411677147
 21
-0.0600000028498471
 31
0.0340000016149133
 12
-0.0346850411677147
 22
-0.0600000028498471
 32
0.0340000016149133
 13
-0.0346850411677147
 23
-0.0600000028498471
 33
0.0340000016149133
0
3DFACE
8
8
 62
8
 10
-0.0700000033248216
 20
-0.0600000028498471
 30
0.0340000016149133
 11
-0.0346850411677147
 21
-0.0600000028498471
 31
0.0340000016149133
 12
-0.0346850411677147
 22
-0.0600000028498471
 32
0.0340000016149133
 13
-0.0346850411677147
 23
-0.0600000028498471
 33
0.0340000016149133
0
3DFACE
8
8
 62
8
 10
-0.0346850411677147
 20
-0.0600000028498471
 30
0
 11
-0.0700000033248216
 21
-0.0600000028498471
 31
0
 12
-0.0700000033248216
 22
-0.0600000028498471
 32
0.0340000016149133
 13
-0.0346850411677147
 23
-0.0600000028498471
 33
0.0340000016149133
0
3DFACE
8
8
 62
8
 10
-0.0700000033248216
 20
-0.0600000028498471
 30
0
 11
-0.0700000033248216
 21
-0.0445275633026898
 31
0
 12
-0.0700000033248216
 22
-0.0445275633026898
 32
0.0340000016149133
 13
-0.0700000033248216
 23
-0.0600000028498471
 33
0.0340000016149133
0
3DFACE
8
8
 62
8
 10
-0.0700000033248216
 20
-0.0445275633026898
 30
0
 11
-0.0700000033248216
 21
-0.0445275633026898
 31
0
 12
-0.0700000033248216
 22
-0.0445275633026898
 32
0.0340000016149133
 13
-0.0700000033248216
 23
-0.0445275633026898
 33
0.0340000016149133
0
3DFACE
8
8
 62
8
 10
-0.0700000033248216
 20
-0.0445275633026898
 30
0
 11
-0.0700000033248216
 21
0.0445275633026898
 31
0
 12
-0.0700000033248216
 22
0.0445275633026898
 32
0.0340000016149133
 13
-0.0700000033248216
 23
-0.0445275633026898
 33
0.0340000016149133
0
3DFACE
8
8
 62
8
 10
-0.0700000033248216
 20
0.0445275633026898
 30
0
 11
-0.0700000033248216
 21
0.0445275633026898
 31
0
 12
-0.0700000033248216
 22
0.0445275633026898
 32
0.0340000016149133
 13
-0.0700000033248216
 23
0.0445275633026898
 33
0.0340000016149133
0
3DFACE
8
8
 62
8
 10
-0.0700000033248216
 20
0.0445275633026898
 30
0
 11
-0.0700000033248216
 21
0.0600000028498471
 31
0
 12
-0.0700000033248216
 22
0.0600000028498471
 32
0.0340000016149133
 13
-0.0700000033248216
 23
0.0445275633026898
 33
0.0340000016149133
0
3DFACE
8
8
 62
8
 10
-0.0700000033248216
 20
0.0600000028498471
 30
0
 11
-0.0346850411677147
 21
0.0600000028498471
 31
0
 12
-0.0346850411677147
 22
0.0600000028498471
 32
0.0340000016149133
 13
-0.0700000033248216
 23
0.0600000028498471
 33
0.0340000016149133
0
3DFACE
8
8
 62
8
 10
-0.0346850411677147
 20
0.0600000028498471
 30
0
 11
-0.0346850411677147
 21
0.0600000028498471
 31
0
 12
-0.0346850411677147
 22
0.0600000028498471
 32
0.0340000016149133
 13
-0.0346850411677147
 23
0.0600000028498471
 33
0.0340000016149133
0
3DFACE
8
8
 62
8
 10
-0.0346850411677147
 20
0.0600000028498471
 30
0
 11
0.0346850411677147
 21
0.0600000028498471
 31
0
 12
0.0346850411677147
 22
0.0600000028498471
 32
0.0340000016149133
 13
-0.0346850411677147
 23
0.0600000028498471
 33
0.0340000016149133
0
3DFACE
8
8
 62
8
 10
0.0346850411677147
 20
0.0600000028498471
 30
0
 11
0.0346850411677147
 21
0.0600000028498471
 31
0
 12
0.0346850411677147
 22
0.0600000028498471
 32
0.0340000016149133
 13
0.0346850411677147
 23
0.0600000028498471
 33
0.0340000016149133
0
3DFACE
8
8
 62
8
 10
0.0346850411677147
 20
0.0600000028498471
 30
0
 11
0.0700000033248216
 21
0.0600000028498471
 31
0
 12
0.0700000033248216
 22
0.0600000028498471
 32
0.0340000016149133
 13
0.0346850411677147
 23
0.0600000028498471
 33
0.0340000016149133
0
3DFACE
8
8
 62
8
 10
0.0700000033248216
 20
0.0600000028498471
 30
0
 11
0.0700000033248216
 21
0.0445275633026898
 31
0
 12
0.0700000033248216
 22
0.0445275633026898
 32
0.0340000016149133
 13
0.0700000033248216
 23
0.0600000028498471
 33
0.0340000016149133
0
3DFACE
8
8
 62
8
 10
0.0700000033248216
 20
0.0445275633026898
 30
0
 11
0.0700000033248216
 21
0.0445275633026898
 31
0
 12
0.0700000033248216
 22
0.0445275633026898
 32
0.0340000016149133
 13
0.0700000033248216
 23
0.0445275633026898
 33
0.0340000016149133
0
3DFACE
8
8
 62
8
 10
0.0700000033248216
 20
0.0445275633026898
 30
0
 11
0.0700000033248216
 21
-0.0445275633026898
 31
0
 12
0.0700000033248216
 22
-0.0445275633026898
 32
0.0340000016149133
 13
0.0700000033248216
 23
0.0445275633026898
 33
0.0340000016149133
0
3DFACE
8
8
 62
8
 10
0.0700000033248216
 20
-0.0445275633026898
 30
0
 11
0.0700000033248216
 21
-0.0445275633026898
 31
0
 12
0.0700000033248216
 22
-0.0445275633026898
 32
0.0340000016149133
 13
0.0700000033248216
 23
-0.0445275633026898
 33
0.0340000016149133
0
3DFACE
8
8
 62
8
 10
0.0700000033248216
 20
-0.0445275633026898
 30
0
 11
0.0700000033248216
 21
-0.0600000028498471
 31
0
 12
0.0700000033248216
 22
-0.0600000028498471
 32
0.0340000016149133
 13
0.0700000033248216
 23
-0.0445275633026898
 33
0.0340000016149133
0
3DFACE
8
8
 62
8
 10
0.0700000033248216
 20
-0.0600000028498471
 30
0
 11
0.0346850411677147
 21
-0.0600000028498471
 31
0
 12
0.0346850411677147
 22
-0.0600000028498471
 32
0.0340000016149133
 13
0.0700000033248216
 23
-0.0600000028498471
 33
0.0340000016149133
0
3DFACE
8
8
 62
8
 10
0.0346850411677147
 20
-0.0600000028498471
 30
0
 11
0.0346850411677147
 21
-0.0600000028498471
 31
0
 12
0.0346850411677147
 22
-0.0600000028498471
 32
0.0340000016149133
 13
0.0346850411677147
 23
-0.0600000028498471
 33
0.0340000016149133
0
3DFACE
8
8
 62
8
 10
0.0346850411677147
 20
-0.0600000028498471
 30
0
 11
-0.0346850411677147
 21
-0.0600000028498471
 31
0
 12
-0.0346850411677147
 22
-0.0600000028498471
 32
0.0340000016149133
 13
0.0346850411677147
 23
-0.0600000028498471
 33
0.0340000016149133
0
3DFACE
8
8
 62
8
 10
-0.0346850411677147
 20
-0.0600000028498471
 30
0
 11
-0.0346850411677147
 21
-0.0600000028498471
 31
0
 12
-0.0346850411677147
 22
-0.0600000028498471
 32
0.0340000016149133
 13
-0.0346850411677147
 23
-0.0600000028498471
 33
0.0340000016149133
 0
ENDBLK
 0
BLOCK
 70
0
 2
TOP_VALOR_Polygon_82
 10
0
 20
0
 30
0
0
3DFACE
8
23
 62
23
 10
-0.082000003894791
 20
-0.0720000034198165
 30
0
 11
-0.082000003894791
 21
0.0720000034198165
 31
0
 12
0.082000003894791
 22
0.0720000034198165
 32
0
 13
0.082000003894791
 23
-0.0720000034198165
 33
0
0
3DFACE
8
23
 62
23
 10
-0.082000003894791
 20
-0.0720000034198165
 30
0.0340000016149133
 11
-0.082000003894791
 21
0.0720000034198165
 31
0.0340000016149133
 12
0.082000003894791
 22
0.0720000034198165
 32
0.0340000016149133
 13
0.082000003894791
 23
-0.0720000034198165
 33
0.0340000016149133
0
3DFACE
8
23
 62
23
 10
0.082000003894791
 20
-0.0720000034198165
 30
0
 11
-0.082000003894791
 21
-0.0720000034198165
 31
0
 12
-0.082000003894791
 22
-0.0720000034198165
 32
0.0340000016149133
 13
0.082000003894791
 23
-0.0720000034198165
 33
0.0340000016149133
0
3DFACE
8
23
 62
23
 10
-0.082000003894791
 20
-0.0720000034198165
 30
0
 11
-0.082000003894791
 21
0.0720000034198165
 31
0
 12
-0.082000003894791
 22
0.0720000034198165
 32
0.0340000016149133
 13
-0.082000003894791
 23
-0.0720000034198165
 33
0.0340000016149133
0
3DFACE
8
23
 62
23
 10
-0.082000003894791
 20
0.0720000034198165
 30
0
 11
0.082000003894791
 21
0.0720000034198165
 31
0
 12
0.082000003894791
 22
0.0720000034198165
 32
0.0340000016149133
 13
-0.082000003894791
 23
0.0720000034198165
 33
0.0340000016149133
0
3DFACE
8
23
 62
23
 10
0.082000003894791
 20
0.0720000034198165
 30
0
 11
0.082000003894791
 21
-0.0720000034198165
 31
0
 12
0.082000003894791
 22
-0.0720000034198165
 32
0.0340000016149133
 13
0.082000003894791
 23
0.0720000034198165
 33
0.0340000016149133
 0
ENDBLK
0
ENDSEC
0
SECTION
2
ENTITIES
 0
INSERT
 8
2
 2
TOP_SILKSCREEN_Polygon_8
 10
0
 20
0
 30
0
 41
1
 42
1
 43
1
 0
INSERT
 8
8
 2
TOP_PLACE_BOUND_Polygon_50
 10
0
 20
0
 30
0
 41
1
 42
1
 43
1
 0
INSERT
 8
23
 2
TOP_VALOR_Polygon_82
 10
0
 20
0
 30
0
 41
1
 42
1
 43
1
0
ENDSEC
 0
EOF

