 999
VISION3D DXF
0
SECTION
2
HEADER
0
ENDSEC
0
SECTION
2
TABLES
0
ENDSEC
0
SECTION
2
BLOCKS
 0
BLOCK
 70
0
 2
TOP_SILKSCREEN_Polygon_8
 10
0
 20
0
 30
0
0
3DFACE
8
2
 62
2
 10
0.0790000037522987
 20
0.0173425008237246
 30
0
 11
0.0790000037522987
 21
0.00234250011126278
 31
0
 12
0.0690000032773241
 22
0.00234250011126278
 32
0
 13
0.0690000032773241
 23
0.0173425008237246
 33
0
0
3DFACE
8
2
 62
2
 10
0.0790000037522987
 20
0.0173425008237246
 30
0.0340000016149133
 11
0.0790000037522987
 21
0.00234250011126278
 31
0.0340000016149133
 12
0.0690000032773241
 22
0.00234250011126278
 32
0.0340000016149133
 13
0.0690000032773241
 23
0.0173425008237246
 33
0.0340000016149133
0
3DFACE
8
2
 62
2
 10
0.0690000032773241
 20
0.0173425008237246
 30
0
 11
0.0790000037522987
 21
0.0173425008237246
 31
0
 12
0.0790000037522987
 22
0.0173425008237246
 32
0.0340000016149133
 13
0.0690000032773241
 23
0.0173425008237246
 33
0.0340000016149133
0
3DFACE
8
2
 62
2
 10
0.0790000037522987
 20
0.0173425008237246
 30
0
 11
0.0790000037522987
 21
0.00234250011126278
 31
0
 12
0.0790000037522987
 22
0.00234250011126278
 32
0.0340000016149133
 13
0.0790000037522987
 23
0.0173425008237246
 33
0.0340000016149133
0
3DFACE
8
2
 62
2
 10
0.0790000037522987
 20
0.00234250011126278
 30
0
 11
0.0690000032773241
 21
0.00234250011126278
 31
0
 12
0.0690000032773241
 22
0.00234250011126278
 32
0.0340000016149133
 13
0.0790000037522987
 23
0.00234250011126278
 33
0.0340000016149133
0
3DFACE
8
2
 62
2
 10
0.0690000032773241
 20
0.00234250011126278
 30
0
 11
0.0690000032773241
 21
0.0173425008237246
 31
0
 12
0.0690000032773241
 22
0.0173425008237246
 32
0.0340000016149133
 13
0.0690000032773241
 23
0.00234250011126278
 33
0.0340000016149133
 0
ENDBLK
 0
BLOCK
 70
0
 2
TOP_PLACE_BOUND_Polygon_50
 10
0
 20
0
 30
0
0
3DFACE
8
8
 62
8
 10
-0.0800000037997961
 20
-0.0700000033248216
 30
0
 11
-0.0800000037997961
 21
-0.0555275638251617
 31
0
 12
-0.0800000037997961
 22
-0.0555275638251617
 32
0
 13
-0.0800000037997961
 23
-0.0555275638251617
 33
0
0
3DFACE
8
8
 62
8
 10
-0.0800000037997961
 20
-0.0700000033248216
 30
0
 11
-0.0800000037997961
 21
-0.0555275638251617
 31
0
 12
-0.0456850416901866
 22
0.0700000033248216
 32
0
 13
-0.0456850416901866
 23
0.0700000033248216
 33
0
0
3DFACE
8
8
 62
8
 10
-0.0800000037997961
 20
-0.0555275638251617
 30
0
 11
-0.0800000037997961
 21
0.0555275638251617
 31
0
 12
-0.0800000037997961
 22
0.0555275638251617
 32
0
 13
-0.0800000037997961
 23
0.0555275638251617
 33
0
0
3DFACE
8
8
 62
8
 10
-0.0800000037997961
 20
-0.0555275638251617
 30
0
 11
-0.0800000037997961
 21
0.0555275638251617
 31
0
 12
-0.0456850416901866
 22
0.0700000033248216
 32
0
 13
-0.0456850416901866
 23
0.0700000033248216
 33
0
0
3DFACE
8
8
 62
8
 10
-0.0800000037997961
 20
0.0555275638251617
 30
0
 11
-0.0800000037997961
 21
0.0700000033248216
 31
0
 12
-0.0456850416901866
 22
0.0700000033248216
 32
0
 13
-0.0456850416901866
 23
0.0700000033248216
 33
0
0
3DFACE
8
8
 62
8
 10
-0.0800000037997961
 20
-0.0555275638251617
 30
0
 11
-0.0456850416901866
 21
0.0700000033248216
 31
0
 12
-0.0456850416901866
 22
0.0700000033248216
 32
0
 13
-0.0456850416901866
 23
0.0700000033248216
 33
0
0
3DFACE
8
8
 62
8
 10
-0.0800000037997961
 20
-0.0700000033248216
 30
0
 11
-0.0456850416901866
 21
0.0700000033248216
 31
0
 12
0.0456850416901866
 22
0.0700000033248216
 32
0
 13
0.0456850416901866
 23
0.0700000033248216
 33
0
0
3DFACE
8
8
 62
8
 10
-0.0456850416901866
 20
0.0700000033248216
 30
0
 11
0.0456850416901866
 21
0.0700000033248216
 31
0
 12
0.0456850416901866
 22
0.0700000033248216
 32
0
 13
0.0456850416901866
 23
0.0700000033248216
 33
0
0
3DFACE
8
8
 62
8
 10
-0.0800000037997961
 20
-0.0700000033248216
 30
0
 11
0.0456850416901866
 21
0.0700000033248216
 31
0
 12
0.0800000037997961
 22
0.0700000033248216
 32
0
 13
0.0800000037997961
 23
0.0700000033248216
 33
0
0
3DFACE
8
8
 62
8
 10
-0.0800000037997961
 20
-0.0700000033248216
 30
0
 11
0.0800000037997961
 21
0.0700000033248216
 31
0
 12
0.0800000037997961
 22
0.0555275638251617
 32
0
 13
0.0800000037997961
 23
0.0555275638251617
 33
0
0
3DFACE
8
8
 62
8
 10
0.0800000037997961
 20
0.0700000033248216
 30
0
 11
0.0800000037997961
 21
0.0555275638251617
 31
0
 12
0.0800000037997961
 22
0.0555275638251617
 32
0
 13
0.0800000037997961
 23
0.0555275638251617
 33
0
0
3DFACE
8
8
 62
8
 10
-0.0800000037997961
 20
-0.0700000033248216
 30
0
 11
0.0800000037997961
 21
0.0555275638251617
 31
0
 12
0.0800000037997961
 22
-0.0555275638251617
 32
0
 13
0.0800000037997961
 23
-0.0555275638251617
 33
0
0
3DFACE
8
8
 62
8
 10
0.0800000037997961
 20
0.0555275638251617
 30
0
 11
0.0800000037997961
 21
-0.0555275638251617
 31
0
 12
0.0800000037997961
 22
-0.0555275638251617
 32
0
 13
0.0800000037997961
 23
-0.0555275638251617
 33
0
0
3DFACE
8
8
 62
8
 10
-0.0800000037997961
 20
-0.0700000033248216
 30
0
 11
0.0800000037997961
 21
-0.0555275638251617
 31
0
 12
-0.0456850416901866
 22
-0.0700000033248216
 32
0
 13
-0.0456850416901866
 23
-0.0700000033248216
 33
0
0
3DFACE
8
8
 62
8
 10
0.0800000037997961
 20
-0.0555275638251617
 30
0
 11
0.0800000037997961
 21
-0.0700000033248216
 31
0
 12
0.0456850416901866
 22
-0.0700000033248216
 32
0
 13
0.0456850416901866
 23
-0.0700000033248216
 33
0
0
3DFACE
8
8
 62
8
 10
0.0800000037997961
 20
-0.0700000033248216
 30
0
 11
0.0456850416901866
 21
-0.0700000033248216
 31
0
 12
0.0456850416901866
 22
-0.0700000033248216
 32
0
 13
0.0456850416901866
 23
-0.0700000033248216
 33
0
0
3DFACE
8
8
 62
8
 10
0.0800000037997961
 20
-0.0555275638251617
 30
0
 11
0.0456850416901866
 21
-0.0700000033248216
 31
0
 12
-0.0456850416901866
 22
-0.0700000033248216
 32
0
 13
-0.0456850416901866
 23
-0.0700000033248216
 33
0
0
3DFACE
8
8
 62
8
 10
-0.0800000037997961
 20
-0.0700000033248216
 30
0
 11
-0.0456850416901866
 21
-0.0700000033248216
 31
0
 12
-0.0456850416901866
 22
-0.0700000033248216
 32
0
 13
-0.0456850416901866
 23
-0.0700000033248216
 33
0
0
3DFACE
8
8
 62
8
 10
-0.0800000037997961
 20
-0.0700000033248216
 30
0.0340000016149133
 11
-0.0800000037997961
 21
-0.0555275638251617
 31
0.0340000016149133
 12
-0.0800000037997961
 22
-0.0555275638251617
 32
0.0340000016149133
 13
-0.0800000037997961
 23
-0.0555275638251617
 33
0.0340000016149133
0
3DFACE
8
8
 62
8
 10
-0.0800000037997961
 20
-0.0700000033248216
 30
0.0340000016149133
 11
-0.0800000037997961
 21
-0.0555275638251617
 31
0.0340000016149133
 12
-0.0456850416901866
 22
0.0700000033248216
 32
0.0340000016149133
 13
-0.0456850416901866
 23
0.0700000033248216
 33
0.0340000016149133
0
3DFACE
8
8
 62
8
 10
-0.0800000037997961
 20
-0.0555275638251617
 30
0.0340000016149133
 11
-0.0800000037997961
 21
0.0555275638251617
 31
0.0340000016149133
 12
-0.0800000037997961
 22
0.0555275638251617
 32
0.0340000016149133
 13
-0.0800000037997961
 23
0.0555275638251617
 33
0.0340000016149133
0
3DFACE
8
8
 62
8
 10
-0.0800000037997961
 20
-0.0555275638251617
 30
0.0340000016149133
 11
-0.0800000037997961
 21
0.0555275638251617
 31
0.0340000016149133
 12
-0.0456850416901866
 22
0.0700000033248216
 32
0.0340000016149133
 13
-0.0456850416901866
 23
0.0700000033248216
 33
0.0340000016149133
0
3DFACE
8
8
 62
8
 10
-0.0800000037997961
 20
0.0555275638251617
 30
0.0340000016149133
 11
-0.0800000037997961
 21
0.0700000033248216
 31
0.0340000016149133
 12
-0.0456850416901866
 22
0.0700000033248216
 32
0.0340000016149133
 13
-0.0456850416901866
 23
0.0700000033248216
 33
0.0340000016149133
0
3DFACE
8
8
 62
8
 10
-0.0800000037997961
 20
-0.0555275638251617
 30
0.0340000016149133
 11
-0.0456850416901866
 21
0.0700000033248216
 31
0.0340000016149133
 12
-0.0456850416901866
 22
0.0700000033248216
 32
0.0340000016149133
 13
-0.0456850416901866
 23
0.0700000033248216
 33
0.0340000016149133
0
3DFACE
8
8
 62
8
 10
-0.0800000037997961
 20
-0.0700000033248216
 30
0.0340000016149133
 11
-0.0456850416901866
 21
0.0700000033248216
 31
0.0340000016149133
 12
0.0456850416901866
 22
0.0700000033248216
 32
0.0340000016149133
 13
0.0456850416901866
 23
0.0700000033248216
 33
0.0340000016149133
0
3DFACE
8
8
 62
8
 10
-0.0456850416901866
 20
0.0700000033248216
 30
0.0340000016149133
 11
0.0456850416901866
 21
0.0700000033248216
 31
0.0340000016149133
 12
0.0456850416901866
 22
0.0700000033248216
 32
0.0340000016149133
 13
0.0456850416901866
 23
0.0700000033248216
 33
0.0340000016149133
0
3DFACE
8
8
 62
8
 10
-0.0800000037997961
 20
-0.0700000033248216
 30
0.0340000016149133
 11
0.0456850416901866
 21
0.0700000033248216
 31
0.0340000016149133
 12
0.0800000037997961
 22
0.0700000033248216
 32
0.0340000016149133
 13
0.0800000037997961
 23
0.0700000033248216
 33
0.0340000016149133
0
3DFACE
8
8
 62
8
 10
-0.0800000037997961
 20
-0.0700000033248216
 30
0.0340000016149133
 11
0.0800000037997961
 21
0.0700000033248216
 31
0.0340000016149133
 12
0.0800000037997961
 22
0.0555275638251617
 32
0.0340000016149133
 13
0.0800000037997961
 23
0.0555275638251617
 33
0.0340000016149133
0
3DFACE
8
8
 62
8
 10
0.0800000037997961
 20
0.0700000033248216
 30
0.0340000016149133
 11
0.0800000037997961
 21
0.0555275638251617
 31
0.0340000016149133
 12
0.0800000037997961
 22
0.0555275638251617
 32
0.0340000016149133
 13
0.0800000037997961
 23
0.0555275638251617
 33
0.0340000016149133
0
3DFACE
8
8
 62
8
 10
-0.0800000037997961
 20
-0.0700000033248216
 30
0.0340000016149133
 11
0.0800000037997961
 21
0.0555275638251617
 31
0.0340000016149133
 12
0.0800000037997961
 22
-0.0555275638251617
 32
0.0340000016149133
 13
0.0800000037997961
 23
-0.0555275638251617
 33
0.0340000016149133
0
3DFACE
8
8
 62
8
 10
0.0800000037997961
 20
0.0555275638251617
 30
0.0340000016149133
 11
0.0800000037997961
 21
-0.0555275638251617
 31
0.0340000016149133
 12
0.0800000037997961
 22
-0.0555275638251617
 32
0.0340000016149133
 13
0.0800000037997961
 23
-0.0555275638251617
 33
0.0340000016149133
0
3DFACE
8
8
 62
8
 10
-0.0800000037997961
 20
-0.0700000033248216
 30
0.0340000016149133
 11
0.0800000037997961
 21
-0.0555275638251617
 31
0.0340000016149133
 12
-0.0456850416901866
 22
-0.0700000033248216
 32
0.0340000016149133
 13
-0.0456850416901866
 23
-0.0700000033248216
 33
0.0340000016149133
0
3DFACE
8
8
 62
8
 10
0.0800000037997961
 20
-0.0555275638251617
 30
0.0340000016149133
 11
0.0800000037997961
 21
-0.0700000033248216
 31
0.0340000016149133
 12
0.0456850416901866
 22
-0.0700000033248216
 32
0.0340000016149133
 13
0.0456850416901866
 23
-0.0700000033248216
 33
0.0340000016149133
0
3DFACE
8
8
 62
8
 10
0.0800000037997961
 20
-0.0700000033248216
 30
0.0340000016149133
 11
0.0456850416901866
 21
-0.0700000033248216
 31
0.0340000016149133
 12
0.0456850416901866
 22
-0.0700000033248216
 32
0.0340000016149133
 13
0.0456850416901866
 23
-0.0700000033248216
 33
0.0340000016149133
0
3DFACE
8
8
 62
8
 10
0.0800000037997961
 20
-0.0555275638251617
 30
0.0340000016149133
 11
0.0456850416901866
 21
-0.0700000033248216
 31
0.0340000016149133
 12
-0.0456850416901866
 22
-0.0700000033248216
 32
0.0340000016149133
 13
-0.0456850416901866
 23
-0.0700000033248216
 33
0.0340000016149133
0
3DFACE
8
8
 62
8
 10
-0.0800000037997961
 20
-0.0700000033248216
 30
0.0340000016149133
 11
-0.0456850416901866
 21
-0.0700000033248216
 31
0.0340000016149133
 12
-0.0456850416901866
 22
-0.0700000033248216
 32
0.0340000016149133
 13
-0.0456850416901866
 23
-0.0700000033248216
 33
0.0340000016149133
0
3DFACE
8
8
 62
8
 10
-0.0456850416901866
 20
-0.0700000033248216
 30
0
 11
-0.0800000037997961
 21
-0.0700000033248216
 31
0
 12
-0.0800000037997961
 22
-0.0700000033248216
 32
0.0340000016149133
 13
-0.0456850416901866
 23
-0.0700000033248216
 33
0.0340000016149133
0
3DFACE
8
8
 62
8
 10
-0.0800000037997961
 20
-0.0700000033248216
 30
0
 11
-0.0800000037997961
 21
-0.0555275638251617
 31
0
 12
-0.0800000037997961
 22
-0.0555275638251617
 32
0.0340000016149133
 13
-0.0800000037997961
 23
-0.0700000033248216
 33
0.0340000016149133
0
3DFACE
8
8
 62
8
 10
-0.0800000037997961
 20
-0.0555275638251617
 30
0
 11
-0.0800000037997961
 21
-0.0555275638251617
 31
0
 12
-0.0800000037997961
 22
-0.0555275638251617
 32
0.0340000016149133
 13
-0.0800000037997961
 23
-0.0555275638251617
 33
0.0340000016149133
0
3DFACE
8
8
 62
8
 10
-0.0800000037997961
 20
-0.0555275638251617
 30
0
 11
-0.0800000037997961
 21
0.0555275638251617
 31
0
 12
-0.0800000037997961
 22
0.0555275638251617
 32
0.0340000016149133
 13
-0.0800000037997961
 23
-0.0555275638251617
 33
0.0340000016149133
0
3DFACE
8
8
 62
8
 10
-0.0800000037997961
 20
0.0555275638251617
 30
0
 11
-0.0800000037997961
 21
0.0555275638251617
 31
0
 12
-0.0800000037997961
 22
0.0555275638251617
 32
0.0340000016149133
 13
-0.0800000037997961
 23
0.0555275638251617
 33
0.0340000016149133
0
3DFACE
8
8
 62
8
 10
-0.0800000037997961
 20
0.0555275638251617
 30
0
 11
-0.0800000037997961
 21
0.0700000033248216
 31
0
 12
-0.0800000037997961
 22
0.0700000033248216
 32
0.0340000016149133
 13
-0.0800000037997961
 23
0.0555275638251617
 33
0.0340000016149133
0
3DFACE
8
8
 62
8
 10
-0.0800000037997961
 20
0.0700000033248216
 30
0
 11
-0.0456850416901866
 21
0.0700000033248216
 31
0
 12
-0.0456850416901866
 22
0.0700000033248216
 32
0.0340000016149133
 13
-0.0800000037997961
 23
0.0700000033248216
 33
0.0340000016149133
0
3DFACE
8
8
 62
8
 10
-0.0456850416901866
 20
0.0700000033248216
 30
0
 11
-0.0456850416901866
 21
0.0700000033248216
 31
0
 12
-0.0456850416901866
 22
0.0700000033248216
 32
0.0340000016149133
 13
-0.0456850416901866
 23
0.0700000033248216
 33
0.0340000016149133
0
3DFACE
8
8
 62
8
 10
-0.0456850416901866
 20
0.0700000033248216
 30
0
 11
0.0456850416901866
 21
0.0700000033248216
 31
0
 12
0.0456850416901866
 22
0.0700000033248216
 32
0.0340000016149133
 13
-0.0456850416901866
 23
0.0700000033248216
 33
0.0340000016149133
0
3DFACE
8
8
 62
8
 10
0.0456850416901866
 20
0.0700000033248216
 30
0
 11
0.0456850416901866
 21
0.0700000033248216
 31
0
 12
0.0456850416901866
 22
0.0700000033248216
 32
0.0340000016149133
 13
0.0456850416901866
 23
0.0700000033248216
 33
0.0340000016149133
0
3DFACE
8
8
 62
8
 10
0.0456850416901866
 20
0.0700000033248216
 30
0
 11
0.0800000037997961
 21
0.0700000033248216
 31
0
 12
0.0800000037997961
 22
0.0700000033248216
 32
0.0340000016149133
 13
0.0456850416901866
 23
0.0700000033248216
 33
0.0340000016149133
0
3DFACE
8
8
 62
8
 10
0.0800000037997961
 20
0.0700000033248216
 30
0
 11
0.0800000037997961
 21
0.0555275638251617
 31
0
 12
0.0800000037997961
 22
0.0555275638251617
 32
0.0340000016149133
 13
0.0800000037997961
 23
0.0700000033248216
 33
0.0340000016149133
0
3DFACE
8
8
 62
8
 10
0.0800000037997961
 20
0.0555275638251617
 30
0
 11
0.0800000037997961
 21
0.0555275638251617
 31
0
 12
0.0800000037997961
 22
0.0555275638251617
 32
0.0340000016149133
 13
0.0800000037997961
 23
0.0555275638251617
 33
0.0340000016149133
0
3DFACE
8
8
 62
8
 10
0.0800000037997961
 20
0.0555275638251617
 30
0
 11
0.0800000037997961
 21
-0.0555275638251617
 31
0
 12
0.0800000037997961
 22
-0.0555275638251617
 32
0.0340000016149133
 13
0.0800000037997961
 23
0.0555275638251617
 33
0.0340000016149133
0
3DFACE
8
8
 62
8
 10
0.0800000037997961
 20
-0.0555275638251617
 30
0
 11
0.0800000037997961
 21
-0.0555275638251617
 31
0
 12
0.0800000037997961
 22
-0.0555275638251617
 32
0.0340000016149133
 13
0.0800000037997961
 23
-0.0555275638251617
 33
0.0340000016149133
0
3DFACE
8
8
 62
8
 10
0.0800000037997961
 20
-0.0555275638251617
 30
0
 11
0.0800000037997961
 21
-0.0700000033248216
 31
0
 12
0.0800000037997961
 22
-0.0700000033248216
 32
0.0340000016149133
 13
0.0800000037997961
 23
-0.0555275638251617
 33
0.0340000016149133
0
3DFACE
8
8
 62
8
 10
0.0800000037997961
 20
-0.0700000033248216
 30
0
 11
0.0456850416901866
 21
-0.0700000033248216
 31
0
 12
0.0456850416901866
 22
-0.0700000033248216
 32
0.0340000016149133
 13
0.0800000037997961
 23
-0.0700000033248216
 33
0.0340000016149133
0
3DFACE
8
8
 62
8
 10
0.0456850416901866
 20
-0.0700000033248216
 30
0
 11
0.0456850416901866
 21
-0.0700000033248216
 31
0
 12
0.0456850416901866
 22
-0.0700000033248216
 32
0.0340000016149133
 13
0.0456850416901866
 23
-0.0700000033248216
 33
0.0340000016149133
0
3DFACE
8
8
 62
8
 10
0.0456850416901866
 20
-0.0700000033248216
 30
0
 11
-0.0456850416901866
 21
-0.0700000033248216
 31
0
 12
-0.0456850416901866
 22
-0.0700000033248216
 32
0.0340000016149133
 13
0.0456850416901866
 23
-0.0700000033248216
 33
0.0340000016149133
0
3DFACE
8
8
 62
8
 10
-0.0456850416901866
 20
-0.0700000033248216
 30
0
 11
-0.0456850416901866
 21
-0.0700000033248216
 31
0
 12
-0.0456850416901866
 22
-0.0700000033248216
 32
0.0340000016149133
 13
-0.0456850416901866
 23
-0.0700000033248216
 33
0.0340000016149133
 0
ENDBLK
 0
BLOCK
 70
0
 2
TOP_VALOR_Polygon_82
 10
0
 20
0
 30
0
0
3DFACE
8
23
 62
23
 10
-0.0840000039897859
 20
-0.0740000035148114
 30
0
 11
-0.0840000039897859
 21
0.0740000035148114
 31
0
 12
0.0840000039897859
 22
0.0740000035148114
 32
0
 13
0.0840000039897859
 23
-0.0740000035148114
 33
0
0
3DFACE
8
23
 62
23
 10
-0.0840000039897859
 20
-0.0740000035148114
 30
0.0340000016149133
 11
-0.0840000039897859
 21
0.0740000035148114
 31
0.0340000016149133
 12
0.0840000039897859
 22
0.0740000035148114
 32
0.0340000016149133
 13
0.0840000039897859
 23
-0.0740000035148114
 33
0.0340000016149133
0
3DFACE
8
23
 62
23
 10
0.0840000039897859
 20
-0.0740000035148114
 30
0
 11
-0.0840000039897859
 21
-0.0740000035148114
 31
0
 12
-0.0840000039897859
 22
-0.0740000035148114
 32
0.0340000016149133
 13
0.0840000039897859
 23
-0.0740000035148114
 33
0.0340000016149133
0
3DFACE
8
23
 62
23
 10
-0.0840000039897859
 20
-0.0740000035148114
 30
0
 11
-0.0840000039897859
 21
0.0740000035148114
 31
0
 12
-0.0840000039897859
 22
0.0740000035148114
 32
0.0340000016149133
 13
-0.0840000039897859
 23
-0.0740000035148114
 33
0.0340000016149133
0
3DFACE
8
23
 62
23
 10
-0.0840000039897859
 20
0.0740000035148114
 30
0
 11
0.0840000039897859
 21
0.0740000035148114
 31
0
 12
0.0840000039897859
 22
0.0740000035148114
 32
0.0340000016149133
 13
-0.0840000039897859
 23
0.0740000035148114
 33
0.0340000016149133
0
3DFACE
8
23
 62
23
 10
0.0840000039897859
 20
0.0740000035148114
 30
0
 11
0.0840000039897859
 21
-0.0740000035148114
 31
0
 12
0.0840000039897859
 22
-0.0740000035148114
 32
0.0340000016149133
 13
0.0840000039897859
 23
0.0740000035148114
 33
0.0340000016149133
 0
ENDBLK
0
ENDSEC
0
SECTION
2
ENTITIES
 0
INSERT
 8
2
 2
TOP_SILKSCREEN_Polygon_8
 10
0
 20
0
 30
0
 41
1
 42
1
 43
1
 0
INSERT
 8
8
 2
TOP_PLACE_BOUND_Polygon_50
 10
0
 20
0
 30
0
 41
1
 42
1
 43
1
 0
INSERT
 8
23
 2
TOP_VALOR_Polygon_82
 10
0
 20
0
 30
0
 41
1
 42
1
 43
1
0
ENDSEC
 0
EOF

