 999
VISION3D DXF
0
SECTION
2
HEADER
0
ENDSEC
0
SECTION
2
TABLES
0
ENDSEC
0
SECTION
2
BLOCKS
 0
BLOCK
 70
0
 2
TOP_PLACE_BOUND_Polygon_55
 10
0
 20
0
 30
0
0
3DFACE
8
8
 62
8
 10
-0.101055104287165
 20
-0.0684015764300527
 30
0
 11
-0.101055104287165
 21
0.0684015764300527
 31
0
 12
-0.0535000025411136
 22
0.0684015764300527
 32
0
 13
-0.0535000025411136
 23
0.0684015764300527
 33
0
0
3DFACE
8
8
 62
8
 10
-0.101055104287165
 20
-0.0684015764300527
 30
0
 11
-0.0535000025411136
 21
0.0684015764300527
 31
0
 12
0.0535000025411136
 22
0.0810000038472936
 32
0
 13
0.0535000025411136
 23
0.0810000038472936
 33
0
0
3DFACE
8
8
 62
8
 10
-0.0535000025411136
 20
0.0684015764300527
 30
0
 11
-0.0535000025411136
 21
0.0810000038472936
 31
0
 12
0.0535000025411136
 22
0.0810000038472936
 32
0
 13
0.0535000025411136
 23
0.0810000038472936
 33
0
0
3DFACE
8
8
 62
8
 10
-0.101055104287165
 20
-0.0684015764300527
 30
0
 11
0.0535000025411136
 21
0.0810000038472936
 31
0
 12
0.0535000025411136
 22
0.0684015764300527
 32
0
 13
0.0535000025411136
 23
0.0684015764300527
 33
0
0
3DFACE
8
8
 62
8
 10
-0.101055104287165
 20
-0.0684015764300527
 30
0
 11
0.0535000025411136
 21
0.0684015764300527
 31
0
 12
0.101055104287165
 22
0.0684015764300527
 32
0
 13
0.101055104287165
 23
0.0684015764300527
 33
0
0
3DFACE
8
8
 62
8
 10
-0.101055104287165
 20
-0.0684015764300527
 30
0
 11
0.101055104287165
 21
0.0684015764300527
 31
0
 12
-0.0535000025411136
 22
-0.0684015764300527
 32
0
 13
-0.0535000025411136
 23
-0.0684015764300527
 33
0
0
3DFACE
8
8
 62
8
 10
0.101055104287165
 20
0.0684015764300527
 30
0
 11
0.101055104287165
 21
-0.0684015764300527
 31
0
 12
0.0535000025411136
 22
-0.0684015764300527
 32
0
 13
0.0535000025411136
 23
-0.0684015764300527
 33
0
0
3DFACE
8
8
 62
8
 10
0.101055104287165
 20
0.0684015764300527
 30
0
 11
0.0535000025411136
 21
-0.0684015764300527
 31
0
 12
-0.0535000025411136
 22
-0.0810000038472936
 32
0
 13
-0.0535000025411136
 23
-0.0810000038472936
 33
0
0
3DFACE
8
8
 62
8
 10
0.0535000025411136
 20
-0.0684015764300527
 30
0
 11
0.0535000025411136
 21
-0.0810000038472936
 31
0
 12
-0.0535000025411136
 22
-0.0810000038472936
 32
0
 13
-0.0535000025411136
 23
-0.0810000038472936
 33
0
0
3DFACE
8
8
 62
8
 10
0.101055104287165
 20
0.0684015764300527
 30
0
 11
-0.0535000025411136
 21
-0.0810000038472936
 31
0
 12
-0.0535000025411136
 22
-0.0684015764300527
 32
0
 13
-0.0535000025411136
 23
-0.0684015764300527
 33
0
0
3DFACE
8
8
 62
8
 10
-0.101055104287165
 20
-0.0684015764300527
 30
0.0450000021373853
 11
-0.101055104287165
 21
0.0684015764300527
 31
0.0450000021373853
 12
-0.0535000025411136
 22
0.0684015764300527
 32
0.0450000021373853
 13
-0.0535000025411136
 23
0.0684015764300527
 33
0.0450000021373853
0
3DFACE
8
8
 62
8
 10
-0.101055104287165
 20
-0.0684015764300527
 30
0.0450000021373853
 11
-0.0535000025411136
 21
0.0684015764300527
 31
0.0450000021373853
 12
0.0535000025411136
 22
0.0810000038472936
 32
0.0450000021373853
 13
0.0535000025411136
 23
0.0810000038472936
 33
0.0450000021373853
0
3DFACE
8
8
 62
8
 10
-0.0535000025411136
 20
0.0684015764300527
 30
0.0450000021373853
 11
-0.0535000025411136
 21
0.0810000038472936
 31
0.0450000021373853
 12
0.0535000025411136
 22
0.0810000038472936
 32
0.0450000021373853
 13
0.0535000025411136
 23
0.0810000038472936
 33
0.0450000021373853
0
3DFACE
8
8
 62
8
 10
-0.101055104287165
 20
-0.0684015764300527
 30
0.0450000021373853
 11
0.0535000025411136
 21
0.0810000038472936
 31
0.0450000021373853
 12
0.0535000025411136
 22
0.0684015764300527
 32
0.0450000021373853
 13
0.0535000025411136
 23
0.0684015764300527
 33
0.0450000021373853
0
3DFACE
8
8
 62
8
 10
-0.101055104287165
 20
-0.0684015764300527
 30
0.0450000021373853
 11
0.0535000025411136
 21
0.0684015764300527
 31
0.0450000021373853
 12
0.101055104287165
 22
0.0684015764300527
 32
0.0450000021373853
 13
0.101055104287165
 23
0.0684015764300527
 33
0.0450000021373853
0
3DFACE
8
8
 62
8
 10
-0.101055104287165
 20
-0.0684015764300527
 30
0.0450000021373853
 11
0.101055104287165
 21
0.0684015764300527
 31
0.0450000021373853
 12
-0.0535000025411136
 22
-0.0684015764300527
 32
0.0450000021373853
 13
-0.0535000025411136
 23
-0.0684015764300527
 33
0.0450000021373853
0
3DFACE
8
8
 62
8
 10
0.101055104287165
 20
0.0684015764300527
 30
0.0450000021373853
 11
0.101055104287165
 21
-0.0684015764300527
 31
0.0450000021373853
 12
0.0535000025411136
 22
-0.0684015764300527
 32
0.0450000021373853
 13
0.0535000025411136
 23
-0.0684015764300527
 33
0.0450000021373853
0
3DFACE
8
8
 62
8
 10
0.101055104287165
 20
0.0684015764300527
 30
0.0450000021373853
 11
0.0535000025411136
 21
-0.0684015764300527
 31
0.0450000021373853
 12
-0.0535000025411136
 22
-0.0810000038472936
 32
0.0450000021373853
 13
-0.0535000025411136
 23
-0.0810000038472936
 33
0.0450000021373853
0
3DFACE
8
8
 62
8
 10
0.0535000025411136
 20
-0.0684015764300527
 30
0.0450000021373853
 11
0.0535000025411136
 21
-0.0810000038472936
 31
0.0450000021373853
 12
-0.0535000025411136
 22
-0.0810000038472936
 32
0.0450000021373853
 13
-0.0535000025411136
 23
-0.0810000038472936
 33
0.0450000021373853
0
3DFACE
8
8
 62
8
 10
0.101055104287165
 20
0.0684015764300527
 30
0.0450000021373853
 11
-0.0535000025411136
 21
-0.0810000038472936
 31
0.0450000021373853
 12
-0.0535000025411136
 22
-0.0684015764300527
 32
0.0450000021373853
 13
-0.0535000025411136
 23
-0.0684015764300527
 33
0.0450000021373853
0
3DFACE
8
8
 62
8
 10
-0.0535000025411136
 20
-0.0684015764300527
 30
0
 11
-0.101055104287165
 21
-0.0684015764300527
 31
0
 12
-0.101055104287165
 22
-0.0684015764300527
 32
0.0450000021373853
 13
-0.0535000025411136
 23
-0.0684015764300527
 33
0.0450000021373853
0
3DFACE
8
8
 62
8
 10
-0.101055104287165
 20
-0.0684015764300527
 30
0
 11
-0.101055104287165
 21
0.0684015764300527
 31
0
 12
-0.101055104287165
 22
0.0684015764300527
 32
0.0450000021373853
 13
-0.101055104287165
 23
-0.0684015764300527
 33
0.0450000021373853
0
3DFACE
8
8
 62
8
 10
-0.101055104287165
 20
0.0684015764300527
 30
0
 11
-0.0535000025411136
 21
0.0684015764300527
 31
0
 12
-0.0535000025411136
 22
0.0684015764300527
 32
0.0450000021373853
 13
-0.101055104287165
 23
0.0684015764300527
 33
0.0450000021373853
0
3DFACE
8
8
 62
8
 10
-0.0535000025411136
 20
0.0684015764300527
 30
0
 11
-0.0535000025411136
 21
0.0810000038472936
 31
0
 12
-0.0535000025411136
 22
0.0810000038472936
 32
0.0450000021373853
 13
-0.0535000025411136
 23
0.0684015764300527
 33
0.0450000021373853
0
3DFACE
8
8
 62
8
 10
-0.0535000025411136
 20
0.0810000038472936
 30
0
 11
0.0535000025411136
 21
0.0810000038472936
 31
0
 12
0.0535000025411136
 22
0.0810000038472936
 32
0.0450000021373853
 13
-0.0535000025411136
 23
0.0810000038472936
 33
0.0450000021373853
0
3DFACE
8
8
 62
8
 10
0.0535000025411136
 20
0.0810000038472936
 30
0
 11
0.0535000025411136
 21
0.0684015764300527
 31
0
 12
0.0535000025411136
 22
0.0684015764300527
 32
0.0450000021373853
 13
0.0535000025411136
 23
0.0810000038472936
 33
0.0450000021373853
0
3DFACE
8
8
 62
8
 10
0.0535000025411136
 20
0.0684015764300527
 30
0
 11
0.101055104287165
 21
0.0684015764300527
 31
0
 12
0.101055104287165
 22
0.0684015764300527
 32
0.0450000021373853
 13
0.0535000025411136
 23
0.0684015764300527
 33
0.0450000021373853
0
3DFACE
8
8
 62
8
 10
0.101055104287165
 20
0.0684015764300527
 30
0
 11
0.101055104287165
 21
-0.0684015764300527
 31
0
 12
0.101055104287165
 22
-0.0684015764300527
 32
0.0450000021373853
 13
0.101055104287165
 23
0.0684015764300527
 33
0.0450000021373853
0
3DFACE
8
8
 62
8
 10
0.101055104287165
 20
-0.0684015764300527
 30
0
 11
0.0535000025411136
 21
-0.0684015764300527
 31
0
 12
0.0535000025411136
 22
-0.0684015764300527
 32
0.0450000021373853
 13
0.101055104287165
 23
-0.0684015764300527
 33
0.0450000021373853
0
3DFACE
8
8
 62
8
 10
0.0535000025411136
 20
-0.0684015764300527
 30
0
 11
0.0535000025411136
 21
-0.0810000038472936
 31
0
 12
0.0535000025411136
 22
-0.0810000038472936
 32
0.0450000021373853
 13
0.0535000025411136
 23
-0.0684015764300527
 33
0.0450000021373853
0
3DFACE
8
8
 62
8
 10
0.0535000025411136
 20
-0.0810000038472936
 30
0
 11
-0.0535000025411136
 21
-0.0810000038472936
 31
0
 12
-0.0535000025411136
 22
-0.0810000038472936
 32
0.0450000021373853
 13
0.0535000025411136
 23
-0.0810000038472936
 33
0.0450000021373853
0
3DFACE
8
8
 62
8
 10
-0.0535000025411136
 20
-0.0810000038472936
 30
0
 11
-0.0535000025411136
 21
-0.0684015764300527
 31
0
 12
-0.0535000025411136
 22
-0.0684015764300527
 32
0.0450000021373853
 13
-0.0535000025411136
 23
-0.0810000038472936
 33
0.0450000021373853
 0
ENDBLK
 0
BLOCK
 70
0
 2
TOP_VALOR_Polygon_73
 10
0
 20
0
 30
0
0
3DFACE
8
23
 62
23
 10
-0.106055104524652
 20
-0.071000003372319
 30
0
 11
-0.106055104524652
 21
0.071000003372319
 31
0
 12
0.106055104524652
 22
0.071000003372319
 32
0
 13
0.106055104524652
 23
-0.071000003372319
 33
0
0
3DFACE
8
23
 62
23
 10
-0.106055104524652
 20
-0.071000003372319
 30
0.0450000021373853
 11
-0.106055104524652
 21
0.071000003372319
 31
0.0450000021373853
 12
0.106055104524652
 22
0.071000003372319
 32
0.0450000021373853
 13
0.106055104524652
 23
-0.071000003372319
 33
0.0450000021373853
0
3DFACE
8
23
 62
23
 10
0.106055104524652
 20
-0.071000003372319
 30
0
 11
-0.106055104524652
 21
-0.071000003372319
 31
0
 12
-0.106055104524652
 22
-0.071000003372319
 32
0.0450000021373853
 13
0.106055104524652
 23
-0.071000003372319
 33
0.0450000021373853
0
3DFACE
8
23
 62
23
 10
-0.106055104524652
 20
-0.071000003372319
 30
0
 11
-0.106055104524652
 21
0.071000003372319
 31
0
 12
-0.106055104524652
 22
0.071000003372319
 32
0.0450000021373853
 13
-0.106055104524652
 23
-0.071000003372319
 33
0.0450000021373853
0
3DFACE
8
23
 62
23
 10
-0.106055104524652
 20
0.071000003372319
 30
0
 11
0.106055104524652
 21
0.071000003372319
 31
0
 12
0.106055104524652
 22
0.071000003372319
 32
0.0450000021373853
 13
-0.106055104524652
 23
0.071000003372319
 33
0.0450000021373853
0
3DFACE
8
23
 62
23
 10
0.106055104524652
 20
0.071000003372319
 30
0
 11
0.106055104524652
 21
-0.071000003372319
 31
0
 12
0.106055104524652
 22
-0.071000003372319
 32
0.0450000021373853
 13
0.106055104524652
 23
0.071000003372319
 33
0.0450000021373853
 0
ENDBLK
0
ENDSEC
0
SECTION
2
ENTITIES
 0
INSERT
 8
8
 2
TOP_PLACE_BOUND_Polygon_55
 10
0
 20
0
 30
0
 41
1
 42
1
 43
1
 0
INSERT
 8
23
 2
TOP_VALOR_Polygon_73
 10
0
 20
0
 30
0
 41
1
 42
1
 43
1
0
ENDSEC
 0
EOF

