 999
VISION3D DXF
0
SECTION
2
HEADER
0
ENDSEC
0
SECTION
2
TABLES
0
ENDSEC
0
SECTION
2
BLOCKS
 0
BLOCK
 70
0
 2
TOP_PLACE_BOUND_Polygon_55
 10
0
 20
0
 30
0
0
3DFACE
8
8
 62
8
 10
-0.0830551034322102
 20
-0.0584015721403808
 30
0
 11
-0.0830551034322102
 21
0.0584015721403808
 31
0
 12
-0.0435000020661391
 22
0.0584015721403808
 32
0
 13
-0.0435000020661391
 23
0.0584015721403808
 33
0
0
3DFACE
8
8
 62
8
 10
-0.0830551034322102
 20
-0.0584015721403808
 30
0
 11
-0.0435000020661391
 21
0.0584015721403808
 31
0
 12
0.0435000020661391
 22
0.071000003372319
 32
0
 13
0.0435000020661391
 23
0.071000003372319
 33
0
0
3DFACE
8
8
 62
8
 10
-0.0435000020661391
 20
0.0584015721403808
 30
0
 11
-0.0435000020661391
 21
0.071000003372319
 31
0
 12
0.0435000020661391
 22
0.071000003372319
 32
0
 13
0.0435000020661391
 23
0.071000003372319
 33
0
0
3DFACE
8
8
 62
8
 10
-0.0830551034322102
 20
-0.0584015721403808
 30
0
 11
0.0435000020661391
 21
0.071000003372319
 31
0
 12
0.0435000020661391
 22
0.0584015721403808
 32
0
 13
0.0435000020661391
 23
0.0584015721403808
 33
0
0
3DFACE
8
8
 62
8
 10
-0.0830551034322102
 20
-0.0584015721403808
 30
0
 11
0.0435000020661391
 21
0.0584015721403808
 31
0
 12
0.0830551034322102
 22
0.0584015721403808
 32
0
 13
0.0830551034322102
 23
0.0584015721403808
 33
0
0
3DFACE
8
8
 62
8
 10
-0.0830551034322102
 20
-0.0584015721403808
 30
0
 11
0.0830551034322102
 21
0.0584015721403808
 31
0
 12
-0.0435000020661391
 22
-0.0584015721403808
 32
0
 13
-0.0435000020661391
 23
-0.0584015721403808
 33
0
0
3DFACE
8
8
 62
8
 10
0.0830551034322102
 20
0.0584015721403808
 30
0
 11
0.0830551034322102
 21
-0.0584015721403808
 31
0
 12
0.0435000020661391
 22
-0.0584015721403808
 32
0
 13
0.0435000020661391
 23
-0.0584015721403808
 33
0
0
3DFACE
8
8
 62
8
 10
0.0830551034322102
 20
0.0584015721403808
 30
0
 11
0.0435000020661391
 21
-0.0584015721403808
 31
0
 12
-0.0435000020661391
 22
-0.071000003372319
 32
0
 13
-0.0435000020661391
 23
-0.071000003372319
 33
0
0
3DFACE
8
8
 62
8
 10
0.0435000020661391
 20
-0.0584015721403808
 30
0
 11
0.0435000020661391
 21
-0.071000003372319
 31
0
 12
-0.0435000020661391
 22
-0.071000003372319
 32
0
 13
-0.0435000020661391
 23
-0.071000003372319
 33
0
0
3DFACE
8
8
 62
8
 10
0.0830551034322102
 20
0.0584015721403808
 30
0
 11
-0.0435000020661391
 21
-0.071000003372319
 31
0
 12
-0.0435000020661391
 22
-0.0584015721403808
 32
0
 13
-0.0435000020661391
 23
-0.0584015721403808
 33
0
0
3DFACE
8
8
 62
8
 10
-0.0830551034322102
 20
-0.0584015721403808
 30
0.0450000021373853
 11
-0.0830551034322102
 21
0.0584015721403808
 31
0.0450000021373853
 12
-0.0435000020661391
 22
0.0584015721403808
 32
0.0450000021373853
 13
-0.0435000020661391
 23
0.0584015721403808
 33
0.0450000021373853
0
3DFACE
8
8
 62
8
 10
-0.0830551034322102
 20
-0.0584015721403808
 30
0.0450000021373853
 11
-0.0435000020661391
 21
0.0584015721403808
 31
0.0450000021373853
 12
0.0435000020661391
 22
0.071000003372319
 32
0.0450000021373853
 13
0.0435000020661391
 23
0.071000003372319
 33
0.0450000021373853
0
3DFACE
8
8
 62
8
 10
-0.0435000020661391
 20
0.0584015721403808
 30
0.0450000021373853
 11
-0.0435000020661391
 21
0.071000003372319
 31
0.0450000021373853
 12
0.0435000020661391
 22
0.071000003372319
 32
0.0450000021373853
 13
0.0435000020661391
 23
0.071000003372319
 33
0.0450000021373853
0
3DFACE
8
8
 62
8
 10
-0.0830551034322102
 20
-0.0584015721403808
 30
0.0450000021373853
 11
0.0435000020661391
 21
0.071000003372319
 31
0.0450000021373853
 12
0.0435000020661391
 22
0.0584015721403808
 32
0.0450000021373853
 13
0.0435000020661391
 23
0.0584015721403808
 33
0.0450000021373853
0
3DFACE
8
8
 62
8
 10
-0.0830551034322102
 20
-0.0584015721403808
 30
0.0450000021373853
 11
0.0435000020661391
 21
0.0584015721403808
 31
0.0450000021373853
 12
0.0830551034322102
 22
0.0584015721403808
 32
0.0450000021373853
 13
0.0830551034322102
 23
0.0584015721403808
 33
0.0450000021373853
0
3DFACE
8
8
 62
8
 10
-0.0830551034322102
 20
-0.0584015721403808
 30
0.0450000021373853
 11
0.0830551034322102
 21
0.0584015721403808
 31
0.0450000021373853
 12
-0.0435000020661391
 22
-0.0584015721403808
 32
0.0450000021373853
 13
-0.0435000020661391
 23
-0.0584015721403808
 33
0.0450000021373853
0
3DFACE
8
8
 62
8
 10
0.0830551034322102
 20
0.0584015721403808
 30
0.0450000021373853
 11
0.0830551034322102
 21
-0.0584015721403808
 31
0.0450000021373853
 12
0.0435000020661391
 22
-0.0584015721403808
 32
0.0450000021373853
 13
0.0435000020661391
 23
-0.0584015721403808
 33
0.0450000021373853
0
3DFACE
8
8
 62
8
 10
0.0830551034322102
 20
0.0584015721403808
 30
0.0450000021373853
 11
0.0435000020661391
 21
-0.0584015721403808
 31
0.0450000021373853
 12
-0.0435000020661391
 22
-0.071000003372319
 32
0.0450000021373853
 13
-0.0435000020661391
 23
-0.071000003372319
 33
0.0450000021373853
0
3DFACE
8
8
 62
8
 10
0.0435000020661391
 20
-0.0584015721403808
 30
0.0450000021373853
 11
0.0435000020661391
 21
-0.071000003372319
 31
0.0450000021373853
 12
-0.0435000020661391
 22
-0.071000003372319
 32
0.0450000021373853
 13
-0.0435000020661391
 23
-0.071000003372319
 33
0.0450000021373853
0
3DFACE
8
8
 62
8
 10
0.0830551034322102
 20
0.0584015721403808
 30
0.0450000021373853
 11
-0.0435000020661391
 21
-0.071000003372319
 31
0.0450000021373853
 12
-0.0435000020661391
 22
-0.0584015721403808
 32
0.0450000021373853
 13
-0.0435000020661391
 23
-0.0584015721403808
 33
0.0450000021373853
0
3DFACE
8
8
 62
8
 10
-0.0435000020661391
 20
-0.0584015721403808
 30
0
 11
-0.0830551034322102
 21
-0.0584015721403808
 31
0
 12
-0.0830551034322102
 22
-0.0584015721403808
 32
0.0450000021373853
 13
-0.0435000020661391
 23
-0.0584015721403808
 33
0.0450000021373853
0
3DFACE
8
8
 62
8
 10
-0.0830551034322102
 20
-0.0584015721403808
 30
0
 11
-0.0830551034322102
 21
0.0584015721403808
 31
0
 12
-0.0830551034322102
 22
0.0584015721403808
 32
0.0450000021373853
 13
-0.0830551034322102
 23
-0.0584015721403808
 33
0.0450000021373853
0
3DFACE
8
8
 62
8
 10
-0.0830551034322102
 20
0.0584015721403808
 30
0
 11
-0.0435000020661391
 21
0.0584015721403808
 31
0
 12
-0.0435000020661391
 22
0.0584015721403808
 32
0.0450000021373853
 13
-0.0830551034322102
 23
0.0584015721403808
 33
0.0450000021373853
0
3DFACE
8
8
 62
8
 10
-0.0435000020661391
 20
0.0584015721403808
 30
0
 11
-0.0435000020661391
 21
0.071000003372319
 31
0
 12
-0.0435000020661391
 22
0.071000003372319
 32
0.0450000021373853
 13
-0.0435000020661391
 23
0.0584015721403808
 33
0.0450000021373853
0
3DFACE
8
8
 62
8
 10
-0.0435000020661391
 20
0.071000003372319
 30
0
 11
0.0435000020661391
 21
0.071000003372319
 31
0
 12
0.0435000020661391
 22
0.071000003372319
 32
0.0450000021373853
 13
-0.0435000020661391
 23
0.071000003372319
 33
0.0450000021373853
0
3DFACE
8
8
 62
8
 10
0.0435000020661391
 20
0.071000003372319
 30
0
 11
0.0435000020661391
 21
0.0584015721403808
 31
0
 12
0.0435000020661391
 22
0.0584015721403808
 32
0.0450000021373853
 13
0.0435000020661391
 23
0.071000003372319
 33
0.0450000021373853
0
3DFACE
8
8
 62
8
 10
0.0435000020661391
 20
0.0584015721403808
 30
0
 11
0.0830551034322102
 21
0.0584015721403808
 31
0
 12
0.0830551034322102
 22
0.0584015721403808
 32
0.0450000021373853
 13
0.0435000020661391
 23
0.0584015721403808
 33
0.0450000021373853
0
3DFACE
8
8
 62
8
 10
0.0830551034322102
 20
0.0584015721403808
 30
0
 11
0.0830551034322102
 21
-0.0584015721403808
 31
0
 12
0.0830551034322102
 22
-0.0584015721403808
 32
0.0450000021373853
 13
0.0830551034322102
 23
0.0584015721403808
 33
0.0450000021373853
0
3DFACE
8
8
 62
8
 10
0.0830551034322102
 20
-0.0584015721403808
 30
0
 11
0.0435000020661391
 21
-0.0584015721403808
 31
0
 12
0.0435000020661391
 22
-0.0584015721403808
 32
0.0450000021373853
 13
0.0830551034322102
 23
-0.0584015721403808
 33
0.0450000021373853
0
3DFACE
8
8
 62
8
 10
0.0435000020661391
 20
-0.0584015721403808
 30
0
 11
0.0435000020661391
 21
-0.071000003372319
 31
0
 12
0.0435000020661391
 22
-0.071000003372319
 32
0.0450000021373853
 13
0.0435000020661391
 23
-0.0584015721403808
 33
0.0450000021373853
0
3DFACE
8
8
 62
8
 10
0.0435000020661391
 20
-0.071000003372319
 30
0
 11
-0.0435000020661391
 21
-0.071000003372319
 31
0
 12
-0.0435000020661391
 22
-0.071000003372319
 32
0.0450000021373853
 13
0.0435000020661391
 23
-0.071000003372319
 33
0.0450000021373853
0
3DFACE
8
8
 62
8
 10
-0.0435000020661391
 20
-0.071000003372319
 30
0
 11
-0.0435000020661391
 21
-0.0584015721403808
 31
0
 12
-0.0435000020661391
 22
-0.0584015721403808
 32
0.0450000021373853
 13
-0.0435000020661391
 23
-0.071000003372319
 33
0.0450000021373853
 0
ENDBLK
 0
BLOCK
 70
0
 2
TOP_VALOR_Polygon_73
 10
0
 20
0
 30
0
0
3DFACE
8
23
 62
23
 10
-0.098055104144672
 20
-0.071000003372319
 30
0
 11
-0.098055104144672
 21
0.071000003372319
 31
0
 12
0.098055104144672
 22
0.071000003372319
 32
0
 13
0.098055104144672
 23
-0.071000003372319
 33
0
0
3DFACE
8
23
 62
23
 10
-0.098055104144672
 20
-0.071000003372319
 30
0.0450000021373853
 11
-0.098055104144672
 21
0.071000003372319
 31
0.0450000021373853
 12
0.098055104144672
 22
0.071000003372319
 32
0.0450000021373853
 13
0.098055104144672
 23
-0.071000003372319
 33
0.0450000021373853
0
3DFACE
8
23
 62
23
 10
0.098055104144672
 20
-0.071000003372319
 30
0
 11
-0.098055104144672
 21
-0.071000003372319
 31
0
 12
-0.098055104144672
 22
-0.071000003372319
 32
0.0450000021373853
 13
0.098055104144672
 23
-0.071000003372319
 33
0.0450000021373853
0
3DFACE
8
23
 62
23
 10
-0.098055104144672
 20
-0.071000003372319
 30
0
 11
-0.098055104144672
 21
0.071000003372319
 31
0
 12
-0.098055104144672
 22
0.071000003372319
 32
0.0450000021373853
 13
-0.098055104144672
 23
-0.071000003372319
 33
0.0450000021373853
0
3DFACE
8
23
 62
23
 10
-0.098055104144672
 20
0.071000003372319
 30
0
 11
0.098055104144672
 21
0.071000003372319
 31
0
 12
0.098055104144672
 22
0.071000003372319
 32
0.0450000021373853
 13
-0.098055104144672
 23
0.071000003372319
 33
0.0450000021373853
0
3DFACE
8
23
 62
23
 10
0.098055104144672
 20
0.071000003372319
 30
0
 11
0.098055104144672
 21
-0.071000003372319
 31
0
 12
0.098055104144672
 22
-0.071000003372319
 32
0.0450000021373853
 13
0.098055104144672
 23
0.071000003372319
 33
0.0450000021373853
 0
ENDBLK
0
ENDSEC
0
SECTION
2
ENTITIES
 0
INSERT
 8
8
 2
TOP_PLACE_BOUND_Polygon_55
 10
0
 20
0
 30
0
 41
1
 42
1
 43
1
 0
INSERT
 8
23
 2
TOP_VALOR_Polygon_73
 10
0
 20
0
 30
0
 41
1
 42
1
 43
1
0
ENDSEC
 0
EOF

