 999
VISION3D DXF
0
SECTION
2
HEADER
0
ENDSEC
0
SECTION
2
TABLES
0
ENDSEC
0
SECTION
2
BLOCKS
 0
BLOCK
 70
0
 2
TOP_PLACE_BOUND_Polygon_55
 10
0
 20
0
 30
0
0
3DFACE
8
8
 62
8
 10
-0.0690551027672459
 20
-0.0514015718078986
 30
0
 11
-0.0690551027672459
 21
0.0514015718078986
 31
0
 12
-0.0375000017811544
 22
0.0514015718078986
 32
0
 13
-0.0375000017811544
 23
0.0514015718078986
 33
0
0
3DFACE
8
8
 62
8
 10
-0.0690551027672459
 20
-0.0514015718078986
 30
0
 11
-0.0375000017811544
 21
0.0514015718078986
 31
0
 12
0.0375000017811544
 22
0.0650000030873343
 32
0
 13
0.0375000017811544
 23
0.0650000030873343
 33
0
0
3DFACE
8
8
 62
8
 10
-0.0375000017811544
 20
0.0514015718078986
 30
0
 11
-0.0375000017811544
 21
0.0650000030873343
 31
0
 12
0.0375000017811544
 22
0.0650000030873343
 32
0
 13
0.0375000017811544
 23
0.0650000030873343
 33
0
0
3DFACE
8
8
 62
8
 10
-0.0690551027672459
 20
-0.0514015718078986
 30
0
 11
0.0375000017811544
 21
0.0650000030873343
 31
0
 12
0.0375000017811544
 22
0.0514015718078986
 32
0
 13
0.0375000017811544
 23
0.0514015718078986
 33
0
0
3DFACE
8
8
 62
8
 10
-0.0690551027672459
 20
-0.0514015718078986
 30
0
 11
0.0375000017811544
 21
0.0514015718078986
 31
0
 12
0.0690551027672459
 22
0.0514015718078986
 32
0
 13
0.0690551027672459
 23
0.0514015718078986
 33
0
0
3DFACE
8
8
 62
8
 10
-0.0690551027672459
 20
-0.0514015718078986
 30
0
 11
0.0690551027672459
 21
0.0514015718078986
 31
0
 12
-0.0375000017811544
 22
-0.0514015718078986
 32
0
 13
-0.0375000017811544
 23
-0.0514015718078986
 33
0
0
3DFACE
8
8
 62
8
 10
0.0690551027672459
 20
0.0514015718078986
 30
0
 11
0.0690551027672459
 21
-0.0514015718078986
 31
0
 12
0.0375000017811544
 22
-0.0514015718078986
 32
0
 13
0.0375000017811544
 23
-0.0514015718078986
 33
0
0
3DFACE
8
8
 62
8
 10
0.0690551027672459
 20
0.0514015718078986
 30
0
 11
0.0375000017811544
 21
-0.0514015718078986
 31
0
 12
-0.0375000017811544
 22
-0.0650000030873343
 32
0
 13
-0.0375000017811544
 23
-0.0650000030873343
 33
0
0
3DFACE
8
8
 62
8
 10
0.0375000017811544
 20
-0.0514015718078986
 30
0
 11
0.0375000017811544
 21
-0.0650000030873343
 31
0
 12
-0.0375000017811544
 22
-0.0650000030873343
 32
0
 13
-0.0375000017811544
 23
-0.0650000030873343
 33
0
0
3DFACE
8
8
 62
8
 10
0.0690551027672459
 20
0.0514015718078986
 30
0
 11
-0.0375000017811544
 21
-0.0650000030873343
 31
0
 12
-0.0375000017811544
 22
-0.0514015718078986
 32
0
 13
-0.0375000017811544
 23
-0.0514015718078986
 33
0
0
3DFACE
8
8
 62
8
 10
-0.0690551027672459
 20
-0.0514015718078986
 30
0.0450000021373853
 11
-0.0690551027672459
 21
0.0514015718078986
 31
0.0450000021373853
 12
-0.0375000017811544
 22
0.0514015718078986
 32
0.0450000021373853
 13
-0.0375000017811544
 23
0.0514015718078986
 33
0.0450000021373853
0
3DFACE
8
8
 62
8
 10
-0.0690551027672459
 20
-0.0514015718078986
 30
0.0450000021373853
 11
-0.0375000017811544
 21
0.0514015718078986
 31
0.0450000021373853
 12
0.0375000017811544
 22
0.0650000030873343
 32
0.0450000021373853
 13
0.0375000017811544
 23
0.0650000030873343
 33
0.0450000021373853
0
3DFACE
8
8
 62
8
 10
-0.0375000017811544
 20
0.0514015718078986
 30
0.0450000021373853
 11
-0.0375000017811544
 21
0.0650000030873343
 31
0.0450000021373853
 12
0.0375000017811544
 22
0.0650000030873343
 32
0.0450000021373853
 13
0.0375000017811544
 23
0.0650000030873343
 33
0.0450000021373853
0
3DFACE
8
8
 62
8
 10
-0.0690551027672459
 20
-0.0514015718078986
 30
0.0450000021373853
 11
0.0375000017811544
 21
0.0650000030873343
 31
0.0450000021373853
 12
0.0375000017811544
 22
0.0514015718078986
 32
0.0450000021373853
 13
0.0375000017811544
 23
0.0514015718078986
 33
0.0450000021373853
0
3DFACE
8
8
 62
8
 10
-0.0690551027672459
 20
-0.0514015718078986
 30
0.0450000021373853
 11
0.0375000017811544
 21
0.0514015718078986
 31
0.0450000021373853
 12
0.0690551027672459
 22
0.0514015718078986
 32
0.0450000021373853
 13
0.0690551027672459
 23
0.0514015718078986
 33
0.0450000021373853
0
3DFACE
8
8
 62
8
 10
-0.0690551027672459
 20
-0.0514015718078986
 30
0.0450000021373853
 11
0.0690551027672459
 21
0.0514015718078986
 31
0.0450000021373853
 12
-0.0375000017811544
 22
-0.0514015718078986
 32
0.0450000021373853
 13
-0.0375000017811544
 23
-0.0514015718078986
 33
0.0450000021373853
0
3DFACE
8
8
 62
8
 10
0.0690551027672459
 20
0.0514015718078986
 30
0.0450000021373853
 11
0.0690551027672459
 21
-0.0514015718078986
 31
0.0450000021373853
 12
0.0375000017811544
 22
-0.0514015718078986
 32
0.0450000021373853
 13
0.0375000017811544
 23
-0.0514015718078986
 33
0.0450000021373853
0
3DFACE
8
8
 62
8
 10
0.0690551027672459
 20
0.0514015718078986
 30
0.0450000021373853
 11
0.0375000017811544
 21
-0.0514015718078986
 31
0.0450000021373853
 12
-0.0375000017811544
 22
-0.0650000030873343
 32
0.0450000021373853
 13
-0.0375000017811544
 23
-0.0650000030873343
 33
0.0450000021373853
0
3DFACE
8
8
 62
8
 10
0.0375000017811544
 20
-0.0514015718078986
 30
0.0450000021373853
 11
0.0375000017811544
 21
-0.0650000030873343
 31
0.0450000021373853
 12
-0.0375000017811544
 22
-0.0650000030873343
 32
0.0450000021373853
 13
-0.0375000017811544
 23
-0.0650000030873343
 33
0.0450000021373853
0
3DFACE
8
8
 62
8
 10
0.0690551027672459
 20
0.0514015718078986
 30
0.0450000021373853
 11
-0.0375000017811544
 21
-0.0650000030873343
 31
0.0450000021373853
 12
-0.0375000017811544
 22
-0.0514015718078986
 32
0.0450000021373853
 13
-0.0375000017811544
 23
-0.0514015718078986
 33
0.0450000021373853
0
3DFACE
8
8
 62
8
 10
-0.0375000017811544
 20
-0.0514015718078986
 30
0
 11
-0.0690551027672459
 21
-0.0514015718078986
 31
0
 12
-0.0690551027672459
 22
-0.0514015718078986
 32
0.0450000021373853
 13
-0.0375000017811544
 23
-0.0514015718078986
 33
0.0450000021373853
0
3DFACE
8
8
 62
8
 10
-0.0690551027672459
 20
-0.0514015718078986
 30
0
 11
-0.0690551027672459
 21
0.0514015718078986
 31
0
 12
-0.0690551027672459
 22
0.0514015718078986
 32
0.0450000021373853
 13
-0.0690551027672459
 23
-0.0514015718078986
 33
0.0450000021373853
0
3DFACE
8
8
 62
8
 10
-0.0690551027672459
 20
0.0514015718078986
 30
0
 11
-0.0375000017811544
 21
0.0514015718078986
 31
0
 12
-0.0375000017811544
 22
0.0514015718078986
 32
0.0450000021373853
 13
-0.0690551027672459
 23
0.0514015718078986
 33
0.0450000021373853
0
3DFACE
8
8
 62
8
 10
-0.0375000017811544
 20
0.0514015718078986
 30
0
 11
-0.0375000017811544
 21
0.0650000030873343
 31
0
 12
-0.0375000017811544
 22
0.0650000030873343
 32
0.0450000021373853
 13
-0.0375000017811544
 23
0.0514015718078986
 33
0.0450000021373853
0
3DFACE
8
8
 62
8
 10
-0.0375000017811544
 20
0.0650000030873343
 30
0
 11
0.0375000017811544
 21
0.0650000030873343
 31
0
 12
0.0375000017811544
 22
0.0650000030873343
 32
0.0450000021373853
 13
-0.0375000017811544
 23
0.0650000030873343
 33
0.0450000021373853
0
3DFACE
8
8
 62
8
 10
0.0375000017811544
 20
0.0650000030873343
 30
0
 11
0.0375000017811544
 21
0.0514015718078986
 31
0
 12
0.0375000017811544
 22
0.0514015718078986
 32
0.0450000021373853
 13
0.0375000017811544
 23
0.0650000030873343
 33
0.0450000021373853
0
3DFACE
8
8
 62
8
 10
0.0375000017811544
 20
0.0514015718078986
 30
0
 11
0.0690551027672459
 21
0.0514015718078986
 31
0
 12
0.0690551027672459
 22
0.0514015718078986
 32
0.0450000021373853
 13
0.0375000017811544
 23
0.0514015718078986
 33
0.0450000021373853
0
3DFACE
8
8
 62
8
 10
0.0690551027672459
 20
0.0514015718078986
 30
0
 11
0.0690551027672459
 21
-0.0514015718078986
 31
0
 12
0.0690551027672459
 22
-0.0514015718078986
 32
0.0450000021373853
 13
0.0690551027672459
 23
0.0514015718078986
 33
0.0450000021373853
0
3DFACE
8
8
 62
8
 10
0.0690551027672459
 20
-0.0514015718078986
 30
0
 11
0.0375000017811544
 21
-0.0514015718078986
 31
0
 12
0.0375000017811544
 22
-0.0514015718078986
 32
0.0450000021373853
 13
0.0690551027672459
 23
-0.0514015718078986
 33
0.0450000021373853
0
3DFACE
8
8
 62
8
 10
0.0375000017811544
 20
-0.0514015718078986
 30
0
 11
0.0375000017811544
 21
-0.0650000030873343
 31
0
 12
0.0375000017811544
 22
-0.0650000030873343
 32
0.0450000021373853
 13
0.0375000017811544
 23
-0.0514015718078986
 33
0.0450000021373853
0
3DFACE
8
8
 62
8
 10
0.0375000017811544
 20
-0.0650000030873343
 30
0
 11
-0.0375000017811544
 21
-0.0650000030873343
 31
0
 12
-0.0375000017811544
 22
-0.0650000030873343
 32
0.0450000021373853
 13
0.0375000017811544
 23
-0.0650000030873343
 33
0.0450000021373853
0
3DFACE
8
8
 62
8
 10
-0.0375000017811544
 20
-0.0650000030873343
 30
0
 11
-0.0375000017811544
 21
-0.0514015718078986
 31
0
 12
-0.0375000017811544
 22
-0.0514015718078986
 32
0.0450000021373853
 13
-0.0375000017811544
 23
-0.0650000030873343
 33
0.0450000021373853
 0
ENDBLK
 0
BLOCK
 70
0
 2
TOP_VALOR_Polygon_73
 10
0
 20
0
 30
0
0
3DFACE
8
23
 62
23
 10
-0.0900551037646924
 20
-0.071000003372319
 30
0
 11
-0.0900551037646924
 21
0.071000003372319
 31
0
 12
0.0900551037646924
 22
0.071000003372319
 32
0
 13
0.0900551037646924
 23
-0.071000003372319
 33
0
0
3DFACE
8
23
 62
23
 10
-0.0900551037646924
 20
-0.071000003372319
 30
0.0450000021373853
 11
-0.0900551037646924
 21
0.071000003372319
 31
0.0450000021373853
 12
0.0900551037646924
 22
0.071000003372319
 32
0.0450000021373853
 13
0.0900551037646924
 23
-0.071000003372319
 33
0.0450000021373853
0
3DFACE
8
23
 62
23
 10
0.0900551037646924
 20
-0.071000003372319
 30
0
 11
-0.0900551037646924
 21
-0.071000003372319
 31
0
 12
-0.0900551037646924
 22
-0.071000003372319
 32
0.0450000021373853
 13
0.0900551037646924
 23
-0.071000003372319
 33
0.0450000021373853
0
3DFACE
8
23
 62
23
 10
-0.0900551037646924
 20
-0.071000003372319
 30
0
 11
-0.0900551037646924
 21
0.071000003372319
 31
0
 12
-0.0900551037646924
 22
0.071000003372319
 32
0.0450000021373853
 13
-0.0900551037646924
 23
-0.071000003372319
 33
0.0450000021373853
0
3DFACE
8
23
 62
23
 10
-0.0900551037646924
 20
0.071000003372319
 30
0
 11
0.0900551037646924
 21
0.071000003372319
 31
0
 12
0.0900551037646924
 22
0.071000003372319
 32
0.0450000021373853
 13
-0.0900551037646924
 23
0.071000003372319
 33
0.0450000021373853
0
3DFACE
8
23
 62
23
 10
0.0900551037646924
 20
0.071000003372319
 30
0
 11
0.0900551037646924
 21
-0.071000003372319
 31
0
 12
0.0900551037646924
 22
-0.071000003372319
 32
0.0450000021373853
 13
0.0900551037646924
 23
0.071000003372319
 33
0.0450000021373853
 0
ENDBLK
0
ENDSEC
0
SECTION
2
ENTITIES
 0
INSERT
 8
8
 2
TOP_PLACE_BOUND_Polygon_55
 10
0
 20
0
 30
0
 41
1
 42
1
 43
1
 0
INSERT
 8
23
 2
TOP_VALOR_Polygon_73
 10
0
 20
0
 30
0
 41
1
 42
1
 43
1
0
ENDSEC
 0
EOF

